<?xml version="1.0" encoding="utf-8"?>
<!-- Generator: Adobe Illustrator 17.1.0, SVG Export Plug-In . SVG Version: 6.00 Build 0)  -->
<!DOCTYPE svg PUBLIC "-//W3C//DTD SVG 1.1//EN" "http://www.w3.org/Graphics/SVG/1.1/DTD/svg11.dtd">
<svg version="1.1" id="Layer_1" xmlns="http://www.w3.org/2000/svg" xmlns:xlink="http://www.w3.org/1999/xlink" x="0px" y="0px"
	 viewBox="0 0 3900 100" style="enable-background:new 0 0 3900 100;" xml:space="preserve">
<style type="text/css">
	.st0{fill:#FAAF37;}
	.st1{fill:#EC9033;}
</style>
<g>
	<rect x="972.4" y="23.8" class="st0" width="969.2" height="12.9"/>
	<rect x="972.4" y="63.3" class="st0" width="969.2" height="12.9"/>
	<circle class="st1" cx="1871" cy="50" r="13.2"/>
	<circle class="st1" cx="1788.3" cy="50" r="13.2"/>
	<circle class="st1" cx="1712.6" cy="50" r="13.2"/>
	<circle class="st1" cx="1635.6" cy="50" r="13.2"/>
	<circle class="st1" cx="1559.9" cy="50" r="13.2"/>
	<circle class="st1" cx="1484.9" cy="50" r="13.2"/>
	<circle class="st1" cx="1410.2" cy="50" r="13.2"/>
	<circle class="st1" cx="1332.5" cy="50" r="13.2"/>
	<circle class="st1" cx="1255.5" cy="50" r="13.2"/>
	<circle class="st1" cx="1179.8" cy="50" r="13.2"/>
	<circle class="st1" cx="1102.3" cy="49.8" r="13.2"/>
	<circle class="st1" cx="1027.6" cy="49.8" r="13.2"/>
	<rect x="21.6" y="23.8" class="st0" width="969.2" height="12.9"/>
	<rect x="21.6" y="63.3" class="st0" width="969.2" height="12.9"/>
	<circle class="st1" cx="951.4" cy="49.9" r="13.2"/>
	<circle class="st1" cx="874.3" cy="49.9" r="13.2"/>
	<circle class="st1" cx="798.7" cy="49.9" r="13.2"/>
	<circle class="st1" cx="722.6" cy="49.9" r="13.2"/>
	<circle class="st1" cx="648" cy="49.9" r="13.2"/>
	<circle class="st1" cx="573.3" cy="49.9" r="13.2"/>
	<circle class="st1" cx="496.2" cy="49.9" r="13.2"/>
	<circle class="st1" cx="420.5" cy="49.9" r="13.2"/>
	<circle class="st1" cx="342.5" cy="49.9" r="13.2"/>
	<circle class="st1" cx="267.9" cy="49.9" r="13.2"/>
	<circle class="st1" cx="190.7" cy="49.8" r="13.2"/>
	<circle class="st1" cx="113.6" cy="49.8" r="13.2"/>
	<circle class="st1" cx="38" cy="49.8" r="13.2"/>
</g>
<g>
	<rect x="2892.3" y="23.8" class="st0" width="976.2" height="12.9"/>
	<rect x="2892.3" y="63.3" class="st0" width="976.2" height="12.9"/>
	<circle class="st1" cx="3782.9" cy="50" r="13.2"/>
	<circle class="st1" cx="3708.2" cy="50" r="13.2"/>
	<circle class="st1" cx="3632.5" cy="50" r="13.2"/>
	<circle class="st1" cx="3555.5" cy="50" r="13.2"/>
	<circle class="st1" cx="3479.8" cy="50" r="13.2"/>
	<circle class="st1" cx="3404.8" cy="50" r="13.2"/>
	<circle class="st1" cx="3330.1" cy="50" r="13.2"/>
	<circle class="st1" cx="3252.4" cy="50" r="13.2"/>
	<circle class="st1" cx="3175.4" cy="50" r="13.2"/>
	<circle class="st1" cx="3099.7" cy="50" r="13.2"/>
	<circle class="st1" cx="3022.2" cy="49.8" r="13.2"/>
	<circle class="st1" cx="2947.5" cy="49.8" r="13.2"/>
	<rect x="1941.5" y="23.8" class="st0" width="969.2" height="12.9"/>
	<rect x="1941.5" y="63.2" class="st0" width="969.2" height="12.9"/>
	<circle class="st1" cx="2871.3" cy="49.9" r="13.2"/>
	<circle class="st1" cx="2794.2" cy="49.9" r="13.2"/>
	<circle class="st1" cx="2718.5" cy="49.9" r="13.2"/>
	<circle class="st1" cx="2642.5" cy="49.9" r="13.2"/>
	<circle class="st1" cx="2567.8" cy="49.9" r="13.2"/>
	<circle class="st1" cx="2493.2" cy="49.9" r="13.2"/>
	<circle class="st1" cx="2416.1" cy="49.9" r="13.2"/>
	<circle class="st1" cx="2340.4" cy="49.9" r="13.2"/>
	<circle class="st1" cx="2262.4" cy="49.9" r="13.2"/>
	<circle class="st1" cx="2187.7" cy="49.9" r="13.2"/>
	<circle class="st1" cx="2110.6" cy="49.7" r="13.2"/>
	<circle class="st1" cx="2033.5" cy="49.7" r="13.2"/>
	<circle class="st1" cx="1956.8" cy="49.7" r="13.2"/>
</g>
<circle class="st1" cx="3854.3" cy="50" r="13.2"/>
</svg>
