<?xml version="1.0" encoding="utf-8"?>
<!-- Generator: Adobe Illustrator 17.1.0, SVG Export Plug-In . SVG Version: 6.00 Build 0)  -->
<!DOCTYPE svg PUBLIC "-//W3C//DTD SVG 1.1//EN" "http://www.w3.org/Graphics/SVG/1.1/DTD/svg11.dtd">
<svg version="1.1" id="Layer_1" xmlns="http://www.w3.org/2000/svg" xmlns:xlink="http://www.w3.org/1999/xlink" x="0px" y="0px"
	 viewBox="0 0 300 320" style="enable-background:new 0 0 300 320;" xml:space="preserve">
<style type="text/css">
	.st0{fill:#EF4137;}
	.st1{fill:#F3E205;}
	.st2{fill:#003949;}
	.st3{fill:#B93628;}
	.st4{fill:#11182B;}
</style>
<path class="st0" d="M175.6,228H101c-3.7,0-6.6-4.2-6.6-9.4v-87.9c0-5.2,3-9.4,6.6-9.4h74.7c3.7,0,6.6,4.2,6.6,9.4v87.9
	C182.3,223.8,179.3,228,175.6,228z"/>
<rect x="119.2" y="115.6" class="st0" width="34.7" height="5.9"/>
<rect x="148" y="216.9" class="st0" width="19.4" height="29.1"/>
<path class="st1" d="M169.7,206.1h-62.4c-3.1,0-5.5-3-5.5-6.7V136c0-3.7,2.5-6.7,5.5-6.7h62.4c3.1,0,5.5,3,5.5,6.7v63.3
	C175.3,203.1,172.8,206.1,169.7,206.1z"/>
<ellipse class="st2" cx="157.7" cy="255.2" rx="9.6" ry="9.2"/>
<g>
	<rect x="107.8" y="246" class="st0" width="19.2" height="29.1"/>
	<ellipse class="st2" cx="117.4" cy="284.3" rx="9.6" ry="9.2"/>
	<rect x="107.8" y="293.5" class="st0" width="19.2" height="19.3"/>
</g>
<rect x="148.1" y="264.4" class="st0" width="19.2" height="19.3"/>
<rect x="140.1" y="212" class="st3" width="35.1" height="3.4"/>
<rect x="84.6" y="125.5" class="st0" width="17.2" height="16.5"/>
<path class="st0" d="M115.7,147.7h-7.3c-1.3,0-2.3-1-2.3-2.2v-7.4c0-1.2,1-2.2,2.3-2.2h7.3c1.3,0,2.3,1,2.3,2.2v7.4
	C118,146.7,117,147.7,115.7,147.7z"/>
<path class="st0" d="M133.1,147.7h-7.3c-1.3,0-2.3-1-2.3-2.2v-7.4c0-1.2,1-2.2,2.3-2.2h7.3c1.3,0,2.3,1,2.3,2.2v7.4
	C135.3,146.7,134.3,147.7,133.1,147.7z"/>
<path class="st0" d="M150.6,147.7h-7.3c-1.3,0-2.3-1-2.3-2.2v-7.4c0-1.2,1-2.2,2.3-2.2h7.3c1.3,0,2.3,1,2.3,2.2v7.4
	C152.9,146.7,151.9,147.7,150.6,147.7z"/>
<path class="st0" d="M167.7,147.7h-7.3c-1.3,0-2.3-1-2.3-2.2v-7.4c0-1.2,1-2.2,2.3-2.2h7.3c1.3,0,2.3,1,2.3,2.2v7.4
	C169.9,146.7,168.9,147.7,167.7,147.7z"/>
<path class="st0" d="M115.7,164.2h-7.3c-1.3,0-2.3-1-2.3-2.2v-7.4c0-1.2,1-2.2,2.3-2.2h7.3c1.3,0,2.3,1,2.3,2.2v7.4
	C118,163.3,117,164.2,115.7,164.2z"/>
<path class="st0" d="M133.1,164.2h-7.3c-1.3,0-2.3-1-2.3-2.2v-7.4c0-1.2,1-2.2,2.3-2.2h7.3c1.3,0,2.3,1,2.3,2.2v7.4
	C135.3,163.3,134.3,164.2,133.1,164.2z"/>
<path class="st0" d="M150.6,164.2h-7.3c-1.3,0-2.3-1-2.3-2.2v-7.4c0-1.2,1-2.2,2.3-2.2h7.3c1.3,0,2.3,1,2.3,2.2v7.4
	C152.9,163.3,151.9,164.2,150.6,164.2z"/>
<path class="st0" d="M167.7,164.2h-7.3c-1.3,0-2.3-1-2.3-2.2v-7.4c0-1.2,1-2.2,2.3-2.2h7.3c1.3,0,2.3,1,2.3,2.2v7.4
	C169.9,163.3,168.9,164.2,167.7,164.2z"/>
<path class="st0" d="M115.7,180.6h-7.3c-1.3,0-2.3-1-2.3-2.2V171c0-1.2,1-2.2,2.3-2.2h7.3c1.3,0,2.3,1,2.3,2.2v7.4
	C118,179.6,117,180.6,115.7,180.6z"/>
<g>
	<ellipse class="st3" cx="106.2" cy="216.8" rx="1.7" ry="1.6"/>
	<path class="st1" d="M104.6,216.7c-0.6,0.6-6.3,3.3-6.3,0S104.6,216.7,104.6,216.7z"/>
	<path class="st1" d="M104.9,217.7c0,0.8-2,6.6-4.4,4.3C98,219.6,104.9,217.7,104.9,217.7z"/>
	<path class="st1" d="M106.1,218.6c0.6,0.5,3.5,6,0,6C102.7,224.6,106.1,218.6,106.1,218.6z"/>
	<path class="st1" d="M107.3,217.9c0.8,0,6.9,1.9,4.4,4.3C109.3,224.5,107.3,217.9,107.3,217.9z"/>
	<path class="st1" d="M107.9,216.8c0.6-0.6,6.3-3.3,6.3,0S107.9,216.8,107.9,216.8z"/>
	<path class="st1" d="M106.2,215.2c-0.6-0.5-3.5-6,0-6C109.7,209.2,106.2,215.2,106.2,215.2z"/>
	<path class="st1" d="M105.1,215.7c-0.8,0-6.9-1.9-4.4-4.3C103.1,209.1,105.1,215.7,105.1,215.7z"/>
	<path class="st1" d="M107.3,215.6c0-0.8,2-6.6,4.4-4.3C114.2,213.7,107.3,215.6,107.3,215.6z"/>
</g>
<rect x="73.4" y="137.4" class="st0" width="12" height="29.7"/>
<ellipse class="st2" cx="79.3" cy="133.7" rx="11" ry="11.7"/>
<polygon class="st0" points="122.9,164.8 82.2,173.5 79.9,163.7 120.7,155 "/>
<ellipse class="st2" cx="79.3" cy="168.3" rx="7.5" ry="7.2"/>
<polygon class="st3" points="101.8,169.3 122.9,164.8 120.7,155 101.8,159 "/>
<ellipse class="st0" cx="126.1" cy="160.1" rx="10.4" ry="7.6"/>
<g>
	<polygon class="st0" points="193.2,190.2 182.6,183.9 214.5,165.8 214.7,134.4 226,141 225.3,172.1 	"/>
	<rect x="214.1" y="137.9" class="st0" width="12" height="29.7"/>
	<rect x="201.5" y="124.8" class="st0" width="13.7" height="16.9"/>
	<ellipse class="st2" cx="220.4" cy="133.7" rx="11" ry="11.7"/>
	<polygon class="st3" points="199.3,174.3 172.1,188.9 182.6,196.4 199.3,186.8 	"/>
	<ellipse class="st2" cx="220" cy="167.7" rx="7.5" ry="7.2"/>
	<ellipse class="st0" cx="174.5" cy="193" rx="10.4" ry="7.6"/>
</g>
<g>
	<g>
		<path class="st0" d="M172.6,87.6h-72.1c-4.4,0-7.9-4.1-7.9-9.1V17.4c0-5,3.5-9.1,7.9-9.1h72.1c4.4,0,7.9,4.1,7.9,9.1v61.2
			C180.5,83.6,176.9,87.6,172.6,87.6z"/>
		<path class="st3" d="M93.7,83.3l6.2-11.7h61.9l18.7,9.3c0,0-2.3,6.4-6.3,6.6c-4,0.2-75.3,0-75.3,0S94.8,86.3,93.7,83.3z"/>
		<path class="st1" d="M156.2,76h-51c-3.1,0-5.6-2.9-5.6-6.4V26.3c0-3.5,2.5-6.4,5.6-6.4h51c3.1,0,5.6,2.9,5.6,6.4v43.3
			C161.8,73.1,159.3,76,156.2,76z"/>
		<ellipse class="st4" cx="171.3" cy="25.2" rx="4.4" ry="5"/>
		<ellipse class="st4" cx="171.3" cy="40.2" rx="4.4" ry="5"/>
	</g>
	<polygon class="st0" points="124.3,36.6 115,45.6 105.6,36.6 115,27.6 	"/>
	<polygon class="st0" points="155.6,36.6 146.2,45.6 136.8,36.6 146.2,27.6 	"/>
	<polygon class="st3" points="105.6,36.6 124.3,36.6 115,45.6 	"/>
	<polygon class="st3" points="136.8,36.6 155.6,36.6 146.2,45.6 	"/>
	<path class="st0" d="M133.9,73.8h-6.1c-1.4,0-2.6-1.1-2.6-2.5V48.4c0-1.4,1.2-2.5,2.6-2.5h6.1c1.4,0,2.6,1.1,2.6,2.5v22.9
		C136.5,72.7,135.3,73.8,133.9,73.8z"/>
</g>
</svg>
