<?xml version="1.0" encoding="utf-8"?>
<!-- Generator: Adobe Illustrator 17.1.0, SVG Export Plug-In . SVG Version: 6.00 Build 0)  -->
<!DOCTYPE svg PUBLIC "-//W3C//DTD SVG 1.1//EN" "http://www.w3.org/Graphics/SVG/1.1/DTD/svg11.dtd">
<svg version="1.1" id="Layer_1" xmlns="http://www.w3.org/2000/svg" xmlns:xlink="http://www.w3.org/1999/xlink" x="0px" y="0px"
	 viewBox="0 0 300 300" style="enable-background:new 0 0 300 300;" xml:space="preserve">
<style type="text/css">
	.st0{fill:#B93628;}
	.st1{fill:#EF4137;}
	.st2{fill:#F8AE36;}
	.st3{clip-path:url(#SVGID_2_);fill:#F8AE36;}
</style>
<path class="st0" d="M220.5,120c19.3,0,54.9,15.7,53.9,65.3h-23.6c0,0,3-37.5-30.3-37.3V120z"/>
<rect x="149" y="108.1" class="st0" width="32.4" height="21.4"/>
<ellipse class="st1" cx="165.6" cy="75.3" rx="49.6" ry="41.9"/>
<path class="st1" d="M221.7,201.5H111c-6.5,0-11.8-5.1-11.8-11.3v-59c0-6.2,5.3-11.3,11.8-11.3h110.7c6.5,0,11.8,5.1,11.8,11.3v59
	C233.5,196.5,228.2,201.5,221.7,201.5z"/>
<ellipse class="st0" cx="145.5" cy="72.1" rx="10.8" ry="10.4"/>
<ellipse class="st0" cx="184.7" cy="72.1" rx="10.8" ry="10.4"/>
<polygon class="st0" points="199.2,165.7 163.7,194.1 109.6,194.1 109.6,126.5 222.7,126.5 222.7,165.7 "/>
<ellipse class="st0" cx="216.1" cy="185.3" rx="9.3" ry="8.9"/>
<ellipse class="st0" cx="194.9" cy="185.3" rx="9.3" ry="8.9"/>
<polygon class="st0" points="165.3,232.6 134.3,201.5 195.1,201.5 "/>
<rect x="149" y="126.5" class="st1" width="32.4" height="21.5"/>
<rect x="154.8" y="148" class="st2" width="20.8" height="11.1"/>
<rect x="159.8" y="159.1" class="st1" width="10.7" height="8.6"/>
<rect x="136.3" y="126.5" class="st1" width="3.5" height="67.7"/>
<rect x="193.4" y="126.5" class="st1" width="2.6" height="44.8"/>
<polygon class="st2" points="160.9,167.7 165.2,174.8 167.6,167.7 "/>
<polyline class="st2" points="115.6,194.1 109.6,194.1 109.6,126.5 115.6,126.5 "/>
<rect x="109.6" y="132.7" class="st2" width="113" height="2.3"/>
<rect x="109.8" y="136.1" class="st2" width="113" height="2.3"/>
<g>
	<ellipse class="st2" cx="194.9" cy="185.1" rx="1.8" ry="1.7"/>
	<path class="st1" d="M193.1,185c-0.6,0.6-7,3.7-7,0C186.1,181.3,193.1,185,193.1,185z"/>
	<path class="st1" d="M193.4,186.2c0,0.9-2.2,7.3-4.9,4.7S193.4,186.2,193.4,186.2z"/>
	<path class="st1" d="M194.8,187.1c0.6,0.6,3.8,6.7,0,6.7S194.8,187.1,194.8,187.1z"/>
	<path class="st1" d="M196.1,186.4c0.9,0,7.6,2.1,4.9,4.7C198.3,193.7,196.1,186.4,196.1,186.4z"/>
	<path class="st1" d="M196.7,185.2c0.6-0.6,7-3.7,7,0S196.7,185.2,196.7,185.2z"/>
	<path class="st1" d="M194.9,183.4c-0.6-0.6-3.8-6.7,0-6.7C198.7,176.7,194.9,183.4,194.9,183.4z"/>
	<path class="st1" d="M193.6,183.9c-0.9,0-7.6-2.1-4.9-4.7S193.6,183.9,193.6,183.9z"/>
	<path class="st1" d="M196.1,183.9c0-0.9,2.2-7.3,4.9-4.7S196.1,183.9,196.1,183.9z"/>
</g>
<g>
	<defs>
		<ellipse id="SVGID_1_" cx="216.1" cy="185.3" rx="5.5" ry="5.2"/>
	</defs>
	<use xlink:href="#SVGID_1_"  style="overflow:visible;fill:#EF4137;"/>
	<clipPath id="SVGID_2_">
		<use xlink:href="#SVGID_1_"  style="overflow:visible;"/>
	</clipPath>
	<path class="st3" d="M212.4,181.4c0,0-0.1,6.7,0.3,6.7c0.2,0-0.1-6.8,0.1-6.8c5.4-0.1,0.2,7.6,0.3,7.6s1.2-2,3-0.2
		c1.9,1.9,4.6-0.6,4.4-4.4c-0.2-3.8,0,2.3-0.7,2.4c-0.7,0.1,0.1,0.3,0.1-2.4c0-2.7,1-5.4-1.6-5.6c-2.6-0.2-6,1.9-6,1.9L212.4,181.4z
		"/>
</g>
<polygon class="st0" points="165.3,232.6 173.5,217.1 157.9,217.1 "/>
<path class="st2" d="M207.6,55.8c-6,5-15.2,1.3-22.9,1.3c-7.7,0-16.8,4.4-15.8,15c1,10.5,1.5-8.5,24.3-8.1
	C215.9,64.3,207.6,55.8,207.6,55.8z"/>
<path class="st2" d="M122.8,55.8c6,5,15.2,1.3,22.9,1.3c7.7,0,16.8,4.4,15.8,15c-1,10.5-1.5-8.5-24.3-8.1
	C114.5,64.3,122.8,55.8,122.8,55.8z"/>
<polygon class="st0" points="153.4,104.9 165.6,84.7 177.8,104.9 "/>
<g>
	<path class="st0" d="M79,119.6c-19.3,0-54.9,15.7-53.9,65.3h23.6c0,0-3-37.5,30.3-37.3V119.6z"/>
	<polygon class="st1" points="25.1,184.9 17.2,193.4 35.5,207.2 55.1,191.3 48.7,184.9 	"/>
</g>
<polygon class="st1" points="274.4,185.3 282.3,193.8 264.2,207.7 244.4,191.7 250.8,185.3 "/>
<polygon class="st1" points="147.9,258.1 91.6,258.1 95.1,244 134.3,244 "/>
<path class="st0" d="M134.3,201.5c-35.1,0-39.3,17.7-39.3,42.4h39.3c0,0-8.6-13.8,15-27.3L134.3,201.5z"/>
<g>
	<polygon class="st1" points="165.3,269.1 165.3,238 195.2,238 	"/>
	<polygon class="st1" points="237.8,294.5 181.5,294.5 195.2,280.5 234.5,280.5 	"/>
	<path class="st0" d="M195.1,238c35.1,0,39.3,17.7,39.3,42.4h-39.3c0,0,8.8-13.4-14.8-26.9L195.1,238z"/>
</g>
<polygon class="st1" points="165.2,174.8 164.7,166.6 169.5,167.7 "/>
<polygon class="st2" points="157.9,180.4 162.4,175.9 168.2,177.8 169.3,182.2 165.9,183.3 161.1,187.3 "/>
<polygon class="st1" points="168.2,186.8 161.1,187.3 165.9,183.3 173.1,182.5 "/>
<polygon class="st0" points="162.4,175.9 165.9,183.3 172,182.7 168.7,175.7 "/>
<ellipse class="st2" cx="182.2" cy="129.7" rx="3.4" ry="3.3"/>
<ellipse class="st2" cx="148.8" cy="129.7" rx="3.4" ry="3.2"/>
<polygon class="st0" points="165.6,33.4 161.6,29.3 170.5,19.3 164.1,29.4 "/>
<ellipse class="st0" cx="169.2" cy="14.8" rx="9.2" ry="8.9"/>
<ellipse class="st1" cx="170.4" cy="16.9" rx="5.2" ry="5"/>
<polygon class="st0" points="160.1,13.1 145.5,16.9 161.6,19.3 "/>
<polygon class="st0" points="178.2,13.1 192.8,16.9 176.6,19.3 "/>
</svg>
