<?xml version="1.0" encoding="utf-8"?>
<!-- Generator: Adobe Illustrator 17.1.0, SVG Export Plug-In . SVG Version: 6.00 Build 0)  -->
<!DOCTYPE svg PUBLIC "-//W3C//DTD SVG 1.1//EN" "http://www.w3.org/Graphics/SVG/1.1/DTD/svg11.dtd">
<svg version="1.1" id="Layer_1" xmlns="http://www.w3.org/2000/svg" xmlns:xlink="http://www.w3.org/1999/xlink" x="0px" y="0px"
	 viewBox="0 0 280 280" style="enable-background:new 0 0 280 280;" xml:space="preserve">
<style type="text/css">
	.st0{fill:#EF4137;}
	.st1{fill:#F8AE36;}
	.st2{clip-path:url(#SVGID_2_);fill:#B93628;}
	.st3{clip-path:url(#SVGID_4_);fill:#B93628;}
	.st4{fill:#B93628;}
	.st5{clip-path:url(#SVGID_6_);fill:#F8AE36;}
</style>
<rect x="131.5" y="76.9" class="st0" width="21.5" height="22.7"/>
<ellipse class="st0" cx="194.4" cy="49.1" rx="5.2" ry="10.3"/>
<ellipse class="st0" cx="91.3" cy="49.1" rx="5.2" ry="10.3"/>
<ellipse class="st1" cx="142.5" cy="49.6" rx="49" ry="35.9"/>
<rect x="164.6" y="104.6" class="st0" width="21.9" height="8.4"/>
<path class="st1" d="M158.7,194.8h-32.4c-12.1,0-22-10.6-22-23.7v-55.6c0-13.1,9.8-23.7,22-23.7h32.4c12.1,0,22,10.6,22,23.7v55.6
	C180.7,184.2,170.9,194.8,158.7,194.8z"/>
<ellipse class="st0" cx="123.6" cy="46.3" rx="11.3" ry="10.9"/>
<ellipse class="st0" cx="158.7" cy="46.3" rx="11.3" ry="10.9"/>
<rect x="116.6" y="108.7" class="st0" width="21.1" height="17.4"/>
<rect x="147.4" y="108.7" class="st0" width="22.7" height="44.9"/>
<rect x="116.6" y="136.4" class="st0" width="21.1" height="17.4"/>
<rect x="189.3" y="112.3" class="st0" width="5.9" height="65.4"/>
<ellipse class="st1" cx="192.2" cy="108.1" rx="9.3" ry="8.9"/>
<g>
	<defs>
		<ellipse id="SVGID_1_" cx="123.6" cy="46.3" rx="11.3" ry="10.9"/>
	</defs>
	<clipPath id="SVGID_2_">
		<use xlink:href="#SVGID_1_"  style="overflow:visible;"/>
	</clipPath>
	<polygon class="st2" points="116.6,37.8 128.8,56 125.6,66.5 107.5,46.3 110.6,36.6 	"/>
</g>
<g>
	<defs>
		<ellipse id="SVGID_3_" cx="158.7" cy="46.3" rx="11.3" ry="10.9"/>
	</defs>
	<clipPath id="SVGID_4_">
		<use xlink:href="#SVGID_3_"  style="overflow:visible;"/>
	</clipPath>
	<polygon class="st3" points="151.8,37.8 163.9,56 160.7,66.5 142.7,46.3 145.7,36.6 	"/>
</g>
<ellipse class="st1" cx="153.3" cy="115" rx="2.6" ry="2.5"/>
<ellipse class="st4" cx="164.6" cy="115" rx="2.6" ry="2.5"/>
<path class="st1" d="M192.4,180.8c3.8,0,6.9,5.6,7.6,12.9c0.1-0.9,0.1-1.9,0.1-2.9c0-8.7-3.5-15.8-7.7-15.8s-7.7,7.1-7.7,15.8
	c0,1,0.1,2,0.1,2.9C185.5,186.3,188.6,180.8,192.4,180.8z"/>
<g>
	<path class="st0" d="M147.8,227.6c0,15.4-2.2,28-4.8,28s-4.8-12.5-4.8-28s2.2-18,4.8-18S147.8,212.2,147.8,227.6z"/>
	<ellipse class="st0" cx="143" cy="221.9" rx="15.8" ry="15.1"/>
	<path class="st1" d="M143.3,260.5c4,0,7.5,2.1,9.5,5.1c0.9-1.5,1.4-3.3,1.4-5.1c0-5.9-5-10.7-11.1-10.7c-6.2,0-11.1,4.8-11.1,10.7
		c0,2,0.6,3.9,1.6,5.6C135.4,262.8,139,260.5,143.3,260.5z"/>
</g>
<ellipse class="st1" cx="153.3" cy="123.5" rx="2.6" ry="2.5"/>
<ellipse class="st4" cx="164.6" cy="123.5" rx="2.6" ry="2.5"/>
<ellipse class="st1" cx="153.1" cy="132.2" rx="2.6" ry="2.5"/>
<ellipse class="st4" cx="164.4" cy="132.2" rx="2.6" ry="2.5"/>
<ellipse class="st1" cx="153.1" cy="140.8" rx="2.6" ry="2.5"/>
<ellipse class="st4" cx="164.4" cy="140.8" rx="2.6" ry="2.5"/>
<ellipse class="st1" cx="153.1" cy="149" rx="2.6" ry="2.5"/>
<ellipse class="st4" cx="164.4" cy="149" rx="2.6" ry="2.5"/>
<g>
	<polygon class="st0" points="232.1,161.8 210.2,108.5 216,106.4 237.9,159.6 	"/>
	<g>
		<polygon class="st1" points="256.7,151.6 222.5,164.7 223.9,168.1 258.2,155 		"/>
		<path class="st1" d="M258.2,152.7c-1-3.2,0-6.5,2.2-8.8c-1.5-0.3-3.1-0.3-4.7,0.1c-5.1,1.4-8.1,6.5-6.6,11.4
			c1.5,4.9,6.8,7.7,11.9,6.3c1.8-0.5,3.3-1.4,4.4-2.6C262,158.4,259.2,156,258.2,152.7z"/>
	</g>
</g>
<path class="st1" d="M131.2,83"/>
<polygon class="st4" points="131.5,84.6 153.3,91.9 131.5,91.9 "/>
<g>
	<ellipse class="st4" cx="164.2" cy="181.3" rx="1.9" ry="1.8"/>
	<path class="st0" d="M162.3,181.1c-0.7,0.6-7.3,3.8-7.3,0S162.3,181.1,162.3,181.1z"/>
	<path class="st0" d="M162.7,182.4c0,0.9-2.3,7.6-5.1,4.9C154.7,184.6,162.7,182.4,162.7,182.4z"/>
	<path class="st0" d="M164.1,183.4c0.7,0.6,4,7,0,7C160.1,190.3,164.1,183.4,164.1,183.4z"/>
	<path class="st0" d="M165.5,182.6c0.9,0,8,2.2,5.1,4.9C167.8,190.2,165.5,182.6,165.5,182.6z"/>
	<path class="st0" d="M166.1,181.3c0.7-0.6,7.3-3.8,7.3,0S166.1,181.3,166.1,181.3z"/>
	<path class="st0" d="M164.2,179.5c-0.7-0.6-4-7,0-7C168.2,172.5,164.2,179.5,164.2,179.5z"/>
	<path class="st0" d="M162.9,180c-0.9,0-8-2.2-5.1-4.9S162.9,180,162.9,180z"/>
	<path class="st0" d="M165.4,179.9c0-0.9,2.3-7.6,5.1-4.9C173.4,177.7,165.4,179.9,165.4,179.9z"/>
</g>
<g>
	<rect x="76.1" y="104.4" class="st0" width="21.9" height="8.4"/>
	<rect x="67.3" y="112.5" class="st0" width="5.9" height="65.4"/>
	<polygon class="st0" points="48.5,162.4 70.4,109.2 64.7,107 42.7,160.3 	"/>
	<ellipse class="st1" cx="69.9" cy="108.5" rx="9.3" ry="8.9"/>
	<path class="st1" d="M70.3,180.8c3.8,0,6.9,4.9,7.6,11.3c0.1-0.8,0.1-1.7,0.1-2.5c0-7.7-3.5-13.9-7.7-13.9c-4.3,0-7.7,6.2-7.7,13.9
		c0,0.9,0.1,1.7,0.1,2.5C63.3,185.6,66.5,180.8,70.3,180.8z"/>
	<g>
		<polygon class="st1" points="50.5,163.3 46.3,172.6 26.4,164.3 30.6,155.1 		"/>
		<polygon class="st1" points="16.4,181.4 15.2,184.3 15.4,187.9 18.4,185.7 19.7,182.8 		"/>
		<polygon class="st0" points="25,175.8 21.6,183.6 14.5,180.6 18,172.9 		"/>
		<polygon class="st1" points="35.5,157.1 25.4,179.6 14.9,175.3 25,152.8 		"/>
		<polygon class="st1" points="53.4,164.5 47.8,176.9 41.1,174.1 46.6,161.7 		"/>
	</g>
</g>
<g>
	<defs>
		<ellipse id="SVGID_5_" cx="192.2" cy="108.1" rx="9.3" ry="8.9"/>
	</defs>
	<use xlink:href="#SVGID_5_"  style="overflow:visible;fill:#EF4137;"/>
	<clipPath id="SVGID_6_">
		<use xlink:href="#SVGID_5_"  style="overflow:visible;"/>
	</clipPath>
	<path class="st5" d="M185.9,101.6c0,0-0.1,11.4,0.4,11.4c0.3,0-0.2-11.6,0.2-11.6c9.3-0.1,0.4,12.9,0.5,12.9c0.1,0,2-3.5,5.2-0.3
		c3.2,3.2,7.8-1,7.5-7.6c-0.3-6.6,0.1,4-1.1,4.1s0.2,0.6,0.2-4.1c0-4.6,1.7-9.1-2.7-9.6c-4.4-0.4-10.2,3.3-10.2,3.3L185.9,101.6z"/>
</g>
</svg>
