<?xml version="1.0" encoding="utf-8"?>
<!-- Generator: Adobe Illustrator 17.1.0, SVG Export Plug-In . SVG Version: 6.00 Build 0)  -->
<!DOCTYPE svg PUBLIC "-//W3C//DTD SVG 1.1//EN" "http://www.w3.org/Graphics/SVG/1.1/DTD/svg11.dtd">
<svg version="1.1" id="Layer_1" xmlns="http://www.w3.org/2000/svg" xmlns:xlink="http://www.w3.org/1999/xlink" x="0px" y="0px"
	 viewBox="0 0 300 300" style="enable-background:new 0 0 300 300;" xml:space="preserve">
<style type="text/css">
	.st0{fill:#B93628;}
	.st1{fill:#003949;}
	.st2{fill:#EF4137;}
	.st3{fill:#F8AE36;}
	.st4{clip-path:url(#SVGID_2_);fill:#B93628;}
	.st5{clip-path:url(#SVGID_4_);fill:#F8AE36;}
</style>
<g>
	<ellipse class="st0" cx="189.1" cy="55.9" rx="12" ry="14.2"/>
	<ellipse class="st0" cx="113.7" cy="55.9" rx="12" ry="14.2"/>
	<path class="st0" d="M112.7,54.7c0-20.2,17.1-36.6,38.1-36.6c21.1,0,38.1,16.4,38.1,36.6c0,1.5-0.1,2.9-0.3,4.4
		c2.6-5.3,4.1-11.2,4.1-17.4c0-22.2-18.8-40.2-42-40.2s-42,18-42,40.2c0,6.2,1.5,12.1,4.1,17.4C112.8,57.7,112.7,56.2,112.7,54.7z"
		/>
</g>
<rect x="143.1" y="100.5" class="st1" width="17.3" height="21"/>
<path class="st1" d="M168,109.1h-33.9c-10.9,0-15.6-6.4-15.6-14.3l-4.1-50.4c0-7.9,6.1-13.1,17-13.1h40.1c10.9,0,17.7,5.2,17.7,13.1
	l-4.8,50.4C184.3,102.7,178.9,109.1,168,109.1z"/>
<rect x="126.1" y="227.2" class="st1" width="11.3" height="32.6"/>
<polygon class="st2" points="171.7,61.8 166.4,104.7 169.8,104.7 174.8,61.8 "/>
<polygon class="st2" points="132.8,61.8 138,104.7 134.6,104.7 129.6,61.8 "/>
<ellipse class="st2" cx="134.4" cy="89.7" rx="6.7" ry="6.4"/>
<ellipse class="st2" cx="169.3" cy="89.7" rx="6.7" ry="6.4"/>
<path class="st0" d="M116.9,50.9l26.4-0.8c0,0,0.7-7.7,8.5-7.7c7.8,0,8.5,7.5,8.5,7.5l27.5,1l-27.5,1.5c0,0-0.9,6.7-8.5,6.7
	c-6.7,0-8.4-6.7-8.4-6.7L116.9,50.9z"/>
<ellipse class="st0" cx="151.8" cy="51" rx="9.7" ry="9.3"/>
<ellipse class="st3" cx="151.7" cy="50.9" rx="6.7" ry="6.4"/>
<ellipse class="st0" cx="152.5" cy="162.4" rx="35.7" ry="34.2"/>
<path class="st1" d="M180.4,178h-53.8c-3.4,0-10.9-5.2-10.9-7.6l-3.4-52.4c0-2.4,2.7-4.3,6.1-4.3h70.1c3.4,0,4.9,1.9,4.9,4.3
	l-3.4,52.4C189.8,172.8,183.8,178,180.4,178z"/>
<polygon class="st0" points="122.9,221.8 122.9,242.5 132.4,245.5 132.4,251.2 122.9,254.6 122.9,271.7 121.1,271.7 121.1,253.5 
	130.2,250.7 130.2,246.6 121.1,243.5 121.1,217.7 "/>
<polygon class="st2" points="135.2,219.3 135.2,253.5 131.2,257.9 131.2,262 133.9,269 135.3,267.8 132.9,261.7 132.8,258.1 
	136.8,253.5 136.9,219.3 "/>
<path class="st1" d="M171.2,222.7h-37.7c-7.9,0-14.4-5-14.4-11.1l3.1-30.4h59.3l4,30.4C185.6,217.7,179.2,222.7,171.2,222.7z"/>
<polygon class="st2" points="128.6,113.7 146.3,140.9 146.3,146.3 115.2,163.9 115.1,166.7 148.6,147.2 148.6,140.2 132.4,113.7 "/>
<polygon class="st2" points="175.2,113.7 157.5,140.9 157.5,146.3 190.2,163.9 190.8,167.2 155.2,147.2 155.2,140.2 171.4,113.7 "/>
<rect x="151.4" y="147.2" class="st2" width="0.6" height="19.5"/>
<rect x="165.6" y="126.3" class="st2" width="0.6" height="40.4"/>
<rect x="139" y="127.1" class="st2" width="0.6" height="39.6"/>
<rect x="179.3" y="113.7" class="st2" width="0.6" height="53"/>
<rect x="125.5" y="113.7" class="st2" width="0.6" height="53"/>
<ellipse class="st2" cx="125.8" cy="167.9" rx="4.1" ry="4"/>
<ellipse class="st2" cx="139.3" cy="167.9" rx="4.1" ry="4"/>
<ellipse class="st2" cx="151.7" cy="167.9" rx="4.1" ry="4"/>
<ellipse class="st2" cx="165.8" cy="167.9" rx="4.1" ry="4"/>
<ellipse class="st2" cx="179.5" cy="167.9" rx="4.1" ry="4"/>
<ellipse class="st0" cx="175.8" cy="128.2" rx="5" ry="4.8"/>
<ellipse class="st3" cx="168.7" cy="132.2" rx="6.1" ry="5.8"/>
<ellipse class="st3" cx="177.8" cy="142.8" rx="5.9" ry="5.6"/>
<g>
	<ellipse class="st3" cx="129.9" cy="134.1" rx="2" ry="1.9"/>
	<path class="st2" d="M127.9,133.9c-0.7,0.7-7.5,4-7.5,0S127.9,133.9,127.9,133.9z"/>
	<path class="st2" d="M128.4,135.2c0,0.9-2.4,7.9-5.3,5.1C120.2,137.5,128.4,135.2,128.4,135.2z"/>
	<path class="st2" d="M129.8,136.2c0.7,0.6,4.1,7.2,0,7.2S129.8,136.2,129.8,136.2z"/>
	<path class="st2" d="M131.2,135.4c1,0,8.2,2.3,5.3,5.1C133.6,143.3,131.2,135.4,131.2,135.4z"/>
	<path class="st2" d="M131.9,134.1c0.7-0.7,7.5-4,7.5,0C139.4,138,131.9,134.1,131.9,134.1z"/>
	<path class="st2" d="M129.9,132.2c-0.7-0.6-4.1-7.2,0-7.2S129.9,132.2,129.9,132.2z"/>
	<path class="st2" d="M128.6,132.8c-1,0-8.2-2.3-5.3-5.1S128.6,132.8,128.6,132.8z"/>
	<path class="st2" d="M131.2,132.7c0-0.9,2.4-7.9,5.3-5.1C139.4,130.4,131.2,132.7,131.2,132.7z"/>
</g>
<g>
	<defs>
		<ellipse id="SVGID_1_" cx="168.7" cy="132.2" rx="6.1" ry="5.8"/>
	</defs>
	<clipPath id="SVGID_2_">
		<use xlink:href="#SVGID_1_"  style="overflow:visible;"/>
	</clipPath>
	<path class="st4" d="M174.7,133.5c-2.2,1.7-7.9,2.4-6.5-0.9c0,0,2.4-7.2-9,2.5s8.2,5.9,8.2,5.9l9.9-5.9L174.7,133.5z"/>
</g>
<path class="st1" d="M122.2,253.5"/>
<path class="st1" d="M147.6,282.6c0,0-7.9,0-17.6,0s-17.6,0-17.6,0c0-9.3,7.9-16.9,17.6-16.9S147.6,273.3,147.6,282.6z"/>
<g>
	<rect x="167.1" y="242.9" class="st1" width="11.3" height="32.6"/>
	<polygon class="st0" points="181.6,237.4 181.6,258.2 172.1,261.2 172.1,266.8 181.6,270.2 181.6,287.4 183.4,287.4 183.4,269.1 
		174.3,266.4 174.3,262.2 183.4,259.2 183.4,233.3 	"/>
	<polygon class="st2" points="169.3,234.9 169.3,269.1 173.3,273.5 173.3,277.6 170.6,284.6 169.2,283.4 171.5,277.3 171.6,273.8 
		167.7,269.1 167.6,234.9 	"/>
	<path class="st1" d="M191.5,298.3c0,0-7.9,0-17.6,0c-9.7,0-17.6,0-17.6,0c0-9.3,7.9-16.9,17.6-16.9
		C183.7,281.4,191.5,289,191.5,298.3z"/>
</g>
<g>
	<defs>
		<ellipse id="SVGID_3_" cx="177.8" cy="142.8" rx="5.9" ry="5.6"/>
	</defs>
	<use xlink:href="#SVGID_3_"  style="overflow:visible;fill:#EF4137;"/>
	<clipPath id="SVGID_4_">
		<use xlink:href="#SVGID_3_"  style="overflow:visible;"/>
	</clipPath>
	<path class="st5" d="M173.8,138.7c0,0-0.1,7.2,0.3,7.2c0.2,0-0.1-7.3,0.1-7.3c5.8-0.1,0.2,8.1,0.3,8.1c0.1,0,1.2-2.2,3.3-0.2
		c2,2,4.9-0.6,4.7-4.8c-0.2-4.1,0,2.5-0.7,2.6s0.1,0.4,0.1-2.6c0-2.9,1.1-5.8-1.7-6s-6.4,2.1-6.4,2.1L173.8,138.7z"/>
</g>
<path class="st2" d="M128.4,209.9c-3,0-5.5,2.4-5.5,5.3c0,2.9,2.5,5.3,5.5,5.3s5.5-2.4,5.5-5.3C133.9,212.2,131.5,209.9,128.4,209.9
	z M128.4,218.5c-1.9,0-3.4-1.5-3.4-3.3c0-1.8,1.5-3.3,3.4-3.3c1.9,0,3.4,1.5,3.4,3.3C131.9,217,130.3,218.5,128.4,218.5z"/>
<path class="st2" d="M175.4,209.9c-3,0-5.5,2.4-5.5,5.3c0,2.9,2.5,5.3,5.5,5.3s5.5-2.4,5.5-5.3C180.9,212.2,178.5,209.9,175.4,209.9
	z M175.4,218.5c-1.9,0-3.4-1.5-3.4-3.3c0-1.8,1.5-3.3,3.4-3.3c1.9,0,3.4,1.5,3.4,3.3C178.8,217,177.3,218.5,175.4,218.5z"/>
<polygon class="st2" points="131.2,210.6 148.6,197.5 148.6,189.8 122.2,181.2 119.1,182.1 146.7,190.8 146.7,196.7 128.4,209.9 "/>
<polygon class="st2" points="172.7,210.6 155.2,197.5 155.2,189.8 181.6,181.2 184.7,182.1 157.1,190.8 157.1,196.7 175.4,209.9 "/>
<g>
	<polygon class="st1" points="71.2,195.2 57.6,194.3 62.5,127.3 76.1,128.2 	"/>
	<ellipse class="st0" cx="71.4" cy="124.7" rx="11.4" ry="10.9"/>
	<path class="st0" d="M64.2,191.1c-8.5,0-15.4,6.6-15.4,14.7c0,8.1,6.9,14.7,15.4,14.7s15.4-6.6,15.4-14.7
		C79.6,197.7,72.7,191.1,64.2,191.1z M64.2,215.1c-5.3,0-9.6-4.1-9.6-9.2c0-5.1,4.3-9.2,9.6-9.2s9.6,4.1,9.6,9.2
		C73.8,211,69.5,215.1,64.2,215.1z"/>
</g>
<g>
	<polygon class="st1" points="226.7,196.3 239.7,195.1 236.4,128.2 223.4,129.4 	"/>
	<ellipse class="st0" cx="228" cy="126.3" rx="11.4" ry="10.9"/>
	<path class="st0" d="M234.6,190.9c-8.5,0-15.4,6.6-15.4,14.7c0,8.1,6.9,14.7,15.4,14.7c8.5,0,15.4-6.6,15.4-14.7
		C249.9,197.5,243.1,190.9,234.6,190.9z M234.6,214.9c-5.3,0-9.6-4.1-9.6-9.2c0-5.1,4.3-9.2,9.6-9.2c5.3,0,9.6,4.1,9.6,9.2
		C244.2,210.7,239.9,214.9,234.6,214.9z"/>
</g>
</svg>
