<?xml version="1.0" encoding="utf-8"?>
<!-- Generator: Adobe Illustrator 17.1.0, SVG Export Plug-In . SVG Version: 6.00 Build 0)  -->
<!DOCTYPE svg PUBLIC "-//W3C//DTD SVG 1.1//EN" "http://www.w3.org/Graphics/SVG/1.1/DTD/svg11.dtd">
<svg version="1.1" id="Layer_1" xmlns="http://www.w3.org/2000/svg" xmlns:xlink="http://www.w3.org/1999/xlink" x="0px" y="0px"
	 viewBox="0 0 320 320" style="enable-background:new 0 0 320 320;" xml:space="preserve">
<style type="text/css">
	.st0{fill:#EF4137;}
	.st1{fill:#F8AE36;}
	.st2{fill:#F3E205;}
	.st3{clip-path:url(#SVGID_2_);fill:#D2962C;}
</style>
<rect x="162.8" y="114.5" class="st0" width="6" height="53"/>
<polygon class="st0" points="152.6,167.6 147.9,171.3 112.9,130.3 117.6,126.6 "/>
<polygon class="st0" points="81.5,171.4 86.9,174 111.5,126.5 106.1,123.9 "/>
<polygon class="st0" points="115.5,128.2 112.8,123 162.1,99.1 164.8,104.2 "/>
<polygon class="st0" points="215,128.2 217.8,123 168.4,99.1 165.7,104.2 "/>
<polygon class="st0" points="83.4,176.4 78,179 53.4,131.5 58.8,128.9 "/>
<polygon class="st0" points="252.5,174.8 257.9,177.4 282.4,129.9 277,127.3 "/>
<polygon class="st0" points="250.3,174.8 244.9,177.4 220.3,129.9 225.7,127.3 "/>
<polygon class="st0" points="106.3,118 112.2,118.8 119.5,66.2 113.5,65.5 "/>
<polygon class="st0" points="224.5,118.7 218.5,119.5 211.3,66.9 217.2,66.2 "/>
<polygon class="st0" points="160.2,99.3 155.9,103.5 116.4,66.4 120.6,62.3 "/>
<polygon class="st0" points="171.8,103.2 176,107.3 215.6,70.3 211.4,66.2 "/>
<polygon class="st0" points="142.7,185.3 142.1,191 87.1,185.8 87.7,180 "/>
<polygon class="st0" points="55.6,127.1 56.2,132.8 111.2,127.6 110.6,121.8 "/>
<polygon class="st0" points="278.1,126.4 277.5,132.1 222.5,126.9 223.1,121.1 "/>
<polygon class="st0" points="175.9,173.7 180.6,177.4 215.6,136.4 210.9,132.7 "/>
<polygon class="st0" points="183.4,187.1 184,192.9 239.1,187.6 238.5,181.9 "/>
<polygon class="st0" points="165.6,238.8 162.8,275.3 168.8,238.6 "/>
<ellipse class="st1" cx="165.6" cy="198.4" rx="42.1" ry="40.3"/>
<ellipse class="st0" cx="178.2" cy="198.4" rx="18.4" ry="18.4"/>
<ellipse class="st2" cx="181.8" cy="192.9" rx="9.9" ry="5.5"/>
<path class="st2" d="M188.9,97.1c2.1,12.5-6.8,24.2-19.9,26.2c-13,2-25.2-6.6-27.3-19s6.8-24.2,19.9-26.2
	C174.7,76.1,186.9,84.6,188.9,97.1z"/>
<path class="st1" d="M243.2,120c2.1,12.5-6.8,24.2-19.9,26.2c-13,2-25.2-6.6-27.3-19s6.8-24.2,19.9-26.2
	C228.9,99,241.2,107.5,243.2,120z"/>
<path class="st2" d="M311.4,215.2c2.1,12.5-6.8,24.2-19.9,26.2c-13,2-25.2-6.6-27.3-19c-2.1-12.5,6.8-24.2,19.9-26.2
	C297.1,194.2,309.3,202.7,311.4,215.2z"/>
<path class="st2" d="M87.5,121.2c-2.1,12.5,6.8,24.2,19.9,26.2s25.2-6.6,27.3-19s-6.8-24.2-19.9-26.2
	C101.7,100.2,89.5,108.7,87.5,121.2z"/>
<path class="st2" d="M59.8,173.3c-2.1,12.5,6.8,24.2,19.9,26.2s25.2-6.6,27.3-19c2.1-12.5-6.8-24.2-19.9-26.2
	C74.1,152.3,61.9,160.8,59.8,173.3z"/>
<g>
	<defs>
		<ellipse id="SVGID_1_" cx="165.6" cy="198.4" rx="42.1" ry="40.3"/>
	</defs>
	<clipPath id="SVGID_2_">
		<use xlink:href="#SVGID_1_"  style="overflow:visible;"/>
	</clipPath>
	<path class="st3" d="M130.1,176.9c-6.1,22.5,13.2,52.9,63.7,51.6c50.5-1.4-38.3,29.7-38.3,29.7l-48.2-43.4l12.2-43.5L130.1,176.9z"
		/>
</g>
<polygon class="st0" points="140.4,230.7 113.4,219.2 121.4,277.8 117.6,224.4 "/>
<polygon class="st0" points="191.7,230.1 217.9,213.9 212.5,279.7 213.2,221.3 "/>
<polygon class="st0" points="155.5,259.2 138.8,238.4 138.3,312.1 142.9,249.2 "/>
<polygon class="st0" points="171.8,238.3 187.7,221.3 199.7,286.5 184.6,229.7 "/>
<path class="st2" d="M240.5,62c2.1,12.5-6.8,24.2-19.9,26.2c-13,2-25.2-6.6-27.3-19c-2.1-12.5,6.8-24.2,19.9-26.2
	S238.4,49.5,240.5,62z"/>
<path class="st2" d="M311.4,123.2c2.1,12.5-6.8,24.2-19.9,26.2c-13,2-25.2-6.6-27.3-19c-2.1-12.5,6.8-24.2,19.9-26.2
	C297.1,102.2,309.3,110.7,311.4,123.2z"/>
<path class="st1" d="M54.9,113.5C56.9,126,48,137.7,35,139.7c-13,2-25.2-6.6-27.3-19s6.8-24.2,19.9-26.2
	C40.6,92.5,52.8,101,54.9,113.5z"/>
<ellipse class="st0" cx="225.7" cy="67.7" rx="10.1" ry="10.1"/>
<ellipse class="st1" cx="227.7" cy="64.7" rx="5.5" ry="3"/>
<g>
	<path class="st1" d="M120.1,29.1c2.1,12.5-6.8,24.2-19.9,26.2c-13,2-25.2-6.6-27.3-19S79.8,12,92.8,10.1S118,16.6,120.1,29.1z"/>
	<ellipse class="st0" cx="105.2" cy="36.5" rx="10.1" ry="10.1"/>
	<ellipse class="st2" cx="107.1" cy="33.5" rx="5.5" ry="3"/>
</g>
<g>
	<ellipse class="st2" cx="219.4" cy="123.4" rx="3.8" ry="3.5"/>
	<path class="st0" d="M215.7,123.1c-1.3,1.3-14.3,7.5-14.3,0C201.4,115.6,215.7,123.1,215.7,123.1z"/>
	<path class="st0" d="M216.5,125.6c0,1.8-4.5,15-10.1,9.7C200.9,129.9,216.5,125.6,216.5,125.6z"/>
	<path class="st0" d="M219.3,127.5c1.3,1.2,7.9,13.7,0,13.7C211.4,141.2,219.3,127.5,219.3,127.5z"/>
	<path class="st0" d="M222,126c1.8,0,15.7,4.4,10.1,9.7S222,126,222,126z"/>
	<path class="st0" d="M223.2,123.4c1.3-1.3,14.3-7.5,14.3,0C237.5,131,223.2,123.4,223.2,123.4z"/>
	<path class="st0" d="M219.5,119.8c-1.3-1.2-7.9-13.7,0-13.7S219.5,119.8,219.5,119.8z"/>
	<path class="st0" d="M216.9,120.9c-1.8,0-15.7-4.4-10.1-9.7S216.9,120.9,216.9,120.9z"/>
	<path class="st0" d="M221.9,120.7c0-1.8,4.5-15,10.1-9.7C237.6,116.4,221.9,120.7,221.9,120.7z"/>
</g>
</svg>
