<?xml version="1.0" encoding="utf-8"?>
<!-- Generator: Adobe Illustrator 17.1.0, SVG Export Plug-In . SVG Version: 6.00 Build 0)  -->
<!DOCTYPE svg PUBLIC "-//W3C//DTD SVG 1.1//EN" "http://www.w3.org/Graphics/SVG/1.1/DTD/svg11.dtd">
<svg version="1.1" id="Layer_1" xmlns="http://www.w3.org/2000/svg" xmlns:xlink="http://www.w3.org/1999/xlink" x="0px" y="0px"
	 viewBox="0 0 168 303.1" style="enable-background:new 0 0 168 303.1;" xml:space="preserve">
<style type="text/css">
	.st0{fill:#EF4137;}
	.st1{fill:#F8AE36;}
	.st2{clip-path:url(#SVGID_2_);fill:#B93628;}
	.st3{clip-path:url(#SVGID_4_);fill:#B93628;}
	.st4{fill:#B93628;}
	.st5{clip-path:url(#SVGID_6_);fill:#F8AE36;}
</style>
<g>
	<g>
		<rect x="76.9" y="188.7" class="st0" width="14.1" height="14.9"/>
		<ellipse class="st0" cx="84.4" cy="271.6" rx="3.2" ry="18.3"/>
		<ellipse class="st0" cx="84.4" cy="267.8" rx="10.3" ry="9.9"/>
		<ellipse class="st0" cx="118" cy="170.5" rx="3.4" ry="6.8"/>
		<ellipse class="st0" cx="50.6" cy="170.5" rx="3.4" ry="6.8"/>
		<ellipse class="st1" cx="84.1" cy="170.8" rx="32" ry="23.5"/>
		<rect x="98.5" y="206.8" class="st0" width="14.3" height="5.5"/>
		<rect x="55" y="206.7" class="st0" width="14.3" height="5.5"/>
		<path class="st1" d="M94.7,265.9H73.5c-7.9,0-14.4-6.9-14.4-15.5V214c0-8.5,6.4-15.5,14.4-15.5h21.2c7.9,0,14.4,6.9,14.4,15.5
			v36.4C109.1,258.9,102.6,265.9,94.7,265.9z"/>
		<ellipse class="st0" cx="71.7" cy="168.7" rx="7.4" ry="7.1"/>
		<ellipse class="st0" cx="94.7" cy="168.7" rx="7.4" ry="7.1"/>
		<rect x="67.1" y="209.5" class="st0" width="13.8" height="11.4"/>
		<rect x="87.3" y="209.5" class="st0" width="14.8" height="29.4"/>
		<rect x="67.1" y="227.7" class="st0" width="13.8" height="11.4"/>
		<rect x="49.3" y="212" class="st0" width="3.8" height="42.8"/>
		<rect x="114.6" y="211.9" class="st0" width="3.8" height="42.8"/>
		<polygon class="st0" points="130.9,244.2 116.6,209.4 120.3,208 134.7,242.8 		"/>
		<polygon class="st0" points="36.9,244.7 51.3,209.8 47.5,208.4 33.2,243.2 		"/>
		<ellipse class="st1" cx="50.9" cy="209.4" rx="6.1" ry="5.8"/>
		<ellipse class="st1" cx="116.6" cy="209.1" rx="6.1" ry="5.8"/>
		<g>
			<defs>
				<ellipse id="SVGID_1_" cx="71.7" cy="168.7" rx="7.4" ry="7.1"/>
			</defs>
			<clipPath id="SVGID_2_">
				<use xlink:href="#SVGID_1_"  style="overflow:visible;"/>
			</clipPath>
			<polygon class="st2" points="67.1,163.1 75.1,175 73,181.9 61.2,168.7 63.2,162.3 			"/>
		</g>
		<g>
			<defs>
				<ellipse id="SVGID_3_" cx="94.7" cy="168.7" rx="7.4" ry="7.1"/>
			</defs>
			<clipPath id="SVGID_4_">
				<use xlink:href="#SVGID_3_"  style="overflow:visible;"/>
			</clipPath>
			<polygon class="st3" points="90.1,163.1 98.1,175 96,181.9 84.2,168.7 86.2,162.3 			"/>
		</g>
		<ellipse class="st1" cx="91.1" cy="213.6" rx="1.7" ry="1.7"/>
		<ellipse class="st4" cx="98.5" cy="213.6" rx="1.7" ry="1.7"/>
		<path class="st1" d="M116.7,256.7c2.5,0,4.5,3.6,5,8.4c0.1-0.6,0.1-1.2,0.1-1.9c0-5.7-2.3-10.3-5.1-10.3c-2.8,0-5.1,4.6-5.1,10.3
			c0,0.6,0,1.3,0.1,1.9C112.2,260.3,114.2,256.7,116.7,256.7z"/>
		<path class="st1" d="M51.2,256.6c2.5,0,4.5,3.2,5,7.4c0.1-0.5,0.1-1.1,0.1-1.7c0-5-2.3-9.1-5.1-9.1c-2.8,0-5.1,4.1-5.1,9.1
			c0,0.6,0,1.1,0.1,1.7C46.6,259.8,48.7,256.6,51.2,256.6z"/>
		<path class="st1" d="M84.5,293.1c2.6,0,4.9,1.3,6.2,3.3c0.6-1,0.9-2.1,0.9-3.3c0-3.9-3.3-7-7.3-7c-4,0-7.3,3.1-7.3,7
			c0,1.3,0.4,2.6,1.1,3.6C79.4,294.6,81.8,293.1,84.5,293.1z"/>
		<ellipse class="st1" cx="91.1" cy="219.2" rx="1.7" ry="1.7"/>
		<ellipse class="st4" cx="98.5" cy="219.2" rx="1.7" ry="1.7"/>
		<ellipse class="st1" cx="91" cy="224.9" rx="1.7" ry="1.7"/>
		<ellipse class="st4" cx="98.4" cy="224.9" rx="1.7" ry="1.7"/>
		<ellipse class="st1" cx="91" cy="230.5" rx="1.7" ry="1.7"/>
		<ellipse class="st4" cx="98.4" cy="230.5" rx="1.7" ry="1.7"/>
		<ellipse class="st1" cx="91" cy="235.9" rx="1.7" ry="1.7"/>
		<ellipse class="st4" cx="98.4" cy="235.9" rx="1.7" ry="1.7"/>
		<g>
			<polygon class="st1" points="147,237.5 124.6,246.1 125.5,248.4 148,239.8 			"/>
			<path class="st1" d="M148,238.3c-0.6-2.1,0-4.2,1.4-5.7c-1-0.2-2.1-0.2-3.1,0.1c-3.3,0.9-5.3,4.3-4.3,7.5c1,3.2,4.4,5.1,7.8,4.1
				c1.2-0.3,2.1-0.9,2.9-1.7C150.5,242,148.6,240.5,148,238.3z"/>
		</g>
		<path class="st1" d="M76.6,192.7"/>
		<polygon class="st4" points="76.9,193.7 91.1,198.5 76.9,198.5 		"/>
		<g>
			<ellipse class="st4" cx="98.2" cy="257" rx="1.3" ry="1.2"/>
			<path class="st0" d="M97,256.9c-0.4,0.4-4.8,2.5-4.8,0C92.2,254.4,97,256.9,97,256.9z"/>
			<path class="st0" d="M97.3,257.7c0,0.6-1.5,5-3.4,3.2C92.1,259.2,97.3,257.7,97.3,257.7z"/>
			<path class="st0" d="M98.2,258.4c0.4,0.4,2.6,4.6,0,4.6C95.6,262.9,98.2,258.4,98.2,258.4z"/>
			<path class="st0" d="M99.1,257.8c0.6,0,5.2,1.4,3.4,3.2C100.6,262.8,99.1,257.8,99.1,257.8z"/>
			<path class="st0" d="M99.5,257c0.4-0.4,4.8-2.5,4.8,0C104.3,259.5,99.5,257,99.5,257z"/>
			<path class="st0" d="M98.3,255.8c-0.4-0.4-2.6-4.6,0-4.6S98.3,255.8,98.3,255.8z"/>
			<path class="st0" d="M97.4,256.2c-0.6,0-5.2-1.4-3.4-3.2C95.9,251.2,97.4,256.2,97.4,256.2z"/>
			<path class="st0" d="M99.1,256.1c0-0.6,1.5-5,3.4-3.2C104.3,254.7,99.1,256.1,99.1,256.1z"/>
		</g>
		<g>
			<polygon class="st1" points="38.2,245.2 35.5,251.3 22.5,245.9 25.2,239.9 			"/>
			<polygon class="st1" points="16,257.1 15.1,259 15.3,261.3 17.3,259.9 18.1,258 			"/>
			<polygon class="st0" points="21.6,253.4 19.3,258.5 14.7,256.6 17,251.5 			"/>
			<polygon class="st1" points="28.4,241.2 21.8,255.9 15,253.1 21.6,238.4 			"/>
			<polygon class="st1" points="40.1,246 36.5,254.1 32.1,252.3 35.7,244.2 			"/>
		</g>
		<g>
			<defs>
				<ellipse id="SVGID_5_" cx="116.6" cy="209.1" rx="6.1" ry="5.8"/>
			</defs>
			<use xlink:href="#SVGID_5_"  style="overflow:visible;fill:#EF4137;"/>
			<clipPath id="SVGID_6_">
				<use xlink:href="#SVGID_5_"  style="overflow:visible;"/>
			</clipPath>
			<path class="st5" d="M112.4,204.8c0,0-0.1,7.4,0.3,7.4c0.2,0-0.1-7.6,0.1-7.6c6.1-0.1,0.2,8.4,0.3,8.4s1.3-2.3,3.4-0.2
				c2.1,2.1,5.1-0.7,4.9-4.9c-0.2-4.3,0,2.6-0.7,2.7c-0.8,0.1,0.1,0.4,0.1-2.7c0-3,1.1-6-1.8-6.3c-2.9-0.3-6.7,2.2-6.7,2.2
				L112.4,204.8z"/>
		</g>
	</g>
	<g>
		<rect x="75.6" y="14.4" class="st4" width="16.2" height="106.4"/>
		<rect x="49" y="120.8" class="st4" width="68.7" height="10.4"/>
		<polygon class="st4" points="36.5,131.2 16.7,159.2 26.6,168.2 50.7,135.2 		"/>
		<polygon class="st4" points="128.6,131.2 148.5,159.2 138.6,168.2 114.5,135.2 		"/>
		<polygon class="st4" points="16.7,174.4 47.5,208.4 33.7,165.2 		"/>
		<polygon class="st4" points="149.5,173.4 117.7,206.6 132.5,164.2 		"/>
		<polygon class="st1" points="45.2,112.2 56,90.6 75.6,90.6 75.6,96.6 60.4,96.6 50.7,114.2 		"/>
		<polygon class="st1" points="122.1,112.2 111.3,90.6 91.8,90.6 91.8,96.6 106.9,96.6 116.7,114.2 		"/>
		<circle class="st0" cx="50.7" cy="126.2" r="15"/>
		<circle class="st0" cx="117.7" cy="126.2" r="15"/>
		<circle class="st0" cx="22.7" cy="165.2" r="11"/>
		<circle class="st0" cx="142.5" cy="165.2" r="11"/>
		<polygon class="st0" points="65.7,90.6 76,67.6 75.6,90.6 		"/>
		<polygon class="st0" points="75.6,90.6 65.7,90.6 76,67.6 		"/>
		<polygon class="st0" points="91.5,67.6 101.8,90.6 91.8,90.6 		"/>
		<circle class="st1" cx="50.8" cy="126.3" r="7.6"/>
		<circle class="st1" cx="117.7" cy="126.3" r="7.6"/>
		<circle class="st1" cx="22.7" cy="165.2" r="7.6"/>
		<circle class="st1" cx="142.5" cy="165.2" r="7.6"/>
		<polygon class="st0" points="26.2,145.8 18.7,114.2 32.1,97.2 53,96.5 50.7,101.3 35.4,101.5 24.1,116.1 29.9,140.6 		"/>
		<polygon class="st0" points="141.1,148.4 149,114.9 135.6,97.9 114.6,97.2 117,102 132.3,102.2 143.6,116.8 137.4,143.2 		"/>
		<circle class="st1" cx="33.9" cy="100.1" r="5.7"/>
		<circle class="st1" cx="134.3" cy="100.1" r="5.7"/>
	</g>
</g>
</svg>
