<?xml version="1.0" encoding="utf-8"?>
<!-- Generator: Adobe Illustrator 17.1.0, SVG Export Plug-In . SVG Version: 6.00 Build 0)  -->
<!DOCTYPE svg PUBLIC "-//W3C//DTD SVG 1.1//EN" "http://www.w3.org/Graphics/SVG/1.1/DTD/svg11.dtd">
<svg version="1.1" id="Layer_1" xmlns="http://www.w3.org/2000/svg" xmlns:xlink="http://www.w3.org/1999/xlink" x="0px" y="0px"
	 viewBox="0 0 203.9 318.8" style="enable-background:new 0 0 203.9 318.8;" xml:space="preserve">
<style type="text/css">
	.st0{fill:#EF4137;}
	.st1{fill:#F8AE36;}
	.st2{fill:#F3E205;}
	.st3{clip-path:url(#SVGID_2_);fill:#D2962C;}
	.st4{fill:#B93628;}
</style>
<g>
	<g>
		<rect x="99.5" y="192.1" class="st0" width="3.9" height="34.7"/>
		<polygon class="st0" points="92.8,226.9 89.8,229.3 66.8,202.4 69.9,200 		"/>
		<polygon class="st0" points="46.3,229.3 49.9,231 65.9,199.9 62.4,198.3 		"/>
		<polygon class="st0" points="68.5,201 66.8,197.7 99,182 100.8,185.4 		"/>
		<polygon class="st0" points="133.7,201 135.4,197.7 103.2,182 101.4,185.4 		"/>
		<polygon class="st0" points="47.5,232.6 44,234.3 27.9,203.2 31.5,201.5 		"/>
		<polygon class="st0" points="158.1,231.6 161.7,233.3 177.8,202.2 174.2,200.5 		"/>
		<polygon class="st0" points="156.7,231.6 153.2,233.3 137.1,202.2 140.7,200.5 		"/>
		<polygon class="st0" points="62.5,194.4 66.4,194.9 71.2,160.5 67.3,160 		"/>
		<polygon class="st0" points="139.9,194.9 136,195.4 131.2,161 135.1,160.5 		"/>
		<polygon class="st0" points="97.8,182.2 95,184.9 69.1,160.6 71.9,157.9 		"/>
		<polygon class="st0" points="105.4,184.7 108.2,187.4 134,163.2 131.3,160.5 		"/>
		<polygon class="st0" points="86.4,238.4 86,242.2 50,238.7 50.4,235 		"/>
		<polygon class="st0" points="29.3,200.3 29.7,204.1 65.7,200.7 65.3,196.9 		"/>
		<polygon class="st0" points="174.9,199.9 174.5,203.6 138.5,200.2 138.9,196.4 		"/>
		<polygon class="st0" points="108.1,230.9 111.1,233.3 134,206.4 131,204 		"/>
		<polygon class="st0" points="113,239.6 113.4,243.4 149.4,239.9 149,236.2 		"/>
		<polygon class="st0" points="101.3,273.4 99.5,297.3 103.4,273.3 		"/>
		<ellipse class="st1" cx="101.3" cy="247" rx="27.5" ry="26.4"/>
		<ellipse class="st0" cx="109.6" cy="247" rx="12.1" ry="12"/>
		<ellipse class="st2" cx="111.9" cy="243.4" rx="6.5" ry="3.6"/>
		<path class="st2" d="M116.6,180.7c1.3,8.2-4.5,15.8-13,17.1s-16.5-4.3-17.9-12.5s4.5-15.8,13-17.1
			C107.3,167,115.3,172.6,116.6,180.7z"/>
		<path class="st1" d="M152.1,195.7c1.3,8.2-4.5,15.8-13,17.1s-16.5-4.3-17.9-12.5s4.5-15.8,13-17.1
			C142.8,182,150.8,187.5,152.1,195.7z"/>
		<path class="st2" d="M172.2,230.6c1.3,8.2-4.5,15.8-13,17.1s-16.5-4.3-17.9-12.5c-1.3-8.2,4.5-15.8,13-17.1
			C162.8,216.8,170.8,222.4,172.2,230.6z"/>
		<path class="st2" d="M50.2,196.5c-1.3,8.2,4.5,15.8,13,17.1c8.5,1.3,16.5-4.3,17.9-12.5c1.3-8.2-4.5-15.8-13-17.1
			S51.5,188.3,50.2,196.5z"/>
		<path class="st2" d="M32.1,230.6c-1.3,8.2,4.5,15.8,13,17.1s16.5-4.3,17.9-12.5c1.3-8.2-4.5-15.8-13-17.1
			C41.5,216.8,33.5,222.4,32.1,230.6z"/>
		<g>
			<defs>
				<ellipse id="SVGID_1_" cx="101.3" cy="247" rx="27.5" ry="26.4"/>
			</defs>
			<clipPath id="SVGID_2_">
				<use xlink:href="#SVGID_1_"  style="overflow:visible;"/>
			</clipPath>
			<path class="st3" d="M78.1,232.9c-4,14.7,8.6,34.6,41.6,33.7c33-0.9-25,19.5-25,19.5l-31.5-28.4l8-28.5L78.1,232.9z"/>
		</g>
		<polygon class="st0" points="84.8,268.1 67.2,260.6 72.4,298.9 69.9,264 		"/>
		<polygon class="st0" points="118.4,267.7 135.5,257.1 132,300.2 132.5,262 		"/>
		<polygon class="st0" points="94.7,272.6 83.8,259 83.4,307.3 86.4,266.1 		"/>
		<polygon class="st0" points="105.4,273.1 115.8,262 123.6,304.7 113.8,267.5 		"/>
		<path class="st1" d="M83.6,156.6c1.3,8.2-4.5,15.8-13,17.1c-8.5,1.3-16.5-4.3-17.9-12.5c-1.3-8.2,4.5-15.8,13-17.1
			S82.3,148.5,83.6,156.6z"/>
		<path class="st2" d="M150.3,157.8c1.3,8.2-4.5,15.8-13,17.1c-8.5,1.3-16.5-4.3-17.9-12.5s4.5-15.8,13-17.1
			C141,144,149,149.6,150.3,157.8z"/>
		<path class="st2" d="M191.6,198.7c1.3,8.2-4.5,15.8-13,17.1s-16.5-4.3-17.9-12.5c-1.3-8.2,4.5-15.8,13-17.1
			C182.2,185,190.2,190.5,191.6,198.7z"/>
		<path class="st1" d="M44.5,198.7c1.3,8.2-4.5,15.8-13,17.1s-16.5-4.3-17.9-12.5s4.5-15.8,13-17.1C35.1,185,43.1,190.5,44.5,198.7z
			"/>
		<ellipse class="st0" cx="140.7" cy="161.5" rx="6.6" ry="6.6"/>
		<ellipse class="st1" cx="142" cy="159.5" rx="3.6" ry="2"/>
		<ellipse class="st0" cx="73.8" cy="161.5" rx="6.6" ry="6.6"/>
		<ellipse class="st2" cx="75.1" cy="159.5" rx="3.6" ry="2"/>
		<g>
			<ellipse class="st2" cx="136.5" cy="197.9" rx="2.5" ry="2.3"/>
			<path class="st0" d="M134.1,197.7c-0.8,0.8-9.3,4.9-9.3,0C124.8,192.8,134.1,197.7,134.1,197.7z"/>
			<path class="st0" d="M134.6,199.3c0,1.2-3,9.8-6.6,6.3C124.4,202.2,134.6,199.3,134.6,199.3z"/>
			<path class="st0" d="M136.4,200.6c0.9,0.8,5.1,9,0,9C131.3,209.6,136.4,200.6,136.4,200.6z"/>
			<path class="st0" d="M138.2,199.6c1.2,0,10.2,2.8,6.6,6.3C141.2,209.4,138.2,199.6,138.2,199.6z"/>
			<path class="st0" d="M139,197.9c0.8-0.8,9.3-4.9,9.3,0S139,197.9,139,197.9z"/>
			<path class="st0" d="M136.6,195.6c-0.9-0.8-5.1-9,0-9C141.7,186.6,136.6,195.6,136.6,195.6z"/>
			<path class="st0" d="M134.9,196.3c-1.2,0-10.2-2.8-6.6-6.3C131.9,186.4,134.9,196.3,134.9,196.3z"/>
			<path class="st0" d="M138.2,196.2c0-1.2,3-9.8,6.6-6.3S138.2,196.2,138.2,196.2z"/>
		</g>
	</g>
	<g>
		<rect x="94.5" y="21.7" class="st4" width="16.2" height="106.4"/>
		<rect x="67.9" y="128.1" class="st4" width="68.7" height="10.4"/>
		<polygon class="st4" points="55.5,138.5 35.6,166.5 45.5,175.5 69.6,142.5 		"/>
		<polygon class="st4" points="147.6,138.5 167.4,166.5 157.5,175.5 133.4,142.5 		"/>
		<polygon class="st4" points="35.6,181.8 54.6,215.5 52.6,172.5 		"/>
		<polygon class="st4" points="168.4,180.8 149.4,214.5 151.4,171.5 		"/>
		<polygon class="st1" points="64.2,119.6 74.9,97.9 94.5,97.9 94.5,103.9 79.3,103.9 69.6,121.5 		"/>
		<polygon class="st1" points="141,119.6 130.2,97.9 110.7,97.9 110.7,103.9 125.9,103.9 135.6,121.5 		"/>
		<circle class="st0" cx="69.6" cy="133.5" r="15"/>
		<circle class="st0" cx="136.6" cy="133.5" r="15"/>
		<circle class="st0" cx="41.6" cy="172.5" r="11"/>
		<circle class="st0" cx="161.4" cy="172.5" r="11"/>
		<polygon class="st0" points="84.6,97.9 94.9,74.9 94.5,97.9 		"/>
		<polygon class="st0" points="94.5,97.9 84.6,97.9 94.9,74.9 		"/>
		<polygon class="st0" points="110.4,74.9 120.7,97.9 110.7,97.9 		"/>
		<circle class="st1" cx="69.7" cy="133.6" r="7.6"/>
		<circle class="st1" cx="136.6" cy="133.6" r="7.6"/>
		<circle class="st1" cx="41.6" cy="172.5" r="7.6"/>
		<circle class="st1" cx="161.4" cy="172.5" r="7.6"/>
		<polygon class="st0" points="45.1,153.1 37.6,121.5 51,104.5 72,103.9 69.6,108.6 54.3,108.8 43,123.5 48.8,147.9 		"/>
		<polygon class="st0" points="160,155.8 167.9,122.3 154.5,105.3 133.6,104.6 135.9,109.3 151.2,109.5 162.5,124.2 156.3,150.5 		
			"/>
		<circle class="st1" cx="52.8" cy="107.4" r="5.7"/>
		<circle class="st1" cx="153.3" cy="107.4" r="5.7"/>
	</g>
</g>
</svg>
