<?xml version="1.0" encoding="utf-8"?>
<!-- Generator: Adobe Illustrator 17.1.0, SVG Export Plug-In . SVG Version: 6.00 Build 0)  -->
<!DOCTYPE svg PUBLIC "-//W3C//DTD SVG 1.1//EN" "http://www.w3.org/Graphics/SVG/1.1/DTD/svg11.dtd">
<svg version="1.1" id="Layer_1" xmlns="http://www.w3.org/2000/svg" xmlns:xlink="http://www.w3.org/1999/xlink" x="0px" y="0px"
	 viewBox="0 0 165 322" style="enable-background:new 0 0 165 322;" xml:space="preserve">
<style type="text/css">
	.st0{fill:#B93628;}
	.st1{fill:#003949;}
	.st2{fill:#EF4137;}
	.st3{fill:#F8AE36;}
	.st4{clip-path:url(#SVGID_2_);fill:#B93628;}
	.st5{clip-path:url(#SVGID_4_);fill:#F8AE36;}
</style>
<g>
	<g>
		<ellipse class="st0" cx="106.2" cy="166.1" rx="7.9" ry="9.3"/>
		<ellipse class="st0" cx="56.9" cy="166.1" rx="7.9" ry="9.3"/>
		<path class="st0" d="M56.3,165.3c0-13.2,11.2-23.9,25-23.9c13.8,0,25,10.7,25,23.9c0,1-0.1,1.9-0.2,2.9c1.7-3.4,2.7-7.3,2.7-11.4
			c0-14.5-12.3-26.3-27.5-26.3s-27.5,11.8-27.5,26.3c0,4.1,1,7.9,2.7,11.4C56.3,167.2,56.3,166.3,56.3,165.3z"/>
		<rect x="76.2" y="195.3" class="st1" width="11.3" height="13.7"/>
		<path class="st1" d="M92.4,200.9H70.2c-7.1,0-10.2-4.2-10.2-9.3l-2.7-33c0-5.2,4-8.6,11.1-8.6h26.2c7.1,0,11.6,3.4,11.6,8.6
			l-3.2,33C103.1,196.7,99.5,200.9,92.4,200.9z"/>
		<rect x="65" y="278.2" class="st1" width="7.4" height="21.3"/>
		<rect x="91.8" y="278.2" class="st1" width="7.4" height="21.3"/>
		<polygon class="st2" points="94.8,170 91.4,198 93.6,198 96.9,170 		"/>
		<polygon class="st2" points="69.4,170 72.8,198 70.6,198 67.3,170 		"/>
		<ellipse class="st2" cx="70.4" cy="188.2" rx="4.4" ry="4.2"/>
		<ellipse class="st2" cx="93.3" cy="188.2" rx="4.4" ry="4.2"/>
		<path class="st0" d="M59,162.8l17.3-0.5c0,0,0.5-5,5.6-5s5.6,4.9,5.6,4.9l18,0.7l-18,1c0,0-0.6,4.4-5.6,4.4
			c-4.4,0-5.5-4.4-5.5-4.4L59,162.8z"/>
		<ellipse class="st0" cx="81.8" cy="162.9" rx="6.4" ry="6.1"/>
		<ellipse class="st3" cx="81.8" cy="162.8" rx="4.4" ry="4.2"/>
		<polygon class="st1" points="52.9,258 44,257.4 47.2,213.6 56.1,214.2 		"/>
		<polygon class="st1" points="110.6,258 119,257.2 116.9,213.4 108.4,214.2 		"/>
		<ellipse class="st0" cx="82.3" cy="235.8" rx="23.4" ry="22.4"/>
		<ellipse class="st0" cx="111.4" cy="212.1" rx="7.4" ry="7.1"/>
		<ellipse class="st0" cx="53" cy="211.9" rx="7.4" ry="7.1"/>
		<path class="st1" d="M100.5,246H65.3c-2.2,0-7.2-3.4-7.2-5l-2.3-34.3c0-1.5,1.8-2.8,4-2.8h45.9c2.2,0,3.2,1.3,3.2,2.8l-2.3,34.3
			C106.7,242.6,102.7,246,100.5,246z"/>
		<polygon class="st0" points="62.9,274.6 62.9,288.2 69.1,290.2 69.1,293.9 62.9,296.1 62.9,307.3 61.8,307.3 61.8,295.4 
			67.7,293.6 67.7,290.8 61.8,288.9 61.8,271.9 		"/>
		<polygon class="st0" points="101.3,274.6 101.3,288.2 95.1,290.2 95.1,293.9 101.3,296.1 101.3,307.3 102.5,307.3 102.5,295.4 
			96.5,293.6 96.5,290.8 102.5,288.9 102.5,271.9 		"/>
		<polygon class="st2" points="70.9,273 70.9,295.4 68.3,298.2 68.3,300.9 70.1,305.5 71,304.7 69.5,300.7 69.4,298.4 72,295.4 
			72.1,273 		"/>
		<polygon class="st2" points="93.3,273 93.3,295.4 95.9,298.2 95.9,300.9 94.1,305.5 93.2,304.7 94.7,300.7 94.8,298.4 92.2,295.4 
			92.2,273 		"/>
		<path class="st1" d="M94.5,275.2H69.9c-5.2,0-9.4-3.2-9.4-7.2l2-19.9h38.8l2.6,19.9C103.9,272,99.7,275.2,94.5,275.2z"/>
		<polygon class="st2" points="66.6,203.9 78.3,221.7 78.2,225.2 57.9,236.8 57.8,238.6 79.8,225.8 79.8,221.3 69.1,203.9 		"/>
		<polygon class="st2" points="97.2,203.9 85.5,221.7 85.6,225.2 107,236.8 107.3,238.9 84,225.8 84,221.3 94.6,203.9 		"/>
		<rect x="81.6" y="225.8" class="st2" width="0.4" height="12.8"/>
		<rect x="90.8" y="212.1" class="st2" width="0.4" height="26.5"/>
		<rect x="73.5" y="212.7" class="st2" width="0.4" height="25.9"/>
		<rect x="99.8" y="203.9" class="st2" width="0.4" height="34.7"/>
		<rect x="64.6" y="203.9" class="st2" width="0.4" height="34.7"/>
		<ellipse class="st2" cx="64.8" cy="239.4" rx="2.7" ry="2.6"/>
		<ellipse class="st2" cx="73.7" cy="239.4" rx="2.7" ry="2.6"/>
		<ellipse class="st2" cx="81.8" cy="239.4" rx="2.7" ry="2.6"/>
		<ellipse class="st2" cx="91" cy="239.4" rx="2.7" ry="2.6"/>
		<ellipse class="st2" cx="100" cy="239.4" rx="2.7" ry="2.6"/>
		<ellipse class="st0" cx="97.6" cy="213.4" rx="3.2" ry="3.1"/>
		<ellipse class="st3" cx="92.9" cy="216" rx="4" ry="3.8"/>
		<ellipse class="st3" cx="98.8" cy="223" rx="3.8" ry="3.7"/>
		<g>
			<ellipse class="st3" cx="67.5" cy="217.2" rx="1.3" ry="1.2"/>
			<path class="st2" d="M66.2,217.1c-0.4,0.4-4.9,2.6-4.9,0S66.2,217.1,66.2,217.1z"/>
			<path class="st2" d="M66.5,218c0,0.6-1.6,5.1-3.5,3.3C61.1,219.5,66.5,218,66.5,218z"/>
			<path class="st2" d="M67.4,218.6c0.5,0.4,2.7,4.7,0,4.7S67.4,218.6,67.4,218.6z"/>
			<path class="st2" d="M68.4,218.1c0.6,0,5.4,1.5,3.5,3.3S68.4,218.1,68.4,218.1z"/>
			<path class="st2" d="M68.8,217.3c0.4-0.4,4.9-2.6,4.9,0S68.8,217.3,68.8,217.3z"/>
			<path class="st2" d="M67.5,216c-0.5-0.4-2.7-4.7,0-4.7C70.2,211.3,67.5,216,67.5,216z"/>
			<path class="st2" d="M66.6,216.4c-0.6,0-5.4-1.5-3.5-3.3S66.6,216.4,66.6,216.4z"/>
			<path class="st2" d="M68.3,216.3c0-0.6,1.6-5.1,3.5-3.3S68.3,216.3,68.3,216.3z"/>
		</g>
		<g>
			<defs>
				<ellipse id="SVGID_1_" cx="92.9" cy="216" rx="4" ry="3.8"/>
			</defs>
			<clipPath id="SVGID_2_">
				<use xlink:href="#SVGID_1_"  style="overflow:visible;"/>
			</clipPath>
			<path class="st4" d="M96.8,216.9c-1.4,1.1-5.1,1.6-4.3-0.6c0,0,1.6-4.7-5.9,1.6s5.4,3.9,5.4,3.9l6.5-3.9L96.8,216.9z"/>
		</g>
		<path class="st1" d="M62.5,295.4"/>
		<path class="st1" d="M79.1,314.4c0,0-5.1,0-11.5,0s-11.5,0-11.5,0c0-6.1,5.1-11,11.5-11S79.1,308.3,79.1,314.4z"/>
		<path class="st1" d="M107.8,314.4c0,0-5.1,0-11.5,0c-6.4,0-11.5,0-11.5,0c0-6.1,5.1-11,11.5-11
			C102.7,303.4,107.8,308.3,107.8,314.4z"/>
		<g>
			<defs>
				<ellipse id="SVGID_3_" cx="98.8" cy="223" rx="3.8" ry="3.7"/>
			</defs>
			<use xlink:href="#SVGID_3_"  style="overflow:visible;fill:#EF4137;"/>
			<clipPath id="SVGID_4_">
				<use xlink:href="#SVGID_3_"  style="overflow:visible;"/>
			</clipPath>
			<path class="st5" d="M96.2,220.3c0,0,0,4.7,0.2,4.7c0.1,0-0.1-4.8,0.1-4.8c3.8,0,0.2,5.3,0.2,5.3s0.8-1.4,2.1-0.1
				c1.3,1.3,3.2-0.4,3.1-3.1c-0.1-2.7,0,1.6-0.5,1.7c-0.5,0,0.1,0.2,0.1-1.7c0-1.9,0.7-3.8-1.1-3.9c-1.8-0.2-4.2,1.4-4.2,1.4
				L96.2,220.3z"/>
		</g>
		<path class="st2" d="M66.5,266.8c-2,0-3.6,1.6-3.6,3.5c0,1.9,1.6,3.5,3.6,3.5s3.6-1.6,3.6-3.5C70.1,268.4,68.5,266.8,66.5,266.8z
			 M66.5,272.5c-1.2,0-2.3-1-2.3-2.2c0-1.2,1-2.2,2.3-2.2c1.2,0,2.3,1,2.3,2.2C68.8,271.5,67.8,272.5,66.5,272.5z"/>
		<path class="st2" d="M97.3,266.8c-2,0-3.6,1.6-3.6,3.5c0,1.9,1.6,3.5,3.6,3.5s3.6-1.6,3.6-3.5C100.9,268.4,99.3,266.8,97.3,266.8z
			 M97.3,272.5c-1.2,0-2.3-1-2.3-2.2c0-1.2,1-2.2,2.3-2.2c1.2,0,2.3,1,2.3,2.2C99.5,271.5,98.5,272.5,97.3,272.5z"/>
		<polygon class="st2" points="68.3,267.3 79.8,258.8 79.8,253.7 62.5,248.1 60.5,248.6 78.5,254.4 78.5,258.2 66.5,266.8 		"/>
		<polygon class="st2" points="95.5,267.3 84,258.8 84,253.7 101.3,248.1 103.3,248.6 85.3,254.4 85.3,258.2 97.3,266.8 		"/>
		<path class="st0" d="M48.3,255.4c-5.6,0-10.1,4.3-10.1,9.6c0,5.3,4.5,9.6,10.1,9.6s10.1-4.3,10.1-9.6
			C58.4,259.7,53.9,255.4,48.3,255.4z M48.3,271.1c-3.5,0-6.3-2.7-6.3-6c0-3.3,2.8-6,6.3-6s6.3,2.7,6.3,6
			C54.6,268.4,51.8,271.1,48.3,271.1z"/>
		<path class="st0" d="M115.7,254.4c-5.6,0-10.1,4.3-10.1,9.6c0,5.3,4.5,9.6,10.1,9.6c5.6,0,10.1-4.3,10.1-9.6
			C125.8,258.7,121.2,254.4,115.7,254.4z M115.7,270.1c-3.5,0-6.3-2.7-6.3-6c0-3.3,2.8-6,6.3-6c3.5,0,6.3,2.7,6.3,6
			C122,267.4,119.2,270.1,115.7,270.1z"/>
	</g>
	<g>
		<rect x="73.5" y="10.8" class="st0" width="16.2" height="106.4"/>
		<rect x="46.9" y="117.2" class="st0" width="68.7" height="10.4"/>
		<polygon class="st0" points="34.5,127.7 14.6,155.7 24.5,164.7 48.6,131.7 		"/>
		<polygon class="st0" points="126.6,127.7 146.4,155.7 136.5,164.7 112.4,131.7 		"/>
		<polygon class="st0" points="14.6,170.9 48.6,207.1 31.6,161.7 		"/>
		<polygon class="st0" points="147.4,169.9 115.6,204.8 130.4,160.7 		"/>
		<polygon class="st3" points="43.2,108.7 54,87 73.5,87 73.5,93 58.3,93 48.6,110.7 		"/>
		<polygon class="st3" points="120,108.7 109.3,87 89.7,87 89.7,93 104.9,93 114.6,110.7 		"/>
		<circle class="st2" cx="48.6" cy="122.7" r="15"/>
		<circle class="st2" cx="115.6" cy="122.7" r="15"/>
		<circle class="st2" cx="20.6" cy="161.7" r="11"/>
		<circle class="st2" cx="140.4" cy="161.7" r="11"/>
		<polygon class="st2" points="63.6,87 73.9,64 73.5,87 		"/>
		<polygon class="st2" points="73.5,87 63.6,87 73.9,64 		"/>
		<polygon class="st2" points="89.5,64 99.7,87 89.7,87 		"/>
		<circle class="st3" cx="48.8" cy="122.7" r="7.6"/>
		<circle class="st3" cx="115.6" cy="122.7" r="7.6"/>
		<circle class="st3" cx="20.6" cy="161.7" r="7.6"/>
		<circle class="st3" cx="140.4" cy="161.7" r="7.6"/>
		<polygon class="st2" points="24.1,142.3 16.6,110.7 30,93.7 51,93 48.6,97.7 33.3,97.9 22,112.6 27.8,137.1 		"/>
		<polygon class="st2" points="139,144.9 146.9,111.4 133.5,94.4 112.6,93.7 114.9,98.4 130.3,98.6 141.5,113.3 135.3,139.7 		"/>
		<circle class="st3" cx="31.8" cy="96.5" r="5.7"/>
		<circle class="st3" cx="132.3" cy="96.5" r="5.7"/>
	</g>
</g>
</svg>
