<?xml version="1.0" encoding="utf-8"?>
<!-- Generator: Adobe Illustrator 17.1.0, SVG Export Plug-In . SVG Version: 6.00 Build 0)  -->
<!DOCTYPE svg PUBLIC "-//W3C//DTD SVG 1.1//EN" "http://www.w3.org/Graphics/SVG/1.1/DTD/svg11.dtd">
<svg version="1.1" id="Layer_1" xmlns="http://www.w3.org/2000/svg" xmlns:xlink="http://www.w3.org/1999/xlink" x="0px" y="0px"
	 viewBox="0 0 200.8 322.7" style="enable-background:new 0 0 200.8 322.7;" xml:space="preserve">
<style type="text/css">
	.st0{fill:#B93628;}
	.st1{fill:#EF4137;}
	.st2{fill:#F8AE36;}
	.st3{clip-path:url(#SVGID_2_);fill:#F8AE36;}
</style>
<g>
	<g>
		<path class="st0" d="M136.6,203.9c12.6,0,35.9,10.3,35.2,42.7h-15.4c0,0,2-24.6-19.8-24.4V203.9z"/>
		<path class="st0" d="M67.3,203.9c-12.6,0-35.9,10.3-35.2,42.7h15.4c0,0-2-24.6,19.8-24.4V203.9z"/>
		<rect x="89.8" y="196.1" class="st0" width="21.2" height="14"/>
		<ellipse class="st1" cx="100.7" cy="174.7" rx="32.4" ry="27.4"/>
		<path class="st1" d="M137.3,257.3H64.9c-4.3,0-7.7-3.3-7.7-7.4v-38.6c0-4.1,3.5-7.4,7.7-7.4h72.4c4.3,0,7.7,3.3,7.7,7.4v38.6
			C145.1,254,141.6,257.3,137.3,257.3z"/>
		<ellipse class="st0" cx="87.5" cy="172.6" rx="7.1" ry="6.8"/>
		<ellipse class="st0" cx="113.1" cy="172.6" rx="7.1" ry="6.8"/>
		<polygon class="st0" points="122.6,233.8 99.4,252.5 64,252.5 64,208.2 138,208.2 138,233.8 		"/>
		<ellipse class="st0" cx="133.7" cy="246.7" rx="6.1" ry="5.8"/>
		<ellipse class="st0" cx="119.8" cy="246.7" rx="6.1" ry="5.8"/>
		<polygon class="st0" points="100.4,277.6 80.2,257.3 120,257.3 		"/>
		<polygon class="st1" points="100.4,277.6 100.4,257.3 120,257.3 		"/>
		<rect x="89.8" y="208.2" class="st1" width="21.2" height="14.1"/>
		<rect x="93.6" y="222.3" class="st2" width="13.6" height="7.3"/>
		<rect x="96.9" y="229.5" class="st1" width="7" height="5.6"/>
		<rect x="81.5" y="208.2" class="st1" width="2.3" height="44.3"/>
		<rect x="118.9" y="208.2" class="st1" width="1.7" height="29.3"/>
		<polygon class="st2" points="97.6,235.1 100.4,239.8 102,235.2 		"/>
		<polyline class="st2" points="67.9,252.5 64,252.5 64,208.2 67.9,208.2 		"/>
		<rect x="64" y="212.2" class="st2" width="74" height="1.5"/>
		<rect x="64.2" y="214.5" class="st2" width="74" height="1.5"/>
		<g>
			<ellipse class="st2" cx="119.8" cy="246.6" rx="1.2" ry="1.1"/>
			<path class="st1" d="M118.6,246.5c-0.4,0.4-4.6,2.4-4.6,0C114.1,244.1,118.6,246.5,118.6,246.5z"/>
			<path class="st1" d="M118.9,247.3c0,0.6-1.5,4.8-3.2,3.1S118.9,247.3,118.9,247.3z"/>
			<path class="st1" d="M119.7,247.9c0.4,0.4,2.5,4.4,0,4.4S119.7,247.9,119.7,247.9z"/>
			<path class="st1" d="M120.6,247.4c0.6,0,5,1.4,3.2,3.1S120.6,247.4,120.6,247.4z"/>
			<path class="st1" d="M121,246.6c0.4-0.4,4.6-2.4,4.6,0C125.6,249,121,246.6,121,246.6z"/>
			<path class="st1" d="M119.8,245.4c-0.4-0.4-2.5-4.4,0-4.4S119.8,245.4,119.8,245.4z"/>
			<path class="st1" d="M119,245.8c-0.6,0-5-1.4-3.2-3.1S119,245.8,119,245.8z"/>
			<path class="st1" d="M120.6,245.7c0-0.6,1.5-4.8,3.2-3.1C125.6,244.3,120.6,245.7,120.6,245.7z"/>
		</g>
		<g>
			<defs>
				<ellipse id="SVGID_1_" cx="133.7" cy="246.7" rx="3.6" ry="3.4"/>
			</defs>
			<use xlink:href="#SVGID_1_"  style="overflow:visible;fill:#EF4137;"/>
			<clipPath id="SVGID_2_">
				<use xlink:href="#SVGID_1_"  style="overflow:visible;"/>
			</clipPath>
			<path class="st3" d="M131.3,244.1c0,0,0,4.4,0.2,4.4c0.1,0-0.1-4.5,0.1-4.5c3.6,0,0.1,5,0.2,5s0.8-1.3,2-0.1
				c1.2,1.2,3-0.4,2.9-2.9c-0.1-2.5,0,1.5-0.4,1.6s0.1,0.2,0.1-1.6c0-1.8,0.7-3.5-1-3.7s-3.9,1.3-3.9,1.3L131.3,244.1z"/>
		</g>
		<polygon class="st0" points="100.4,277.6 105.8,267.5 95.6,267.5 		"/>
		<path class="st2" d="M128.1,161.9c-3.9,3.3-9.9,0.8-15,0.8s-11,2.9-10.4,9.8s1-5.6,15.9-5.3C133.6,167.5,128.1,161.9,128.1,161.9z
			"/>
		<path class="st2" d="M72.6,161.9c3.9,3.3,9.9,0.8,15,0.8s11,2.9,10.4,9.8s-1-5.6-15.9-5.3C67.2,167.5,72.6,161.9,72.6,161.9z"/>
		<polygon class="st0" points="92.7,194.1 100.7,180.8 108.6,194.1 		"/>
		<polygon class="st1" points="32.1,246.7 26.9,252.2 38.8,261.3 51.7,250.8 47.5,246.7 		"/>
		<polygon class="st1" points="171.8,246.7 177,252.2 165.2,261.3 152.2,250.8 156.4,246.7 		"/>
		<polygon class="st1" points="89.1,294.3 52.2,294.3 54.5,285.1 80.2,285.1 		"/>
		<polygon class="st1" points="147.9,294.3 111,294.3 120,285.1 145.7,285.1 		"/>
		<path class="st0" d="M80.2,257.3c-23,0-25.7,11.6-25.7,27.8h25.7c0,0-5.6-9.1,9.8-17.9L80.2,257.3z"/>
		<path class="st0" d="M119.9,257.3c23,0,25.7,11.6,25.7,27.8h-25.7c0,0,5.8-8.8-9.7-17.6L119.9,257.3z"/>
		<polygon class="st1" points="100.4,239.8 100.1,234.4 103.2,235.1 		"/>
		<polygon class="st2" points="95.6,243.5 98.6,240.5 102.3,241.8 103.1,244.6 100.8,245.4 97.7,248 		"/>
		<polygon class="st1" points="102.4,247.6 97.7,248 100.8,245.4 105.6,244.9 		"/>
		<polygon class="st0" points="98.6,240.5 100.8,245.4 104.8,244.9 102.7,240.4 		"/>
		<ellipse class="st2" cx="111.5" cy="210.3" rx="2.2" ry="2.1"/>
		<ellipse class="st2" cx="89.7" cy="210.3" rx="2.2" ry="2.1"/>
		<polygon class="st0" points="100.7,147.3 98.1,144.6 103.9,138 99.7,144.7 		"/>
		<ellipse class="st0" cx="103" cy="135.1" rx="6" ry="5.8"/>
		<ellipse class="st1" cx="103.8" cy="136.5" rx="3.4" ry="3.3"/>
		<polygon class="st0" points="97,134 87.5,136.5 98.1,138 		"/>
		<polygon class="st0" points="108.9,134 118.4,136.5 107.9,138 		"/>
	</g>
	<g>
		<rect x="93.2" y="18.9" class="st0" width="16.2" height="106.4"/>
		<rect x="66.6" y="125.4" class="st0" width="68.7" height="10.4"/>
		<polygon class="st0" points="54.2,135.8 34.3,163.8 44.2,172.8 68.3,139.8 		"/>
		<polygon class="st0" points="146.3,135.8 166.1,163.8 156.2,172.8 132.1,139.8 		"/>
		<polygon class="st0" points="34.3,179 53.3,212.8 51.3,169.8 		"/>
		<polygon class="st0" points="167.1,178 148.1,211.8 150.1,168.8 		"/>
		<polygon class="st2" points="62.8,116.8 73.6,95.1 93.2,95.1 93.2,101.1 78,101.1 68.3,118.8 		"/>
		<polygon class="st2" points="139.7,116.8 128.9,95.1 109.4,95.1 109.4,101.1 124.6,101.1 134.3,118.8 		"/>
		<circle class="st1" cx="68.3" cy="130.8" r="15"/>
		<circle class="st1" cx="135.3" cy="130.8" r="15"/>
		<circle class="st1" cx="40.3" cy="169.8" r="11"/>
		<circle class="st1" cx="160.1" cy="169.8" r="11"/>
		<polygon class="st1" points="83.3,95.1 93.6,72.1 93.2,95.1 		"/>
		<polygon class="st1" points="93.2,95.1 83.3,95.1 93.6,72.1 		"/>
		<polygon class="st1" points="109.1,72.1 119.4,95.1 109.4,95.1 		"/>
		<circle class="st2" cx="68.4" cy="130.9" r="7.6"/>
		<circle class="st2" cx="135.3" cy="130.9" r="7.6"/>
		<circle class="st2" cx="40.3" cy="169.8" r="7.6"/>
		<circle class="st2" cx="160.1" cy="169.8" r="7.6"/>
		<polygon class="st1" points="43.8,150.4 36.3,118.8 49.7,101.8 70.7,101.1 68.3,105.9 53,106.1 41.7,120.7 47.5,145.2 		"/>
		<polygon class="st1" points="158.7,153 166.6,119.5 153.2,102.5 132.2,101.8 134.6,106.6 149.9,106.8 161.2,121.4 155,147.8 		"/>
		<circle class="st2" cx="51.5" cy="104.6" r="5.7"/>
		<circle class="st2" cx="151.9" cy="104.6" r="5.7"/>
	</g>
</g>
</svg>
