<?xml version="1.0" encoding="utf-8"?>
<!-- Generator: Adobe Illustrator 17.1.0, SVG Export Plug-In . SVG Version: 6.00 Build 0)  -->
<!DOCTYPE svg PUBLIC "-//W3C//DTD SVG 1.1//EN" "http://www.w3.org/Graphics/SVG/1.1/DTD/svg11.dtd">
<svg version="1.1" id="Layer_1" xmlns="http://www.w3.org/2000/svg" xmlns:xlink="http://www.w3.org/1999/xlink" x="0px" y="0px"
	 viewBox="0 0 1920 2134.1" style="enable-background:new 0 0 1920 2134.1;" xml:space="preserve">
<style type="text/css">
	.st0{fill:#002939;}
	.st1{fill:#013243;}
	.st2{fill:none;stroke:#013243;stroke-width:4.9276;stroke-miterlimit:10;}
	.st3{fill:none;stroke:#013243;stroke-width:5.0139;stroke-miterlimit:10;}
	.st4{fill:none;}
	.st5{fill:#003949;}
	.st27{clip-path:url(#SVGID_30_);fill:#003949;}
	.st28{clip-path:url(#SVGID_32_);fill:#003949;}
	.st29{clip-path:url(#SVGID_34_);fill:#003949;}
	.st30{clip-path:url(#SVGID_36_);fill:#003949;}
	.st36{clip-path:url(#SVGID_38_);fill:#003949;}
	.st38{clip-path:url(#SVGID_42_);fill:#003949;}
	.st39{clip-path:url(#SVGID_44_);fill:#003949;}
	.st40{clip-path:url(#SVGID_46_);fill:#003949;}
	.st42{clip-path:url(#SVGID_48_);fill:#003949;}
	.st43{fill:#AB1F25;}
</style>

<rect x="1430.9" y="137.8" class="st0" width="488.5" height="10.3"/>
<rect x="1430.2" y="72" class="st0" width="9.6" height="76.1"/>
<rect x="1385.4" y="337.6" class="st1" width="533" height="14.2"/>
<rect x="1427.7" y="344.7" class="st1" width="10.5" height="404"/>
<g>
	<circle class="st1" cx="810.4" cy="588.4" r="32.9"/>
	<circle class="st5" cx="810.4" cy="588.4" r="10.8"/>
	<polygon class="st0" points="809.8,575 809.8,558 814.8,566.5 	"/>
	<polygon class="st0" points="800.3,579.2 788.4,567.2 797.9,569.7 	"/>
	<polygon class="st0" points="796.8,588.4 779.9,588.4 788.4,583.4 	"/>
	<polygon class="st0" points="799.6,597.7 787.6,609.6 790.1,600.1 	"/>
	<polygon class="st0" points="810.1,602.2 810.1,619.1 805.1,610.7 	"/>
	<polygon class="st0" points="819.1,598.2 831.1,610.1 821.6,607.7 	"/>
	<polygon class="st0" points="824.7,588.2 841.6,588.2 833.1,593.2 	"/>
	<polygon class="st0" points="820.6,579.2 832.6,567.2 830.1,576.7 	"/>
</g>
<g>
	<circle class="st0" cx="1460.9" cy="375.4" r="18.6"/>
	<g>
		<defs>
			<circle id="SVGID_29_" cx="1460.9" cy="375.5" r="16.6"/>
		</defs>
		<clipPath id="SVGID_30_">
			<use xlink:href="#SVGID_29_"  style="overflow:visible;"/>
		</clipPath>
		<polygon class="st27" points="1453,358.8 1461,375.6 1465,357.4 1459.6,354.2"/>
		<polygon class="st27" points="1444.5,384.7 1461,375.7 1442.6,373 1439.9,379.6"/>
		<polygon class="st27" points="1469.2,392.6 1461.1,375.8 1457.1,394 1462.5,397.3"/>
		<polygon class="st27" points="1476.8,365.8 1461.1,375.7 1479.6,377.6 1482.2,371.9"/>
	</g>
</g>
<g>
	<circle class="st0" cx="836.5" cy="624.9" r="18.6"/>
	<g>
		<defs>
			<circle id="SVGID_31_" cx="836.5" cy="625" r="16.6"/>
		</defs>
		<clipPath id="SVGID_32_">
			<use xlink:href="#SVGID_31_"  style="overflow:visible;"/>
		</clipPath>
		<polygon class="st28" points="828.6,608.3 836.6,625 840.6,606.8 835.2,603.6"/>
		<polygon class="st28" points="820.1,634.1 836.6,625.2 818.2,622.4 815.5,629"/>
		<polygon class="st28" points="844.7,642 836.7,625.3 832.7,643.4 838.1,646.7"/>
		<polygon class="st28" points="852.4,615.2 836.7,625.1 855.2,627 857.8,621.3"/>
	</g>
</g>
<g>
	<circle class="st1" cx="1875.9" cy="790.8" r="32.9"/>
	<circle class="st5" cx="1875.9" cy="790.8" r="10.8"/>
	<polygon class="st0" points="1875.2,777.3 1875.2,760.4 1880.2,768.9 	"/>
	<polygon class="st0" points="1865.7,781.5 1853.8,769.6 1863.3,772 	"/>
	<polygon class="st0" points="1862.2,790.8 1845.3,790.8 1853.8,785.8 	"/>
	<polygon class="st0" points="1865,800 1853.1,812 1855.5,802.5 	"/>
	<polygon class="st0" points="1875.5,804.6 1875.5,821.5 1870.5,813 	"/>
	<polygon class="st0" points="1884.5,800.5 1896.5,812.5 1887,810 	"/>
	<polygon class="st0" points="1890.1,790.5 1907,790.5 1898.5,795.5 	"/>
	<polygon class="st0" points="1886,781.5 1898,769.6 1895.5,779.1 	"/>
</g>
<g>
	<circle class="st0" cx="1776.4" cy="375.5" r="18.6"/>
	<g>
		<defs>
			<circle id="SVGID_33_" cx="1776.4" cy="375.6" r="16.6"/>
		</defs>
		<clipPath id="SVGID_34_">
			<use xlink:href="#SVGID_33_"  style="overflow:visible;"/>
		</clipPath>
		<polygon class="st29" points="1768.5,358.9 1776.5,375.7 1780.5,357.5 1775.1,354.3"/>
		<polygon class="st29" points="1760,384.8 1776.5,375.8 1758.1,373.1 1755.4,379.7"/>
		<polygon class="st29" points="1784.7,392.7 1776.6,376 1772.6,394.1 1778,397.4"/>
		<polygon class="st29" points="1792.3,365.9 1776.6,375.8 1795.1,377.7 1797.7,372"/>
	</g>
</g>
<g>
	<circle class="st1" cx="1876.7" cy="872.7" r="32.9"/>
	<circle class="st5" cx="1876.7" cy="872.7" r="10.8"/>
	<polygon class="st0" points="1876,859.2 1876,842.3 1881,850.7 	"/>
	<polygon class="st0" points="1866.6,863.4 1854.6,851.4 1864.1,853.9 	"/>
	<polygon class="st0" points="1863.1,872.7 1846.2,872.7 1854.6,867.7 	"/>
	<polygon class="st0" points="1865.9,881.9 1853.9,893.9 1856.3,884.3 	"/>
	<polygon class="st0" points="1876.4,886.4 1876.4,903.4 1871.4,894.9 	"/>
	<polygon class="st0" points="1885.4,882.4 1897.3,894.3 1887.8,891.9 	"/>
	<polygon class="st0" points="1890.9,872.4 1907.8,872.4 1899.4,877.4 	"/>
	<polygon class="st0" points="1886.9,863.4 1898.8,851.4 1896.4,861 	"/>
</g>
<rect x="1832.5" y="362.2" class="st1" width="76" height="53"/>
<path class="st0" d="M1898.8,410.8h-10.2c-2.2,0-4.1-1.8-4.1-4.1v-3.2c0-2.2,1.8-4.1,4.1-4.1h10.2c2.2,0,4.1,1.8,4.1,4.1v3.2
	C1902.9,409,1901,410.8,1898.8,410.8z"/>
<path class="st0" d="M1898.8,395.5h-10.2c-2.2,0-4.1-1.8-4.1-4.1v-3.2c0-2.2,1.8-4.1,4.1-4.1h10.2c2.2,0,4.1,1.8,4.1,4.1v3.2
	C1902.9,393.7,1901,395.5,1898.8,395.5z"/>
<g>
	<circle class="st0" cx="1876.7" cy="924" r="18.6"/>
	<g>
		<defs>
			<circle id="SVGID_35_" cx="1876.7" cy="924.1" r="16.6"/>
		</defs>
		<clipPath id="SVGID_36_">
			<use xlink:href="#SVGID_35_"  style="overflow:visible;"/>
		</clipPath>
		<polygon class="st30" points="1868.8,907.4 1876.8,924.1 1880.8,905.9 1875.5,902.7"/>
		<polygon class="st30" points="1860.3,933.2 1876.8,924.3 1858.4,921.5 1855.7,928.1"/>
		<polygon class="st30" points="1885,941.1 1876.9,924.4 1872.9,942.5 1878.3,945.8"/>
		<polygon class="st30" points="1892.6,914.3 1876.9,924.2 1895.4,926.1 1898,920.4"/>
	</g>
</g>
<rect x="1820.6" y="431.2" class="st0" width="88.7" height="26.6"/>
<path class="st1" d="M1832.5,442.6h-5.7c-1.5,0-2.8-1.2-2.8-2.8v-0.1c0-1.5,1.2-2.8,2.8-2.8h5.7c1.5,0,2.8,1.2,2.8,2.8v0.1
	C1835.3,441.3,1834.1,442.6,1832.5,442.6z"/>
<path class="st1" d="M1832.5,450.2h-5.7c-1.5,0-2.8-1.2-2.8-2.8v-0.1c0-1.5,1.2-2.8,2.8-2.8h5.7c1.5,0,2.8,1.2,2.8,2.8v0.1
	C1835.3,448.9,1834.1,450.2,1832.5,450.2z"/>
<circle class="st1" cx="1844.1" cy="443.7" r="4"/>
<circle class="st1" cx="1899.8" cy="443.7" r="4"/>
<path class="st1" d="M1892.1,442.6h-5.7c-1.5,0-2.8-1.2-2.8-2.8v-0.1c0-1.5,1.2-2.8,2.8-2.8h5.7c1.5,0,2.8,1.2,2.8,2.8v0.1
	C1894.8,441.3,1893.6,442.6,1892.1,442.6z"/>
<path class="st1" d="M1892.1,450.2h-5.7c-1.5,0-2.8-1.2-2.8-2.8v-0.1c0-1.5,1.2-2.8,2.8-2.8h5.7c1.5,0,2.8,1.2,2.8,2.8v0.1
	C1894.8,448.9,1893.6,450.2,1892.1,450.2z"/>
<rect x="1832.5" y="474.2" class="st1" width="76" height="53"/>
<path class="st0" d="M1898.8,522.9h-10.2c-2.2,0-4.1-1.8-4.1-4.1v-3.2c0-2.2,1.8-4.1,4.1-4.1h10.2c2.2,0,4.1,1.8,4.1,4.1v3.2
	C1902.9,521.1,1901,522.9,1898.8,522.9z"/>
<path class="st0" d="M1898.8,507.5h-10.2c-2.2,0-4.1-1.8-4.1-4.1v-3.2c0-2.2,1.8-4.1,4.1-4.1h10.2c2.2,0,4.1,1.8,4.1,4.1v3.2
	C1902.9,505.7,1901,507.5,1898.8,507.5z"/>
<rect x="1902.9" y="89" class="st0" width="3.6" height="48.8"/>
<rect x="1891.9" y="89" class="st0" width="3.6" height="48.8"/>
<rect x="1809.1" y="94.1" class="st0" width="3.6" height="48.8"/>
<rect x="1798.2" y="94.1" class="st0" width="3.6" height="48.8"/>
<rect x="1831.8" y="94.1" class="st0" width="3.6" height="48.8"/>
<rect x="1820.8" y="94.1" class="st0" width="3.6" height="48.8"/>
<rect x="1532.2" y="94.1" class="st0" width="3.6" height="48.8"/>
<rect x="1450.9" y="94.1" class="st0" width="3.6" height="48.8"/>
<rect x="1462.2" y="94.1" class="st0" width="3.6" height="48.8"/>
<rect x="1862.9" y="91.6" class="st0" width="3.6" height="48.8"/>
<rect x="1820.6" y="541.7" class="st0" width="88.7" height="26.6"/>
<path class="st1" d="M1832.5,553h-5.7c-1.5,0-2.8-1.2-2.8-2.8v-0.1c0-1.5,1.2-2.8,2.8-2.8h5.7c1.5,0,2.8,1.2,2.8,2.8v0.1
	C1835.3,551.8,1834.1,553,1832.5,553z"/>
<path class="st1" d="M1832.5,560.6h-5.7c-1.5,0-2.8-1.2-2.8-2.8v-0.1c0-1.5,1.2-2.8,2.8-2.8h5.7c1.5,0,2.8,1.2,2.8,2.8v0.1
	C1835.3,559.4,1834.1,560.6,1832.5,560.6z"/>
<circle class="st1" cx="1844.1" cy="554.2" r="4"/>
<circle class="st1" cx="1899.8" cy="554.2" r="4"/>
<path class="st1" d="M1892.1,553h-5.7c-1.5,0-2.8-1.2-2.8-2.8v-0.1c0-1.5,1.2-2.8,2.8-2.8h5.7c1.5,0,2.8,1.2,2.8,2.8v0.1
	C1894.8,551.8,1893.6,553,1892.1,553z"/>
<path class="st1" d="M1892.1,560.6h-5.7c-1.5,0-2.8-1.2-2.8-2.8v-0.1c0-1.5,1.2-2.8,2.8-2.8h5.7c1.5,0,2.8,1.2,2.8,2.8v0.1
	C1894.8,559.4,1893.6,560.6,1892.1,560.6z"/>
<rect x="1820.6" y="578.5" class="st0" width="88.7" height="26.6"/>
<path class="st1" d="M1832.5,589.8h-5.7c-1.5,0-2.8-1.2-2.8-2.8V587c0-1.5,1.2-2.8,2.8-2.8h5.7c1.5,0,2.8,1.2,2.8,2.8v0.1
	C1835.3,588.6,1834.1,589.8,1832.5,589.8z"/>
<path class="st1" d="M1832.5,597.5h-5.7c-1.5,0-2.8-1.2-2.8-2.8v-0.1c0-1.5,1.2-2.8,2.8-2.8h5.7c1.5,0,2.8,1.2,2.8,2.8v0.1
	C1835.3,596.2,1834.1,597.5,1832.5,597.5z"/>
<circle class="st1" cx="1844.1" cy="591" r="4"/>
<circle class="st1" cx="1899.8" cy="591" r="4"/>
<path class="st1" d="M1892.1,589.8h-5.7c-1.5,0-2.8-1.2-2.8-2.8V587c0-1.5,1.2-2.8,2.8-2.8h5.7c1.5,0,2.8,1.2,2.8,2.8v0.1
	C1894.8,588.6,1893.6,589.8,1892.1,589.8z"/>
<path class="st1" d="M1892.1,597.5h-5.7c-1.5,0-2.8-1.2-2.8-2.8v-0.1c0-1.5,1.2-2.8,2.8-2.8h5.7c1.5,0,2.8,1.2,2.8,2.8v0.1
	C1894.8,596.2,1893.6,597.5,1892.1,597.5z"/>
<rect x="-0.6" y="820.8" class="st1" width="61" height="28.2"/>
<rect x="16.4" y="846.5" class="st1" width="12" height="1287.6"/>
<rect x="1402.4" y="948.7" class="st1" width="172.9" height="14.3"/>
<rect x="1026.9" y="591" class="st1" width="193.2" height="16.1"/>
<rect x="1067.7" y="95.5" class="st1" width="8.8" height="503.6"/>
<rect x="231.7" y="134.3" class="st4" width="1455.4" height="280.2"/>
<g>
	<circle class="st0" cx="1103.9" cy="565.5" r="18.6"/>
	<g>
		<defs>
			<circle id="SVGID_37_" cx="1104" cy="565.6" r="16.6"/>
		</defs>
		<clipPath id="SVGID_38_">
			<use xlink:href="#SVGID_37_"  style="overflow:visible;"/>
		</clipPath>
		<polygon class="st36" points="1096,548.9 1104.1,565.7 1108.1,547.5 1102.7,544.2"/>
		<polygon class="st36" points="1087.5,574.8 1104.1,565.8 1085.7,563.1 1083,569.6"/>
		<polygon class="st36" points="1112.2,582.7 1104.1,565.9 1100.2,584.1 1105.5,587.3"/>
		<polygon class="st36" points="1119.9,555.8 1104.1,565.8 1122.6,567.6 1125.3,561.9"/>
	</g>
</g>
<g>
	<circle class="st1" cx="60.4" cy="695.2" r="32.9"/>
	<circle class="st5" cx="60.4" cy="695.2" r="10.8"/>
	<polygon class="st0" points="59.8,681.7 59.8,664.8 64.8,673.3 	"/>
	<polygon class="st0" points="50.3,686 38.4,674 47.9,676.4 	"/>
	<polygon class="st0" points="46.8,695.2 29.9,695.2 38.4,690.2 	"/>
	<polygon class="st0" points="49.6,704.5 37.7,716.4 40.1,706.9 	"/>
	<polygon class="st0" points="60.1,709 60.1,725.9 55.1,717.5 	"/>
	<polygon class="st0" points="69.1,704.9 81.1,716.9 71.6,714.5 	"/>
	<polygon class="st0" points="74.7,695 91.6,695 83.1,700 	"/>
	<polygon class="st0" points="70.6,686 82.6,674 80.1,683.5 	"/>
</g>
<g>
	<circle class="st1" cx="1486.1" cy="921.1" r="24.3"/>
	<circle class="st5" cx="1486.1" cy="921.1" r="8"/>
	<polygon class="st0" points="1485.6,911.1 1485.6,898.6 1489.3,904.9 	"/>
	<polygon class="st0" points="1478.6,914.2 1469.7,905.4 1476.8,907.2 	"/>
	<polygon class="st0" points="1476,921.1 1463.5,921.1 1469.7,917.4 	"/>
	<polygon class="st0" points="1478,927.9 1469.2,936.7 1471,929.7 	"/>
	<polygon class="st0" points="1485.8,931.3 1485.8,943.8 1482.1,937.5 	"/>
	<polygon class="st0" points="1492.5,928.3 1501.3,937.1 1494.3,935.3 	"/>
	<polygon class="st0" points="1496.6,920.9 1509.1,920.9 1502.8,924.6 	"/>
	<polygon class="st0" points="1493.6,914.2 1502.4,905.4 1500.6,912.4 	"/>
</g>
<g>
	<circle class="st1" cx="1487.4" cy="729" r="24.3"/>
	<circle class="st5" cx="1487.4" cy="729" r="8"/>
	<polygon class="st0" points="1486.9,719.1 1486.9,706.6 1490.6,712.8 	"/>
	<polygon class="st0" points="1479.9,722.2 1471.1,713.3 1478.1,715.2 	"/>
	<polygon class="st0" points="1477.3,729 1464.8,729 1471.1,725.3 	"/>
	<polygon class="st0" points="1479.4,735.9 1470.6,744.7 1472.4,737.7 	"/>
	<polygon class="st0" points="1487.2,739.2 1487.2,751.7 1483.5,745.5 	"/>
	<polygon class="st0" points="1493.8,736.2 1502.7,745.1 1495.6,743.3 	"/>
	<polygon class="st0" points="1497.9,728.9 1510.4,728.9 1504.2,732.6 	"/>
	<polygon class="st0" points="1494.9,722.2 1503.8,713.3 1502,720.4 	"/>
</g>
<rect x="1748.2" y="167" class="st0" width="171.3" height="14"/>
<rect x="1026.9" y="615.8" class="st1" width="193.2" height="9.2"/>
<rect x="1037.9" y="693" class="st1" width="221.3" height="8.5"/>
<path class="st1" d="M1160,692.8h-72.9v-34.3c0-6.6,5.3-11.9,11.9-11.9h49c6.6,0,11.9,5.3,11.9,11.9V692.8z"/>
<circle class="st5" cx="1137.3" cy="671.2" r="16.7"/>
<circle class="st1" cx="1137.3" cy="671.2" r="11.9"/>
<g>
	<circle class="st0" cx="1137.3" cy="671.2" r="10.3"/>
	<g>
		<defs>
			<circle id="SVGID_41_" cx="1137.3" cy="671.2" r="9.2"/>
		</defs>
		<clipPath id="SVGID_42_">
			<use xlink:href="#SVGID_41_"  style="overflow:visible;"/>
		</clipPath>
		<polygon class="st38" points="1132.9,662 1137.4,671.2 1139.6,661.2 1136.6,659.4"/>
		<polygon class="st38" points="1128.2,676.3 1137.4,671.3 1127.2,669.8 1125.7,673.4"/>
		<polygon class="st38" points="1141.9,680.6 1137.4,671.4 1135.2,681.4 1138.2,683.2"/>
		<polygon class="st38" points="1146.1,665.8 1137.4,671.3 1147.6,672.3 1149.1,669.2"/>
	</g>
</g>
<rect x="1087.1" y="668.4" class="st5" width="35.5" height="4.1"/>
<rect x="1087.1" y="658" class="st5" width="41" height="4.1"/>
<rect x="1087.1" y="678.4" class="st5" width="39.9" height="4.1"/>
<rect x="318.8" y="936.1" class="st1" width="172.3" height="16.2"/>
<rect x="280.8" y="965.9" class="st1" width="232.7" height="11.7"/>
<rect x="23.6" y="1040.5" class="st1" width="870.4" height="11.7"/>
<rect x="878.5" y="966.5" class="st1" width="15.5" height="85.7"/>
<rect x="681.2" y="693.1" class="st1" width="357.3" height="8.5"/>
<path class="st1" d="M803.2,692.9h-72.9v-34.3c0-6.6,5.3-11.9,11.9-11.9h49c6.6,0,11.9,5.3,11.9,11.9V692.9z"/>
<circle class="st5" cx="780.6" cy="671.3" r="16.7"/>
<circle class="st1" cx="780.6" cy="671.3" r="11.9"/>
<g>
	<circle class="st0" cx="780.6" cy="671.3" r="10.3"/>
	<g>
		<defs>
			<circle id="SVGID_43_" cx="780.6" cy="671.3" r="9.2"/>
		</defs>
		<clipPath id="SVGID_44_">
			<use xlink:href="#SVGID_43_"  style="overflow:visible;"/>
		</clipPath>
		<polygon class="st39" points="776.2,662.1 780.7,671.3 782.8,661.3 779.9,659.5"/>
		<polygon class="st39" points="771.5,676.4 780.7,671.4 770.5,669.9 769,673.5"/>
		<polygon class="st39" points="785.1,680.7 780.7,671.5 778.5,681.5 781.5,683.3"/>
		<polygon class="st39" points="789.4,665.9 780.7,671.4 790.9,672.4 792.3,669.3"/>
	</g>
</g>
<rect x="730.4" y="668.5" class="st5" width="35.5" height="4.1"/>
<rect x="730.4" y="658.1" class="st5" width="41" height="4.1"/>
<rect x="730.4" y="678.5" class="st5" width="39.9" height="4.1"/>
<rect x="311.1" y="688.6" class="st1" width="221.3" height="8.5"/>
<path class="st1" d="M433.2,688.5h-72.9v-34.3c0-6.6,5.3-11.9,11.9-11.9h49c6.6,0,11.9,5.3,11.9,11.9V688.5z"/>
<circle class="st5" cx="410.5" cy="666.8" r="16.7"/>
<circle class="st1" cx="410.5" cy="666.8" r="11.9"/>
<g>
	<circle class="st0" cx="410.5" cy="666.8" r="10.3"/>
	<g>
		<defs>
			<circle id="SVGID_45_" cx="410.5" cy="666.9" r="9.2"/>
		</defs>
		<clipPath id="SVGID_46_">
			<use xlink:href="#SVGID_45_"  style="overflow:visible;"/>
		</clipPath>
		<polygon class="st40" points="406.1,657.7 410.6,666.9 412.8,656.9 409.8,655.1"/>
		<polygon class="st40" points="401.4,671.9 410.6,667 400.4,665.5 398.9,669.1"/>
		<polygon class="st40" points="415,676.3 410.6,667 408.4,677.1 411.4,678.9"/>
		<polygon class="st40" points="419.3,661.5 410.6,667 420.8,668 422.2,664.9"/>
	</g>
</g>
<rect x="360.3" y="664" class="st5" width="35.5" height="4.1"/>
<rect x="360.3" y="653.7" class="st5" width="41" height="4.1"/>
<rect x="360.3" y="674" class="st5" width="39.9" height="4.1"/>
<rect x="1433" y="657" class="st1" width="148.8" height="5.3"/>
<rect x="1698.9" y="1059.7" class="st1" width="220.7" height="17.4"/>
<rect x="120.8" y="1024.2" class="st4" width="198" height="44.4"/>
<rect x="458.8" y="1026.5" class="st4" width="242.5" height="101.1"/>
<rect x="822.7" y="1024.2" class="st4" width="242.5" height="44.4"/>
<rect x="1183" y="1024.2" class="st4" width="242.5" height="44.4"/>
<rect x="1548.7" y="1026.5" class="st4" width="242.5" height="101.1"/>
<g>
	<circle class="st0" cx="48" cy="1071.1" r="18.6"/>
	<g>
		<defs>
			<circle id="SVGID_47_" cx="48" cy="1071.2" r="16.6"/>
		</defs>
		<clipPath id="SVGID_48_">
			<use xlink:href="#SVGID_47_"  style="overflow:visible;"/>
		</clipPath>
		<polygon class="st42" points="40.1,1054.5 48.1,1071.2 52.1,1053.1 46.7,1049.8"/>
		<polygon class="st42" points="31.6,1080.3 48.1,1071.4 29.7,1068.6 27,1075.2"/>
		<polygon class="st42" points="56.2,1088.2 48.2,1071.5 44.2,1089.6 49.6,1092.9"/>
		<polygon class="st42" points="63.9,1061.4 48.2,1071.3 66.7,1073.2 69.3,1067.5"/>
	</g>
</g>
<g>
	<rect x="1756.9" y="153.6" class="st0" width="18.9" height="8.4"/>
	<polygon class="st0" points="1775.5,148.1 1775.5,167.5 1785.4,157.8 	"/>
</g>
<g>
	<rect x="1799.9" y="153.6" class="st1" width="18.9" height="8.4"/>
	<polygon class="st1" points="1818.6,148.1 1818.6,167.5 1828.5,157.8 	"/>
</g>
<g>
	<rect x="1842.7" y="153.6" class="st0" width="18.9" height="8.4"/>
	<polygon class="st0" points="1861.4,148.1 1861.4,167.5 1871.3,157.8 	"/>
</g>
<g>
	<rect x="1885.8" y="153.6" class="st1" width="18.9" height="8.4"/>
	<polygon class="st1" points="1904.5,148.1 1904.5,167.5 1914.4,157.8 	"/>
</g>
<g>
	<rect x="39.4" y="1258" class="st0" width="8.4" height="18.9"/>
	<polygon class="st0" points="33.9,1258.3 53.3,1258.3 43.6,1248.3 	"/>
</g>
<g>
	<rect x="39.4" y="1214.9" class="st1" width="8.4" height="18.9"/>
	<polygon class="st1" points="33.9,1215.2 53.3,1215.2 43.6,1205.3 	"/>
</g>
<g>
	<rect x="39.4" y="1172.1" class="st0" width="8.4" height="18.9"/>
	<polygon class="st0" points="33.9,1172.4 53.3,1172.4 43.6,1162.5 	"/>
</g>
<g>
	<rect x="39.4" y="1129" class="st1" width="8.4" height="18.9"/>
	<polygon class="st1" points="33.9,1129.3 53.3,1129.3 43.6,1119.4 	"/>
</g>
<g>
	<rect x="1874.4" y="1457.3" class="st0" width="8.4" height="18.9"/>
	<polygon class="st0" points="1888.3,1476 1868.9,1476 1878.6,1485.9 	"/>
</g>
<g>
	<rect x="1874.4" y="1500.4" class="st1" width="8.4" height="18.9"/>
	<polygon class="st1" points="1888.3,1519.1 1868.9,1519.1 1878.6,1529 	"/>
</g>
<g>
	<rect x="1874.4" y="1543.2" class="st0" width="8.4" height="18.9"/>
	<polygon class="st0" points="1888.3,1561.9 1868.9,1561.9 1878.6,1571.8 	"/>
</g>
<g>
	<rect x="1874.4" y="1586.2" class="st1" width="8.4" height="18.9"/>
	<polygon class="st1" points="1888.3,1604.9 1868.9,1604.9 1878.6,1614.8 	"/>
</g>
<rect x="-0.6" y="1390.5" class="st1" width="1920" height="22.5"/>
<g>
	<rect x="364" y="1353.3" class="st0" width="37.8" height="37.8"/>
	<g>
		<ellipse class="st43" cx="382.9" cy="1372" rx="2.3" ry="2.1"/>
		<path class="st5" d="M380.7,1371.9c-0.8,0.8-8.5,4.5-8.5,0C372.1,1367.4,380.7,1371.9,380.7,1371.9z"/>
		<path class="st5" d="M381.1,1373.3c0,1.1-2.7,9-6,5.8C371.8,1375.9,381.1,1373.3,381.1,1373.3z"/>
		<path class="st5" d="M382.8,1374.5c0.8,0.7,4.7,8.2,0,8.2S382.8,1374.5,382.8,1374.5z"/>
		<path class="st5" d="M384.4,1373.6c1.1,0,9.4,2.6,6,5.8C387.1,1382.6,384.4,1373.6,384.4,1373.6z"/>
		<path class="st5" d="M385.2,1372.1c0.8-0.8,8.5-4.5,8.5,0C393.7,1376.6,385.2,1372.1,385.2,1372.1z"/>
		<path class="st5" d="M382.9,1369.9c-0.8-0.7-4.7-8.2,0-8.2S382.9,1369.9,382.9,1369.9z"/>
		<path class="st5" d="M381.4,1370.5c-1.1,0-9.4-2.6-6-5.8C378.7,1361.6,381.4,1370.5,381.4,1370.5z"/>
		<path class="st5" d="M384.4,1370.5c0-1.1,2.7-9,6-5.8C393.7,1367.9,384.4,1370.5,384.4,1370.5z"/>
	</g>
</g>
<rect x="421.5" y="1353.4" class="st0" width="37.8" height="37.8"/>
<g>
	<ellipse class="st43" cx="440.4" cy="1372.1" rx="2.3" ry="2.1"/>
	<path class="st5" d="M438.2,1371.9c-0.8,0.8-8.5,4.5-8.5,0C429.6,1367.4,438.2,1371.9,438.2,1371.9z"/>
	<path class="st5" d="M438.7,1373.4c0,1.1-2.7,9-6,5.8C429.3,1376,438.7,1373.4,438.7,1373.4z"/>
	<path class="st5" d="M440.3,1374.5c0.8,0.7,4.7,8.2,0,8.2S440.3,1374.5,440.3,1374.5z"/>
	<path class="st5" d="M441.9,1373.6c1.1,0,9.4,2.6,6,5.8C444.6,1382.6,441.9,1373.6,441.9,1373.6z"/>
	<path class="st5" d="M442.7,1372.1c0.8-0.8,8.5-4.5,8.5,0C451.2,1376.6,442.7,1372.1,442.7,1372.1z"/>
	<path class="st5" d="M440.4,1370c-0.8-0.7-4.7-8.2,0-8.2S440.4,1370,440.4,1370z"/>
	<path class="st5" d="M438.9,1370.6c-1.1,0-9.4-2.6-6-5.8C436.2,1361.6,438.9,1370.6,438.9,1370.6z"/>
	<path class="st5" d="M441.9,1370.5c0-1.1,2.7-9,6-5.8C451.2,1367.9,441.9,1370.5,441.9,1370.5z"/>
</g>
<g>
	<rect x="479.6" y="1353.4" class="st0" width="37.8" height="37.8"/>
	<g>
		<ellipse class="st43" cx="498.4" cy="1372.1" rx="2.3" ry="2.1"/>
		<path class="st5" d="M496.2,1371.9c-0.8,0.8-8.5,4.5-8.5,0C487.6,1367.4,496.2,1371.9,496.2,1371.9z"/>
		<path class="st5" d="M496.7,1373.4c0,1.1-2.7,9-6,5.8C487.3,1376,496.7,1373.4,496.7,1373.4z"/>
		<path class="st5" d="M498.3,1374.5c0.8,0.7,4.7,8.2,0,8.2S498.3,1374.5,498.3,1374.5z"/>
		<path class="st5" d="M499.9,1373.6c1.1,0,9.4,2.6,6,5.8C502.7,1382.6,499.9,1373.6,499.9,1373.6z"/>
		<path class="st5" d="M500.7,1372.1c0.8-0.8,8.5-4.5,8.5,0C509.2,1376.6,500.7,1372.1,500.7,1372.1z"/>
		<path class="st5" d="M498.4,1369.9c-0.8-0.7-4.7-8.2,0-8.2S498.4,1369.9,498.4,1369.9z"/>
		<path class="st5" d="M496.9,1370.6c-1.1,0-9.4-2.6-6-5.8C494.2,1361.6,496.9,1370.6,496.9,1370.6z"/>
		<path class="st5" d="M499.9,1370.5c0-1.1,2.7-9,6-5.8C509.3,1367.9,499.9,1370.5,499.9,1370.5z"/>
	</g>
</g>
<rect x="537.1" y="1353.4" class="st0" width="37.8" height="37.8"/>
<g>
	<ellipse class="st43" cx="555.9" cy="1372.1" rx="2.3" ry="2.1"/>
	<path class="st5" d="M553.7,1372c-0.8,0.8-8.5,4.5-8.5,0C545.2,1367.5,553.7,1372,553.7,1372z"/>
	<path class="st5" d="M554.2,1373.4c0,1.1-2.7,9-6,5.8C544.8,1376,554.2,1373.4,554.2,1373.4z"/>
	<path class="st5" d="M555.8,1374.6c0.8,0.7,4.7,8.2,0,8.2S555.8,1374.6,555.8,1374.6z"/>
	<path class="st5" d="M557.5,1373.7c1.1,0,9.4,2.6,6,5.8C560.2,1382.7,557.5,1373.7,557.5,1373.7z"/>
	<path class="st5" d="M558.2,1372.2c0.8-0.8,8.5-4.5,8.5,0C566.7,1376.7,558.2,1372.2,558.2,1372.2z"/>
	<path class="st5" d="M555.9,1370c-0.8-0.7-4.7-8.2,0-8.2S555.9,1370,555.9,1370z"/>
	<path class="st5" d="M554.4,1370.6c-1.1,0-9.4-2.6-6-5.8C551.7,1361.6,554.4,1370.6,554.4,1370.6z"/>
	<path class="st5" d="M557.4,1370.5c0-1.1,2.7-9,6-5.8S557.4,1370.5,557.4,1370.5z"/>
</g>
<g>
	<rect x="594.9" y="1353.7" class="st0" width="37.8" height="37.8"/>
	<g>
		<ellipse class="st43" cx="613.8" cy="1372.4" rx="2.3" ry="2.1"/>
		<path class="st5" d="M611.6,1372.2c-0.8,0.8-8.5,4.5-8.5,0C603,1367.7,611.6,1372.2,611.6,1372.2z"/>
		<path class="st5" d="M612.1,1373.7c0,1.1-2.7,9-6,5.8C602.7,1376.3,612.1,1373.7,612.1,1373.7z"/>
		<path class="st5" d="M613.7,1374.8c0.8,0.7,4.7,8.2,0,8.2S613.7,1374.8,613.7,1374.8z"/>
		<path class="st5" d="M615.3,1373.9c1.1,0,9.4,2.6,6,5.8C618.1,1382.9,615.3,1373.9,615.3,1373.9z"/>
		<path class="st5" d="M616.1,1372.4c0.8-0.8,8.5-4.5,8.5,0S616.1,1372.4,616.1,1372.4z"/>
		<path class="st5" d="M613.8,1370.3c-0.8-0.7-4.7-8.2,0-8.2S613.8,1370.3,613.8,1370.3z"/>
		<path class="st5" d="M612.3,1370.9c-1.1,0-9.4-2.6-6-5.8S612.3,1370.9,612.3,1370.9z"/>
		<path class="st5" d="M615.3,1370.8c0-1.1,2.7-9,6-5.8C624.6,1368.2,615.3,1370.8,615.3,1370.8z"/>
	</g>
</g>
<rect x="652.5" y="1353.7" class="st0" width="37.8" height="37.8"/>
<g>
	<ellipse class="st43" cx="671.3" cy="1372.4" rx="2.3" ry="2.1"/>
	<path class="st5" d="M669.1,1372.3c-0.8,0.8-8.5,4.5-8.5,0C660.5,1367.8,669.1,1372.3,669.1,1372.3z"/>
	<path class="st5" d="M669.6,1373.7c0,1.1-2.7,9-6,5.8C660.2,1376.3,669.6,1373.7,669.6,1373.7z"/>
	<path class="st5" d="M671.2,1374.9c0.8,0.7,4.7,8.2,0,8.2S671.2,1374.9,671.2,1374.9z"/>
	<path class="st5" d="M672.8,1374c1.1,0,9.4,2.6,6,5.8C675.6,1383,672.8,1374,672.8,1374z"/>
	<path class="st5" d="M673.6,1372.5c0.8-0.8,8.5-4.5,8.5,0C682.1,1377,673.6,1372.5,673.6,1372.5z"/>
	<path class="st5" d="M671.3,1370.3c-0.8-0.7-4.7-8.2,0-8.2S671.3,1370.3,671.3,1370.3z"/>
	<path class="st5" d="M669.8,1370.9c-1.1,0-9.4-2.6-6-5.8C667.1,1362,669.8,1370.9,669.8,1370.9z"/>
	<path class="st5" d="M672.8,1370.9c0-1.1,2.7-9,6-5.8C682.1,1368.3,672.8,1370.9,672.8,1370.9z"/>
</g>
<g>
	<rect x="711.8" y="1353.4" class="st0" width="37.8" height="37.8"/>
	<g>
		<ellipse class="st43" cx="730.6" cy="1372.1" rx="2.3" ry="2.1"/>
		<path class="st5" d="M728.4,1371.9c-0.8,0.8-8.5,4.5-8.5,0C719.8,1367.4,728.4,1371.9,728.4,1371.9z"/>
		<path class="st5" d="M728.9,1373.4c0,1.1-2.7,9-6,5.8C719.5,1376,728.9,1373.4,728.9,1373.4z"/>
		<path class="st5" d="M730.5,1374.5c0.8,0.7,4.7,8.2,0,8.2S730.5,1374.5,730.5,1374.5z"/>
		<path class="st5" d="M732.2,1373.6c1.1,0,9.4,2.6,6,5.8S732.2,1373.6,732.2,1373.6z"/>
		<path class="st5" d="M732.9,1372.1c0.8-0.8,8.5-4.5,8.5,0C741.4,1376.6,732.9,1372.1,732.9,1372.1z"/>
		<path class="st5" d="M730.6,1370c-0.8-0.7-4.7-8.2,0-8.2S730.6,1370,730.6,1370z"/>
		<path class="st5" d="M729.1,1370.6c-1.1,0-9.4-2.6-6-5.8C726.4,1361.6,729.1,1370.6,729.1,1370.6z"/>
		<path class="st5" d="M732.1,1370.5c0-1.1,2.7-9,6-5.8C741.5,1367.9,732.1,1370.5,732.1,1370.5z"/>
	</g>
</g>
<g>
	<rect x="770.4" y="1353.1" class="st0" width="37.8" height="37.8"/>
	<g>
		<ellipse class="st43" cx="789.2" cy="1371.8" rx="2.3" ry="2.1"/>
		<path class="st5" d="M787,1371.7c-0.8,0.8-8.5,4.5-8.5,0C778.4,1367.2,787,1371.7,787,1371.7z"/>
		<path class="st5" d="M787.5,1373.2c0,1.1-2.7,9-6,5.8C778.1,1375.8,787.5,1373.2,787.5,1373.2z"/>
		<path class="st5" d="M789.1,1374.3c0.8,0.7,4.7,8.2,0,8.2S789.1,1374.3,789.1,1374.3z"/>
		<path class="st5" d="M790.7,1373.4c1.1,0,9.4,2.6,6,5.8C793.5,1382.4,790.7,1373.4,790.7,1373.4z"/>
		<path class="st5" d="M791.5,1371.9c0.8-0.8,8.5-4.5,8.5,0S791.5,1371.9,791.5,1371.9z"/>
		<path class="st5" d="M789.2,1369.7c-0.8-0.7-4.7-8.2,0-8.2S789.2,1369.7,789.2,1369.7z"/>
		<path class="st5" d="M787.7,1370.4c-1.1,0-9.4-2.6-6-5.8C785,1361.4,787.7,1370.4,787.7,1370.4z"/>
		<path class="st5" d="M790.7,1370.3c0-1.1,2.7-9,6-5.8C800.1,1367.7,790.7,1370.3,790.7,1370.3z"/>
	</g>
</g>
<g>
	<rect x="831.2" y="1353.5" class="st0" width="37.8" height="37.8"/>
	<g>
		<ellipse class="st43" cx="850" cy="1372.2" rx="2.3" ry="2.1"/>
		<path class="st5" d="M847.8,1372.1c-0.8,0.8-8.5,4.5-8.5,0S847.8,1372.1,847.8,1372.1z"/>
		<path class="st5" d="M848.3,1373.5c0,1.1-2.7,9-6,5.8C838.9,1376.1,848.3,1373.5,848.3,1373.5z"/>
		<path class="st5" d="M849.9,1374.7c0.8,0.7,4.7,8.2,0,8.2S849.9,1374.7,849.9,1374.7z"/>
		<path class="st5" d="M851.6,1373.8c1.1,0,9.4,2.6,6,5.8C854.3,1382.7,851.6,1373.8,851.6,1373.8z"/>
		<path class="st5" d="M852.3,1372.2c0.8-0.8,8.5-4.5,8.5,0S852.3,1372.2,852.3,1372.2z"/>
		<path class="st5" d="M850.1,1370.1c-0.8-0.7-4.7-8.2,0-8.2S850.1,1370.1,850.1,1370.1z"/>
		<path class="st5" d="M848.5,1370.7c-1.1,0-9.4-2.6-6-5.8C845.8,1361.7,848.5,1370.7,848.5,1370.7z"/>
		<path class="st5" d="M851.5,1370.6c0-1.1,2.7-9,6-5.8C860.9,1368,851.5,1370.6,851.5,1370.6z"/>
	</g>
</g>
<g>
	<rect x="889.8" y="1353.3" class="st0" width="37.8" height="37.8"/>
	<g>
		<ellipse class="st43" cx="908.6" cy="1372" rx="2.3" ry="2.1"/>
		<path class="st5" d="M906.4,1371.8c-0.8,0.8-8.5,4.5-8.5,0S906.4,1371.8,906.4,1371.8z"/>
		<path class="st5" d="M906.9,1373.3c0,1.1-2.7,9-6,5.8S906.9,1373.3,906.9,1373.3z"/>
		<path class="st5" d="M908.5,1374.4c0.8,0.7,4.7,8.2,0,8.2S908.5,1374.4,908.5,1374.4z"/>
		<path class="st5" d="M910.2,1373.5c1.1,0,9.4,2.6,6,5.8C912.9,1382.5,910.2,1373.5,910.2,1373.5z"/>
		<path class="st5" d="M910.9,1372c0.8-0.8,8.5-4.5,8.5,0C919.5,1376.5,910.9,1372,910.9,1372z"/>
		<path class="st5" d="M908.7,1369.9c-0.8-0.7-4.7-8.2,0-8.2S908.7,1369.9,908.7,1369.9z"/>
		<path class="st5" d="M907.1,1370.5c-1.1,0-9.4-2.6-6-5.8C904.4,1361.5,907.1,1370.5,907.1,1370.5z"/>
		<path class="st5" d="M910.1,1370.4c0-1.1,2.7-9,6-5.8C919.5,1367.8,910.1,1370.4,910.1,1370.4z"/>
	</g>
</g>
<g>
	<rect x="947.9" y="1353.6" class="st0" width="37.8" height="37.8"/>
	<g>
		<ellipse class="st43" cx="966.7" cy="1372.3" rx="2.3" ry="2.1"/>
		<path class="st5" d="M964.5,1372.2c-0.8,0.8-8.5,4.5-8.5,0C955.9,1367.7,964.5,1372.2,964.5,1372.2z"/>
		<path class="st5" d="M965,1373.6c0,1.1-2.7,9-6,5.8C955.6,1376.2,965,1373.6,965,1373.6z"/>
		<path class="st5" d="M966.6,1374.8c0.8,0.7,4.7,8.2,0,8.2S966.6,1374.8,966.6,1374.8z"/>
		<path class="st5" d="M968.2,1373.9c1.1,0,9.4,2.6,6,5.8C971,1382.9,968.2,1373.9,968.2,1373.9z"/>
		<path class="st5" d="M969,1372.4c0.8-0.8,8.5-4.5,8.5,0C977.5,1376.9,969,1372.4,969,1372.4z"/>
		<path class="st5" d="M966.7,1370.2c-0.8-0.7-4.7-8.2,0-8.2S966.7,1370.2,966.7,1370.2z"/>
		<path class="st5" d="M965.2,1370.8c-1.1,0-9.4-2.6-6-5.8C962.5,1361.8,965.2,1370.8,965.2,1370.8z"/>
		<path class="st5" d="M968.2,1370.8c0-1.1,2.7-9,6-5.8S968.2,1370.8,968.2,1370.8z"/>
	</g>
</g>
<g>
	<rect x="1006.5" y="1353.4" class="st0" width="37.8" height="37.8"/>
	<g>
		<ellipse class="st43" cx="1025.3" cy="1372.1" rx="2.3" ry="2.1"/>
		<path class="st5" d="M1023.1,1371.9c-0.8,0.8-8.5,4.5-8.5,0C1014.5,1367.4,1023.1,1371.9,1023.1,1371.9z"/>
		<path class="st5" d="M1023.6,1373.4c0,1.1-2.7,9-6,5.8C1014.2,1376,1023.6,1373.4,1023.6,1373.4z"/>
		<path class="st5" d="M1025.2,1374.5c0.8,0.7,4.7,8.2,0,8.2C1020.5,1382.7,1025.2,1374.5,1025.2,1374.5z"/>
		<path class="st5" d="M1026.8,1373.6c1.1,0,9.4,2.6,6,5.8C1029.6,1382.6,1026.8,1373.6,1026.8,1373.6z"/>
		<path class="st5" d="M1027.6,1372.1c0.8-0.8,8.5-4.5,8.5,0C1036.1,1376.6,1027.6,1372.1,1027.6,1372.1z"/>
		<path class="st5" d="M1025.3,1370c-0.8-0.7-4.7-8.2,0-8.2C1030,1361.8,1025.3,1370,1025.3,1370z"/>
		<path class="st5" d="M1023.8,1370.6c-1.1,0-9.4-2.6-6-5.8C1021.1,1361.6,1023.8,1370.6,1023.8,1370.6z"/>
		<path class="st5" d="M1026.8,1370.5c0-1.1,2.7-9,6-5.8C1036.1,1367.9,1026.8,1370.5,1026.8,1370.5z"/>
	</g>
</g>
<g>
	<rect x="1065.3" y="1353.7" class="st0" width="37.8" height="37.8"/>
	<g>
		<ellipse class="st43" cx="1084.2" cy="1372.4" rx="2.3" ry="2.1"/>
		<path class="st5" d="M1082,1372.3c-0.8,0.8-8.5,4.5-8.5,0S1082,1372.3,1082,1372.3z"/>
		<path class="st5" d="M1082.5,1373.7c0,1.1-2.7,9-6,5.8C1073.1,1376.3,1082.5,1373.7,1082.5,1373.7z"/>
		<path class="st5" d="M1084.1,1374.9c0.8,0.7,4.7,8.2,0,8.2C1079.4,1383.1,1084.1,1374.9,1084.1,1374.9z"/>
		<path class="st5" d="M1085.7,1374c1.1,0,9.4,2.6,6,5.8C1088.5,1383,1085.7,1374,1085.7,1374z"/>
		<path class="st5" d="M1086.5,1372.5c0.8-0.8,8.5-4.5,8.5,0S1086.5,1372.5,1086.5,1372.5z"/>
		<path class="st5" d="M1084.2,1370.3c-0.8-0.7-4.7-8.2,0-8.2C1088.9,1362.1,1084.2,1370.3,1084.2,1370.3z"/>
		<path class="st5" d="M1082.7,1370.9c-1.1,0-9.4-2.6-6-5.8C1080,1362,1082.7,1370.9,1082.7,1370.9z"/>
		<path class="st5" d="M1085.7,1370.9c0-1.1,2.7-9,6-5.8C1095,1368.3,1085.7,1370.9,1085.7,1370.9z"/>
	</g>
</g>
<g>
	<rect x="1123.9" y="1353.5" class="st0" width="37.8" height="37.8"/>
	<g>
		<ellipse class="st43" cx="1142.8" cy="1372.2" rx="2.3" ry="2.1"/>
		<path class="st5" d="M1140.6,1372.1c-0.8,0.8-8.5,4.5-8.5,0S1140.6,1372.1,1140.6,1372.1z"/>
		<path class="st5" d="M1141.1,1373.5c0,1.1-2.7,9-6,5.8C1131.7,1376.1,1141.1,1373.5,1141.1,1373.5z"/>
		<path class="st5" d="M1142.7,1374.7c0.8,0.7,4.7,8.2,0,8.2C1138,1382.9,1142.7,1374.7,1142.7,1374.7z"/>
		<path class="st5" d="M1144.3,1373.8c1.1,0,9.4,2.6,6,5.8C1147,1382.7,1144.3,1373.8,1144.3,1373.8z"/>
		<path class="st5" d="M1145.1,1372.2c0.8-0.8,8.5-4.5,8.5,0S1145.1,1372.2,1145.1,1372.2z"/>
		<path class="st5" d="M1142.8,1370.1c-0.8-0.7-4.7-8.2,0-8.2C1147.5,1361.9,1142.8,1370.1,1142.8,1370.1z"/>
		<path class="st5" d="M1141.3,1370.7c-1.1,0-9.4-2.6-6-5.8C1138.6,1361.7,1141.3,1370.7,1141.3,1370.7z"/>
		<path class="st5" d="M1144.3,1370.6c0-1.1,2.7-9,6-5.8C1153.6,1368,1144.3,1370.6,1144.3,1370.6z"/>
	</g>
</g>
<g>
	<rect x="1183.5" y="1353.4" class="st0" width="37.8" height="37.8"/>
	<g>
		<ellipse class="st43" cx="1202.4" cy="1372.1" rx="2.3" ry="2.1"/>
		<path class="st5" d="M1200.2,1372c-0.8,0.8-8.5,4.5-8.5,0C1191.6,1367.4,1200.2,1372,1200.2,1372z"/>
		<path class="st5" d="M1200.6,1373.4c0,1.1-2.7,9-6,5.8C1191.3,1376,1200.6,1373.4,1200.6,1373.4z"/>
		<path class="st5" d="M1202.3,1374.6c0.8,0.7,4.7,8.2,0,8.2C1197.6,1382.8,1202.3,1374.6,1202.3,1374.6z"/>
		<path class="st5" d="M1203.9,1373.7c1.1,0,9.4,2.6,6,5.8C1206.6,1382.6,1203.9,1373.7,1203.9,1373.7z"/>
		<path class="st5" d="M1204.7,1372.1c0.8-0.8,8.5-4.5,8.5,0C1213.2,1376.7,1204.7,1372.1,1204.7,1372.1z"/>
		<path class="st5" d="M1202.4,1370c-0.8-0.7-4.7-8.2,0-8.2C1207.1,1361.8,1202.4,1370,1202.4,1370z"/>
		<path class="st5" d="M1200.9,1370.6c-1.1,0-9.4-2.6-6-5.8C1198.2,1361.6,1200.9,1370.6,1200.9,1370.6z"/>
		<path class="st5" d="M1203.9,1370.5c0-1.1,2.7-9,6-5.8C1213.2,1367.9,1203.9,1370.5,1203.9,1370.5z"/>
	</g>
</g>
<g>
	<rect x="1242.1" y="1353.2" class="st0" width="37.8" height="37.8"/>
	<g>
		<ellipse class="st43" cx="1261" cy="1371.9" rx="2.3" ry="2.1"/>
		<path class="st5" d="M1258.8,1371.7c-0.8,0.8-8.5,4.5-8.5,0C1250.2,1367.2,1258.8,1371.7,1258.8,1371.7z"/>
		<path class="st5" d="M1259.2,1373.2c0,1.1-2.7,9-6,5.8C1249.9,1375.8,1259.2,1373.2,1259.2,1373.2z"/>
		<path class="st5" d="M1260.9,1374.3c0.8,0.7,4.7,8.2,0,8.2C1256.2,1382.5,1260.9,1374.3,1260.9,1374.3z"/>
		<path class="st5" d="M1262.5,1373.4c1.1,0,9.4,2.6,6,5.8C1265.2,1382.4,1262.5,1373.4,1262.5,1373.4z"/>
		<path class="st5" d="M1263.3,1371.9c0.8-0.8,8.5-4.5,8.5,0C1271.8,1376.4,1263.3,1371.9,1263.3,1371.9z"/>
		<path class="st5" d="M1261,1369.8c-0.8-0.7-4.7-8.2,0-8.2C1265.7,1361.6,1261,1369.8,1261,1369.8z"/>
		<path class="st5" d="M1259.5,1370.4c-1.1,0-9.4-2.6-6-5.8C1256.8,1361.4,1259.5,1370.4,1259.5,1370.4z"/>
		<path class="st5" d="M1262.5,1370.3c0-1.1,2.7-9,6-5.8C1271.8,1367.7,1262.5,1370.3,1262.5,1370.3z"/>
	</g>
</g>
<g>
	<rect x="1300.3" y="1353.5" class="st0" width="37.8" height="37.8"/>
	<g>
		<ellipse class="st43" cx="1319.2" cy="1372.2" rx="2.3" ry="2.1"/>
		<path class="st5" d="M1317,1372.1c-0.8,0.8-8.5,4.5-8.5,0C1308.4,1367.6,1317,1372.1,1317,1372.1z"/>
		<path class="st5" d="M1317.5,1373.5c0,1.1-2.7,9-6,5.8C1308.1,1376.1,1317.5,1373.5,1317.5,1373.5z"/>
		<path class="st5" d="M1319.1,1374.7c0.8,0.7,4.7,8.2,0,8.2C1314.4,1382.9,1319.1,1374.7,1319.1,1374.7z"/>
		<path class="st5" d="M1320.7,1373.8c1.1,0,9.4,2.6,6,5.8C1323.4,1382.8,1320.7,1373.8,1320.7,1373.8z"/>
		<path class="st5" d="M1321.5,1372.3c0.8-0.8,8.5-4.5,8.5,0C1330,1376.8,1321.5,1372.3,1321.5,1372.3z"/>
		<path class="st5" d="M1319.2,1370.1c-0.8-0.7-4.7-8.2,0-8.2C1323.9,1361.9,1319.2,1370.1,1319.2,1370.1z"/>
		<path class="st5" d="M1317.7,1370.7c-1.1,0-9.4-2.6-6-5.8C1315,1361.8,1317.7,1370.7,1317.7,1370.7z"/>
		<path class="st5" d="M1320.7,1370.7c0-1.1,2.7-9,6-5.8C1330,1368.1,1320.7,1370.7,1320.7,1370.7z"/>
	</g>
</g>
<g>
	<rect x="1358.9" y="1353.3" class="st0" width="37.8" height="37.8"/>
	<g>
		<ellipse class="st43" cx="1377.8" cy="1372" rx="2.3" ry="2.1"/>
		<path class="st5" d="M1375.6,1371.8c-0.8,0.8-8.5,4.5-8.5,0S1375.6,1371.8,1375.6,1371.8z"/>
		<path class="st5" d="M1376.1,1373.3c0,1.1-2.7,9-6,5.8C1366.7,1375.9,1376.1,1373.3,1376.1,1373.3z"/>
		<path class="st5" d="M1377.7,1374.4c0.8,0.7,4.7,8.2,0,8.2C1373,1382.6,1377.7,1374.4,1377.7,1374.4z"/>
		<path class="st5" d="M1379.3,1373.5c1.1,0,9.4,2.6,6,5.8C1382,1382.5,1379.3,1373.5,1379.3,1373.5z"/>
		<path class="st5" d="M1380.1,1372c0.8-0.8,8.5-4.5,8.5,0S1380.1,1372,1380.1,1372z"/>
		<path class="st5" d="M1377.8,1369.9c-0.8-0.7-4.7-8.2,0-8.2C1382.5,1361.7,1377.8,1369.9,1377.8,1369.9z"/>
		<path class="st5" d="M1376.3,1370.5c-1.1,0-9.4-2.6-6-5.8C1373.6,1361.5,1376.3,1370.5,1376.3,1370.5z"/>
		<path class="st5" d="M1379.3,1370.4c0-1.1,2.7-9,6-5.8C1388.6,1367.8,1379.3,1370.4,1379.3,1370.4z"/>
	</g>
</g>
<g>
	<rect x="1420.7" y="1353.6" class="st0" width="37.8" height="37.8"/>
	<g>
		<ellipse class="st43" cx="1439.6" cy="1372.3" rx="2.3" ry="2.1"/>
		<path class="st5" d="M1437.3,1372.2c-0.8,0.8-8.5,4.5-8.5,0S1437.3,1372.2,1437.3,1372.2z"/>
		<path class="st5" d="M1437.8,1373.6c0,1.1-2.7,9-6,5.8C1428.5,1376.2,1437.8,1373.6,1437.8,1373.6z"/>
		<path class="st5" d="M1439.5,1374.8c0.8,0.7,4.7,8.2,0,8.2C1434.8,1383,1439.5,1374.8,1439.5,1374.8z"/>
		<path class="st5" d="M1441.1,1373.9c1.1,0,9.4,2.6,6,5.8C1443.8,1382.9,1441.1,1373.9,1441.1,1373.9z"/>
		<path class="st5" d="M1441.8,1372.4c0.8-0.8,8.5-4.5,8.5,0C1450.4,1376.9,1441.8,1372.4,1441.8,1372.4z"/>
		<path class="st5" d="M1439.6,1370.2c-0.8-0.7-4.7-8.2,0-8.2C1444.3,1362,1439.6,1370.2,1439.6,1370.2z"/>
		<path class="st5" d="M1438.1,1370.8c-1.1,0-9.4-2.6-6-5.8C1435.4,1361.9,1438.1,1370.8,1438.1,1370.8z"/>
		<path class="st5" d="M1441,1370.8c0-1.1,2.7-9,6-5.8C1450.4,1368.2,1441,1370.8,1441,1370.8z"/>
	</g>
</g>
<g>
	<rect x="1479.3" y="1353.4" class="st0" width="37.8" height="37.8"/>
	<g>
		<ellipse class="st43" cx="1498.2" cy="1372.1" rx="2.3" ry="2.1"/>
		<path class="st5" d="M1495.9,1372c-0.8,0.8-8.5,4.5-8.5,0C1487.4,1367.4,1495.9,1372,1495.9,1372z"/>
		<path class="st5" d="M1496.4,1373.4c0,1.1-2.7,9-6,5.8C1487.1,1376,1496.4,1373.4,1496.4,1373.4z"/>
		<path class="st5" d="M1498.1,1374.6c0.8,0.7,4.7,8.2,0,8.2C1493.4,1382.8,1498.1,1374.6,1498.1,1374.6z"/>
		<path class="st5" d="M1499.7,1373.7c1.1,0,9.4,2.6,6,5.8C1502.4,1382.6,1499.7,1373.7,1499.7,1373.7z"/>
		<path class="st5" d="M1500.4,1372.1c0.8-0.8,8.5-4.5,8.5,0C1509,1376.7,1500.4,1372.1,1500.4,1372.1z"/>
		<path class="st5" d="M1498.2,1370c-0.8-0.7-4.7-8.2,0-8.2C1502.9,1361.8,1498.2,1370,1498.2,1370z"/>
		<path class="st5" d="M1496.7,1370.6c-1.1,0-9.4-2.6-6-5.8C1493.9,1361.6,1496.7,1370.6,1496.7,1370.6z"/>
		<path class="st5" d="M1499.6,1370.5c0-1.1,2.7-9,6-5.8C1509,1367.9,1499.6,1370.5,1499.6,1370.5z"/>
	</g>
</g>
<g>
	<rect x="1541.2" y="1353.8" class="st0" width="37.8" height="37.8"/>
	<g>
		<ellipse class="st43" cx="1560.1" cy="1372.5" rx="2.3" ry="2.1"/>
		<path class="st5" d="M1557.9,1372.4c-0.8,0.8-8.5,4.5-8.5,0C1549.3,1367.9,1557.9,1372.4,1557.9,1372.4z"/>
		<path class="st5" d="M1558.4,1373.9c0,1.1-2.7,9-6,5.8C1549,1376.5,1558.4,1373.9,1558.4,1373.9z"/>
		<path class="st5" d="M1560,1375c0.8,0.7,4.7,8.2,0,8.2C1555.3,1383.2,1560,1375,1560,1375z"/>
		<path class="st5" d="M1561.6,1374.1c1.1,0,9.4,2.6,6,5.8C1564.3,1383.1,1561.6,1374.1,1561.6,1374.1z"/>
		<path class="st5" d="M1562.4,1372.6c0.8-0.8,8.5-4.5,8.5,0C1570.9,1377.1,1562.4,1372.6,1562.4,1372.6z"/>
		<path class="st5" d="M1560.1,1370.4c-0.8-0.7-4.7-8.2,0-8.2C1564.8,1362.2,1560.1,1370.4,1560.1,1370.4z"/>
		<path class="st5" d="M1558.6,1371.1c-1.1,0-9.4-2.6-6-5.8C1555.9,1362.1,1558.6,1371.1,1558.6,1371.1z"/>
		<path class="st5" d="M1561.6,1371c0-1.1,2.7-9,6-5.8C1570.9,1368.4,1561.6,1371,1561.6,1371z"/>
	</g>
</g>
<g>
	<rect x="1599.8" y="1353.6" class="st0" width="37.8" height="37.8"/>
	<g>
		<ellipse class="st43" cx="1618.7" cy="1372.3" rx="2.3" ry="2.1"/>
		<path class="st5" d="M1616.5,1372.2c-0.8,0.8-8.5,4.5-8.5,0C1607.9,1367.7,1616.5,1372.2,1616.5,1372.2z"/>
		<path class="st5" d="M1616.9,1373.6c0,1.1-2.7,9-6,5.8C1607.6,1376.2,1616.9,1373.6,1616.9,1373.6z"/>
		<path class="st5" d="M1618.6,1374.8c0.8,0.7,4.7,8.2,0,8.2C1613.9,1383,1618.6,1374.8,1618.6,1374.8z"/>
		<path class="st5" d="M1620.2,1373.9c1.1,0,9.4,2.6,6,5.8C1622.9,1382.9,1620.2,1373.9,1620.2,1373.9z"/>
		<path class="st5" d="M1621,1372.4c0.8-0.8,8.5-4.5,8.5,0C1629.5,1376.9,1621,1372.4,1621,1372.4z"/>
		<path class="st5" d="M1618.7,1370.2c-0.8-0.7-4.7-8.2,0-8.2C1623.4,1362,1618.7,1370.2,1618.7,1370.2z"/>
		<path class="st5" d="M1617.2,1370.8c-1.1,0-9.4-2.6-6-5.8C1614.5,1361.8,1617.2,1370.8,1617.2,1370.8z"/>
		<path class="st5" d="M1620.2,1370.8c0-1.1,2.7-9,6-5.8C1629.5,1368.1,1620.2,1370.8,1620.2,1370.8z"/>
	</g>
</g>
<g>
	<rect x="1661.1" y="1353.6" class="st0" width="37.8" height="37.8"/>
	<g>
		<ellipse class="st43" cx="1680" cy="1372.3" rx="2.3" ry="2.1"/>
		<path class="st5" d="M1677.8,1372.1c-0.8,0.8-8.5,4.5-8.5,0S1677.8,1372.1,1677.8,1372.1z"/>
		<path class="st5" d="M1678.2,1373.6c0,1.1-2.7,9-6,5.8C1668.9,1376.2,1678.2,1373.6,1678.2,1373.6z"/>
		<path class="st5" d="M1679.9,1374.7c0.8,0.7,4.7,8.2,0,8.2C1675.2,1382.9,1679.9,1374.7,1679.9,1374.7z"/>
		<path class="st5" d="M1681.5,1373.8c1.1,0,9.4,2.6,6,5.8C1684.2,1382.8,1681.5,1373.8,1681.5,1373.8z"/>
		<path class="st5" d="M1682.3,1372.3c0.8-0.8,8.5-4.5,8.5,0S1682.3,1372.3,1682.3,1372.3z"/>
		<path class="st5" d="M1680,1370.2c-0.8-0.7-4.7-8.2,0-8.2C1684.7,1362,1680,1370.2,1680,1370.2z"/>
		<path class="st5" d="M1678.5,1370.8c-1.1,0-9.4-2.6-6-5.8C1675.8,1361.8,1678.5,1370.8,1678.5,1370.8z"/>
		<path class="st5" d="M1681.5,1370.7c0-1.1,2.7-9,6-5.8C1690.8,1368.1,1681.5,1370.7,1681.5,1370.7z"/>
	</g>
</g>
<g>
	<rect x="1722.9" y="1353.9" class="st0" width="37.8" height="37.8"/>
	<g>
		<ellipse class="st43" cx="1741.7" cy="1372.6" rx="2.3" ry="2.1"/>
		<path class="st5" d="M1739.5,1372.5c-0.8,0.8-8.5,4.5-8.5,0C1731,1368,1739.5,1372.5,1739.5,1372.5z"/>
		<path class="st5" d="M1740,1373.9c0,1.1-2.7,9-6,5.8C1730.6,1376.5,1740,1373.9,1740,1373.9z"/>
		<path class="st5" d="M1741.7,1375.1c0.8,0.7,4.7,8.2,0,8.2C1736.9,1383.3,1741.7,1375.1,1741.7,1375.1z"/>
		<path class="st5" d="M1743.3,1374.2c1.1,0,9.4,2.6,6,5.8C1746,1383.2,1743.3,1374.2,1743.3,1374.2z"/>
		<path class="st5" d="M1744,1372.7c0.8-0.8,8.5-4.5,8.5,0C1752.6,1377.2,1744,1372.7,1744,1372.7z"/>
		<path class="st5" d="M1741.8,1370.5c-0.8-0.7-4.7-8.2,0-8.2C1746.5,1362.3,1741.8,1370.5,1741.8,1370.5z"/>
		<path class="st5" d="M1740.3,1371.1c-1.1,0-9.4-2.6-6-5.8C1737.5,1362.1,1740.3,1371.1,1740.3,1371.1z"/>
		<path class="st5" d="M1743.2,1371.1c0-1.1,2.7-9,6-5.8C1752.6,1368.4,1743.2,1371.1,1743.2,1371.1z"/>
	</g>
</g>
<g>
	<rect x="1781.5" y="1353.7" class="st0" width="37.8" height="37.8"/>
	<g>
		<ellipse class="st43" cx="1800.3" cy="1372.4" rx="2.3" ry="2.1"/>
		<path class="st5" d="M1798.1,1372.2c-0.8,0.8-8.5,4.5-8.5,0C1789.6,1367.7,1798.1,1372.2,1798.1,1372.2z"/>
		<path class="st5" d="M1798.6,1373.7c0,1.1-2.7,9-6,5.8C1789.2,1376.3,1798.6,1373.7,1798.6,1373.7z"/>
		<path class="st5" d="M1800.2,1374.8c0.8,0.7,4.7,8.2,0,8.2C1795.5,1383,1800.2,1374.8,1800.2,1374.8z"/>
		<path class="st5" d="M1801.9,1373.9c1.1,0,9.4,2.6,6,5.8C1804.6,1382.9,1801.9,1373.9,1801.9,1373.9z"/>
		<path class="st5" d="M1802.6,1372.4c0.8-0.8,8.5-4.5,8.5,0C1811.2,1376.9,1802.6,1372.4,1802.6,1372.4z"/>
		<path class="st5" d="M1800.4,1370.3c-0.8-0.7-4.7-8.2,0-8.2C1805.1,1362.1,1800.4,1370.3,1800.4,1370.3z"/>
		<path class="st5" d="M1798.9,1370.9c-1.1,0-9.4-2.6-6-5.8C1796.1,1361.9,1798.9,1370.9,1798.9,1370.9z"/>
		<path class="st5" d="M1801.8,1370.8c0-1.1,2.7-9,6-5.8C1811.2,1368.2,1801.8,1370.8,1801.8,1370.8z"/>
	</g>
</g>
<g>
	<rect x="1843.4" y="1354.1" class="st0" width="37.8" height="37.8"/>
	<g>
		<ellipse class="st43" cx="1862.3" cy="1372.8" rx="2.3" ry="2.1"/>
		<path class="st5" d="M1860.1,1372.7c-0.8,0.8-8.5,4.5-8.5,0C1851.5,1368.2,1860.1,1372.7,1860.1,1372.7z"/>
		<path class="st5" d="M1860.5,1374.1c0,1.1-2.7,9-6,5.8C1851.2,1376.7,1860.5,1374.1,1860.5,1374.1z"/>
		<path class="st5" d="M1862.2,1375.3c0.8,0.7,4.7,8.2,0,8.2C1857.5,1383.5,1862.2,1375.3,1862.2,1375.3z"/>
		<path class="st5" d="M1863.8,1374.4c1.1,0,9.4,2.6,6,5.8C1866.5,1383.4,1863.8,1374.4,1863.8,1374.4z"/>
		<path class="st5" d="M1864.6,1372.9c0.8-0.8,8.5-4.5,8.5,0C1873.1,1377.4,1864.6,1372.9,1864.6,1372.9z"/>
		<path class="st5" d="M1862.3,1370.7c-0.8-0.7-4.7-8.2,0-8.2C1867,1362.5,1862.3,1370.7,1862.3,1370.7z"/>
		<path class="st5" d="M1860.8,1371.3c-1.1,0-9.4-2.6-6-5.8C1858.1,1362.4,1860.8,1371.3,1860.8,1371.3z"/>
		<path class="st5" d="M1863.8,1371.3c0-1.1,2.7-9,6-5.8C1873.1,1368.7,1863.8,1371.3,1863.8,1371.3z"/>
	</g>
</g>
<g>
	<rect x="1902" y="1353.9" class="st0" width="37.8" height="37.8"/>
	<g>
		<ellipse class="st43" cx="1920.9" cy="1372.6" rx="2.3" ry="2.1"/>
		<path class="st5" d="M1918.7,1372.5c-0.8,0.8-8.5,4.5-8.5,0C1910.1,1367.9,1918.7,1372.5,1918.7,1372.5z"/>
		<path class="st5" d="M1919.1,1373.9c0,1.1-2.7,9-6,5.8C1909.8,1376.5,1919.1,1373.9,1919.1,1373.9z"/>
		<path class="st5" d="M1920.8,1375.1c0.8,0.7,4.7,8.2,0,8.2C1916.1,1383.3,1920.8,1375.1,1920.8,1375.1z"/>
		<path class="st5" d="M1920.9,1370.5c-0.8-0.7-4.7-8.2,0-8.2C1925.6,1362.3,1920.9,1370.5,1920.9,1370.5z"/>
		<path class="st5" d="M1919.4,1371.1c-1.1,0-9.4-2.6-6-5.8C1916.7,1362.1,1919.4,1371.1,1919.4,1371.1z"/>
	</g>
</g>
<g>
	<rect x="62.2" y="1353.4" class="st0" width="37.8" height="37.8"/>
	<g>
		<ellipse class="st43" cx="81.1" cy="1372.1" rx="2.3" ry="2.1"/>
		<path class="st5" d="M78.9,1372c-0.8,0.8-8.5,4.5-8.5,0C70.3,1367.5,78.9,1372,78.9,1372z"/>
		<path class="st5" d="M79.4,1373.5c0,1.1-2.7,9-6,5.8C70,1376.1,79.4,1373.5,79.4,1373.5z"/>
		<path class="st5" d="M81,1374.6c0.8,0.7,4.7,8.2,0,8.2S81,1374.6,81,1374.6z"/>
		<path class="st5" d="M82.6,1373.7c1.1,0,9.4,2.6,6,5.8C85.3,1382.7,82.6,1373.7,82.6,1373.7z"/>
		<path class="st5" d="M83.4,1372.2c0.8-0.8,8.5-4.5,8.5,0C91.9,1376.7,83.4,1372.2,83.4,1372.2z"/>
		<path class="st5" d="M81.1,1370c-0.8-0.7-4.7-8.2,0-8.2S81.1,1370,81.1,1370z"/>
		<path class="st5" d="M79.6,1370.7c-1.1,0-9.4-2.6-6-5.8C76.9,1361.7,79.6,1370.7,79.6,1370.7z"/>
		<path class="st5" d="M82.6,1370.6c0-1.1,2.7-9,6-5.8C91.9,1368,82.6,1370.6,82.6,1370.6z"/>
	</g>
</g>
<g>
	<rect x="124" y="1353.8" class="st0" width="37.8" height="37.8"/>
	<g>
		<ellipse class="st43" cx="142.9" cy="1372.5" rx="2.3" ry="2.1"/>
		<path class="st5" d="M140.6,1372.3c-0.8,0.8-8.5,4.5-8.5,0C132.1,1367.8,140.6,1372.3,140.6,1372.3z"/>
		<path class="st5" d="M141.1,1373.8c0,1.1-2.7,9-6,5.8C131.8,1376.4,141.1,1373.8,141.1,1373.8z"/>
		<path class="st5" d="M142.8,1375c0.8,0.7,4.7,8.2,0,8.2C138.1,1383.1,142.8,1375,142.8,1375z"/>
		<path class="st5" d="M144.4,1374c1.1,0,9.4,2.6,6,5.8C147.1,1383,144.4,1374,144.4,1374z"/>
		<path class="st5" d="M145.1,1372.5c0.8-0.8,8.5-4.5,8.5,0C153.7,1377,145.1,1372.5,145.1,1372.5z"/>
		<path class="st5" d="M142.9,1370.4c-0.8-0.7-4.7-8.2,0-8.2S142.9,1370.4,142.9,1370.4z"/>
		<path class="st5" d="M141.4,1371c-1.1,0-9.4-2.6-6-5.8C138.7,1362,141.4,1371,141.4,1371z"/>
		<path class="st5" d="M144.3,1370.9c0-1.1,2.7-9,6-5.8C153.7,1368.3,144.3,1370.9,144.3,1370.9z"/>
	</g>
</g>
<g>
	<rect x="182.6" y="1353.6" class="st0" width="37.8" height="37.8"/>
	<g>
		<ellipse class="st43" cx="201.5" cy="1372.3" rx="2.3" ry="2.1"/>
		<path class="st5" d="M199.2,1372.1c-0.8,0.8-8.5,4.5-8.5,0S199.2,1372.1,199.2,1372.1z"/>
		<path class="st5" d="M199.7,1373.6c0,1.1-2.7,9-6,5.8C190.4,1376.2,199.7,1373.6,199.7,1373.6z"/>
		<path class="st5" d="M201.4,1374.7c0.8,0.7,4.7,8.2,0,8.2S201.4,1374.7,201.4,1374.7z"/>
		<path class="st5" d="M203,1373.8c1.1,0,9.4,2.6,6,5.8C205.7,1382.8,203,1373.8,203,1373.8z"/>
		<path class="st5" d="M203.7,1372.3c0.8-0.8,8.5-4.5,8.5,0S203.7,1372.3,203.7,1372.3z"/>
		<path class="st5" d="M201.5,1370.1c-0.8-0.7-4.7-8.2,0-8.2S201.5,1370.1,201.5,1370.1z"/>
		<path class="st5" d="M200,1370.8c-1.1,0-9.4-2.6-6-5.8C197.3,1361.8,200,1370.8,200,1370.8z"/>
		<path class="st5" d="M202.9,1370.7c0-1.1,2.7-9,6-5.8C212.3,1368.1,202.9,1370.7,202.9,1370.7z"/>
	</g>
</g>
<g>
	<rect x="244.5" y="1354" class="st0" width="37.8" height="37.8"/>
	<g>
		<ellipse class="st43" cx="263.4" cy="1372.7" rx="2.3" ry="2.1"/>
		<path class="st5" d="M261.2,1372.6c-0.8,0.8-8.5,4.5-8.5,0S261.2,1372.6,261.2,1372.6z"/>
		<path class="st5" d="M261.7,1374c0,1.1-2.7,9-6,5.8C252.3,1376.6,261.7,1374,261.7,1374z"/>
		<path class="st5" d="M263.3,1375.2c0.8,0.7,4.7,8.2,0,8.2S263.3,1375.2,263.3,1375.2z"/>
		<path class="st5" d="M264.9,1374.3c1.1,0,9.4,2.6,6,5.8C267.6,1383.2,264.9,1374.3,264.9,1374.3z"/>
		<path class="st5" d="M265.7,1372.7c0.8-0.8,8.5-4.5,8.5,0S265.7,1372.7,265.7,1372.7z"/>
		<path class="st5" d="M263.4,1370.6c-0.8-0.7-4.7-8.2,0-8.2S263.4,1370.6,263.4,1370.6z"/>
		<path class="st5" d="M261.9,1371.2c-1.1,0-9.4-2.6-6-5.8C259.2,1362.2,261.9,1371.2,261.9,1371.2z"/>
		<path class="st5" d="M264.9,1371.1c0-1.1,2.7-9,6-5.8C274.2,1368.5,264.9,1371.1,264.9,1371.1z"/>
	</g>
</g>
<g>
	<rect x="303.1" y="1353.8" class="st0" width="37.8" height="37.8"/>
	<g>
		<ellipse class="st43" cx="322" cy="1372.5" rx="2.3" ry="2.1"/>
		<path class="st5" d="M319.8,1372.3c-0.8,0.8-8.5,4.5-8.5,0S319.8,1372.3,319.8,1372.3z"/>
		<path class="st5" d="M320.2,1373.8c0,1.1-2.7,9-6,5.8C310.9,1376.4,320.2,1373.8,320.2,1373.8z"/>
		<path class="st5" d="M321.9,1374.9c0.8,0.7,4.7,8.2,0,8.2S321.9,1374.9,321.9,1374.9z"/>
		<path class="st5" d="M323.5,1374c1.1,0,9.4,2.6,6,5.8C326.2,1383,323.5,1374,323.5,1374z"/>
		<path class="st5" d="M324.3,1372.5c0.8-0.8,8.5-4.5,8.5,0S324.3,1372.5,324.3,1372.5z"/>
		<path class="st5" d="M322,1370.4c-0.8-0.7-4.7-8.2,0-8.2S322,1370.4,322,1370.4z"/>
		<path class="st5" d="M320.5,1371c-1.1,0-9.4-2.6-6-5.8C317.8,1362,320.5,1371,320.5,1371z"/>
		<path class="st5" d="M323.5,1370.9c0-1.1,2.7-9,6-5.8C332.8,1368.3,323.5,1370.9,323.5,1370.9z"/>
	</g>
</g>
<g>
	<rect x="6.2" y="1353.7" class="st0" width="37.8" height="37.8"/>
	<g>
		<ellipse class="st43" cx="25.1" cy="1372.4" rx="2.3" ry="2.1"/>
		<path class="st5" d="M22.8,1372.2c-0.8,0.8-8.5,4.5-8.5,0S22.8,1372.2,22.8,1372.2z"/>
		<path class="st5" d="M23.3,1373.7c0,1.1-2.7,9-6,5.8C13.9,1376.3,23.3,1373.7,23.3,1373.7z"/>
		<path class="st5" d="M25,1374.8c0.8,0.7,4.7,8.2,0,8.2S25,1374.8,25,1374.8z"/>
		<path class="st5" d="M26.6,1373.9c1.1,0,9.4,2.6,6,5.8C29.3,1382.9,26.6,1373.9,26.6,1373.9z"/>
		<path class="st5" d="M27.3,1372.4c0.8-0.8,8.5-4.5,8.5,0S27.3,1372.4,27.3,1372.4z"/>
		<path class="st5" d="M25.1,1370.2c-0.8-0.7-4.7-8.2,0-8.2S25.1,1370.2,25.1,1370.2z"/>
		<path class="st5" d="M23.6,1370.9c-1.1,0-9.4-2.6-6-5.8C20.8,1361.9,23.6,1370.9,23.6,1370.9z"/>
		<path class="st5" d="M26.5,1370.8c0-1.1,2.7-9,6-5.8C35.9,1368.2,26.5,1370.8,26.5,1370.8z"/>
	</g>
</g>
</svg>
