<?xml version="1.0" encoding="utf-8"?>
<!-- Generator: Adobe Illustrator 17.1.0, SVG Export Plug-In . SVG Version: 6.00 Build 0)  -->
<!DOCTYPE svg PUBLIC "-//W3C//DTD SVG 1.1//EN" "http://www.w3.org/Graphics/SVG/1.1/DTD/svg11.dtd">
<svg version="1.1" id="Layer_1" xmlns="http://www.w3.org/2000/svg" xmlns:xlink="http://www.w3.org/1999/xlink" x="0px" y="0px"
	 viewBox="0 0 323 351" style="enable-background:new 0 0 323 351;" xml:space="preserve">
<style type="text/css">
	.st0{fill:#B93628;}
	.st1{fill:#EF4137;}
	.st2{fill:#FCB038;}
	.st3{clip-path:url(#SVGID_2_);fill:#FCB038;}
</style>
<g>
	<path class="st0" d="M232.2,157.9c26,0,73.8,21.1,72.4,87.8H273c0,0,4.1-50.5-40.8-50.1V157.9z"/>
	<path class="st0" d="M89.9,157.9c-26,0-73.8,21.1-72.4,87.8h31.7c0,0-4.1-50.5,40.8-50.1V157.9z"/>
	<rect x="136" y="141.8" class="st0" width="43.6" height="28.7"/>
	<ellipse class="st1" cx="158.4" cy="97.8" rx="66.7" ry="56.3"/>
	<path class="st1" d="M233.8,267.6H85c-8.8,0-15.9-6.8-15.9-15.2v-79.3c0-8.4,7.1-15.2,15.9-15.2h148.8c8.8,0,15.9,6.8,15.9,15.2
		v79.3C249.7,260.8,242.6,267.6,233.8,267.6z"/>
	<ellipse class="st0" cx="131.4" cy="93.4" rx="14.5" ry="13.9"/>
	<ellipse class="st0" cx="184.1" cy="93.4" rx="14.5" ry="13.9"/>
	<polygon class="st0" points="203.6,219.3 155.8,257.6 83.1,257.6 83.1,166.6 235.1,166.6 235.1,219.3 	"/>
	<ellipse class="st0" cx="226.3" cy="245.7" rx="12.5" ry="11.9"/>
	<ellipse class="st0" cx="197.8" cy="245.7" rx="12.5" ry="11.9"/>
	<polygon class="st0" points="157.9,309.3 116.4,267.6 198.1,267.6 	"/>
	<polygon class="st1" points="157.9,309.3 157.9,267.6 198.1,267.6 	"/>
	<rect x="136" y="166.6" class="st1" width="43.6" height="29"/>
	<rect x="143.8" y="195.6" class="st2" width="28" height="14.9"/>
	<rect x="150.6" y="210.5" class="st1" width="14.4" height="11.6"/>
	<rect x="119" y="166.6" class="st1" width="4.7" height="91"/>
	<rect x="195.8" y="166.6" class="st1" width="3.5" height="60.2"/>
	<polygon class="st2" points="152.1,222 157.8,231.6 161.1,222 	"/>
	<polyline class="st2" points="91.2,257.6 83.1,257.6 83.1,166.6 91.2,166.6 	"/>
	<rect x="83.1" y="174.9" class="st2" width="152" height="3.1"/>
	<rect x="83.4" y="179.5" class="st2" width="152" height="3.1"/>
	<g>
		<ellipse class="st2" cx="197.7" cy="245.5" rx="2.5" ry="2.3"/>
		<path class="st1" d="M195.3,245.3c-0.8,0.8-9.4,4.9-9.4,0C185.9,240.4,195.3,245.3,195.3,245.3z"/>
		<path class="st1" d="M195.8,246.9c0,1.2-3,9.9-6.6,6.4C185.6,249.8,195.8,246.9,195.8,246.9z"/>
		<path class="st1" d="M197.6,248.2c0.9,0.8,5.2,9,0,9C192.5,257.2,197.6,248.2,197.6,248.2z"/>
		<path class="st1" d="M199.4,247.2c1.2,0,10.3,2.9,6.6,6.4C202.4,257,199.4,247.2,199.4,247.2z"/>
		<path class="st1" d="M200.2,245.5c0.8-0.8,9.4-4.9,9.4,0C209.6,250.5,200.2,245.5,200.2,245.5z"/>
		<path class="st1" d="M197.8,243.2c-0.9-0.8-5.2-9,0-9S197.8,243.2,197.8,243.2z"/>
		<path class="st1" d="M196.1,243.8c-1.2,0-10.3-2.9-6.6-6.4C193.1,234,196.1,243.8,196.1,243.8z"/>
		<path class="st1" d="M199.4,243.8c0-1.2,3-9.9,6.6-6.4C209.6,240.9,199.4,243.8,199.4,243.8z"/>
	</g>
	<g>
		<defs>
			<ellipse id="SVGID_1_" cx="226.3" cy="245.7" rx="7.4" ry="7.1"/>
		</defs>
		<use xlink:href="#SVGID_1_"  style="overflow:visible;fill:#EF4137;"/>
		<clipPath id="SVGID_2_">
			<use xlink:href="#SVGID_1_"  style="overflow:visible;"/>
		</clipPath>
		<path class="st3" d="M221.3,240.5c0,0-0.1,9,0.3,9c0.3,0-0.1-9.2,0.2-9.2c7.3-0.1,0.3,10.2,0.4,10.2c0.1,0,1.6-2.7,4.1-0.2
			c2.5,2.5,6.2-0.8,5.9-6s0,3.1-0.9,3.2c-0.9,0.1,0.2,0.4,0.1-3.2s1.4-7.2-2.1-7.6c-3.5-0.3-8.1,2.6-8.1,2.6L221.3,240.5z"/>
	</g>
	<polygon class="st0" points="157.9,309.3 169.1,288.5 148,288.5 	"/>
	<path class="st2" d="M214.9,71.6c-8,6.7-20.4,1.7-30.8,1.7s-22.6,6-21.3,20.1c1.3,14.2,2.1-11.4,32.7-10.9
		C226.1,83,214.9,71.6,214.9,71.6z"/>
	<path class="st2" d="M100.8,71.6c8,6.7,20.4,1.7,30.8,1.7c10.4,0,22.6,6,21.3,20.1c-1.3,14.2-2.1-11.4-32.7-10.9
		C89.7,83,100.8,71.6,100.8,71.6z"/>
	<polygon class="st0" points="142,137.6 158.4,110.4 174.8,137.6 	"/>
	<polygon class="st1" points="17.5,245.7 6.8,257.2 31.4,275.8 57.8,254.3 49.2,245.7 	"/>
	<polygon class="st1" points="304.7,245.7 315.3,257.2 291,275.8 264.3,254.3 273,245.7 	"/>
	<polygon class="st1" points="134.6,343.5 58.9,343.5 63.5,324.6 116.4,324.6 	"/>
	<polygon class="st1" points="255.5,343.5 179.7,343.5 198.2,324.6 251,324.6 	"/>
	<path class="st0" d="M116.4,267.6c-47.3,0-52.8,23.8-52.8,57.1h52.8c0,0-11.6-18.6,20.2-36.8L116.4,267.6z"/>
	<path class="st0" d="M197.9,267.6c47.3,0,52.8,23.8,52.8,57.1h-52.8c0,0,11.9-18-19.9-36.2L197.9,267.6z"/>
	<polygon class="st1" points="157.8,231.6 157.2,220.5 163.6,222 	"/>
	<polygon class="st2" points="148,239.1 154.1,233 161.9,235.7 163.3,241.5 158.8,243.1 152.3,248.4 	"/>
	<polygon class="st1" points="161.9,247.7 152.3,248.4 158.8,243.1 168.5,242 	"/>
	<polygon class="st0" points="154.1,233 158.8,243.1 166.9,242.2 162.6,232.8 	"/>
	<ellipse class="st2" cx="180.7" cy="171" rx="4.6" ry="4.4"/>
	<ellipse class="st2" cx="135.8" cy="170.9" rx="4.5" ry="4.4"/>
	<polygon class="st0" points="158.4,41.5 153.1,35.9 165,22.4 156.4,36.1 	"/>
	<ellipse class="st0" cx="163.2" cy="16.4" rx="12.4" ry="11.9"/>
	<ellipse class="st1" cx="164.8" cy="19.2" rx="7" ry="6.7"/>
	<polygon class="st0" points="151,14.2 131.4,19.2 153.1,22.4 	"/>
	<polygon class="st0" points="175.3,14.2 194.9,19.2 173.2,22.4 	"/>
</g>
</svg>
