<?xml version="1.0" encoding="utf-8"?>
<!-- Generator: Adobe Illustrator 17.1.0, SVG Export Plug-In . SVG Version: 6.00 Build 0)  -->
<!DOCTYPE svg PUBLIC "-//W3C//DTD SVG 1.1//EN" "http://www.w3.org/Graphics/SVG/1.1/DTD/svg11.dtd">
<svg version="1.1" id="Layer_1" xmlns="http://www.w3.org/2000/svg" xmlns:xlink="http://www.w3.org/1999/xlink" x="0px" y="0px"
	 viewBox="0 0 2153.9 475.9" style="enable-background:new 0 0 2153.9 475.9;" xml:space="preserve">
<style type="text/css">
	.st0{fill:#003949;}
	.st1{fill:#CE382E;}
	.st2{clip-path:url(#SVGID_2_);fill:#EF4137;}
	.st3{clip-path:url(#SVGID_2_);fill:#FCB038;}
	.st4{fill:#EF4137;}
	.st5{clip-path:url(#SVGID_4_);fill:#EF4137;}
	.st6{clip-path:url(#SVGID_4_);fill:#F9E600;}
	.st7{fill:#F9E700;}
	.st8{fill:#EA6D25;}
	.st9{fill:#FCB239;}
	.st10{fill:#FFD699;}
	.st11{fill:#9D1D20;}
	.st12{fill:#AC1F24;}
	.st13{clip-path:url(#SVGID_6_);fill:#AC1E23;}
	.st14{clip-path:url(#SVGID_6_);}
	.st15{clip-path:url(#SVGID_8_);fill:#EF4136;}
	.st16{clip-path:url(#SVGID_8_);fill:#00394B;}
	.st17{clip-path:url(#SVGID_6_);fill:#00394B;}
	.st18{opacity:0.48;clip-path:url(#SVGID_10_);}
	.st19{clip-path:url(#SVGID_12_);fill:#FCB136;}
	.st20{opacity:0.39;clip-path:url(#SVGID_10_);}
	.st21{clip-path:url(#SVGID_14_);fill:#FFD699;}
	.st22{fill:#ED9134;}
	.st23{fill:#C96028;}
	.st24{fill:#FFFFFF;}
	.st25{fill:#EF413E;}
	.st26{fill:#0E1629;}
	.st27{fill:none;stroke:url(#SVGID_15_);stroke-width:0.2004;stroke-miterlimit:10;}
	.st28{fill:none;stroke:url(#SVGID_16_);stroke-width:0.2004;stroke-miterlimit:10;}
	.st29{fill:none;stroke:url(#SVGID_17_);stroke-width:0.2004;stroke-miterlimit:10;}
	.st30{fill:#C52227;}
	.st31{fill:#EF4136;}
	.st32{fill:#BB3428;}
	.st33{clip-path:url(#SVGID_19_);fill:#BB3428;}
	.st34{clip-path:url(#SVGID_21_);fill:#FCB239;}
	.st35{clip-path:url(#SVGID_23_);fill:#FCB239;}
	.st36{clip-path:url(#SVGID_25_);fill:#D99A2F;}
	.st37{clip-path:url(#SVGID_27_);fill:#BB3428;}
	.st38{clip-path:url(#SVGID_29_);fill:#BB3428;}
	.st39{clip-path:url(#SVGID_31_);fill:#FCB239;}
	.st40{fill:none;stroke:url(#SVGID_32_);stroke-width:0.2004;stroke-miterlimit:10;}
	.st41{fill:none;stroke:#F9E700;stroke-width:0.9474;stroke-miterlimit:10;}
	.st42{clip-path:url(#SVGID_34_);fill:#BB3428;}
	.st43{clip-path:url(#SVGID_36_);fill:#FCB239;}
	.st44{clip-path:url(#SVGID_38_);fill:#FCB239;}
	.st45{clip-path:url(#SVGID_40_);fill:#D99A2F;}
	.st46{clip-path:url(#SVGID_42_);fill:#BB3428;}
	.st47{clip-path:url(#SVGID_44_);fill:#BB3428;}
	.st48{clip-path:url(#SVGID_46_);fill:#FCB239;}
	.st49{clip-path:url(#SVGID_48_);fill:#EF4137;}
	.st50{clip-path:url(#SVGID_48_);fill:#FCB038;}
	.st51{clip-path:url(#SVGID_50_);fill:#EF4137;}
	.st52{clip-path:url(#SVGID_50_);fill:#F9E600;}
	.st53{clip-path:url(#SVGID_52_);fill:#AC1E23;}
	.st54{clip-path:url(#SVGID_52_);}
	.st55{clip-path:url(#SVGID_54_);fill:#EF4136;}
	.st56{clip-path:url(#SVGID_54_);fill:#00394B;}
	.st57{clip-path:url(#SVGID_52_);fill:#00394B;}
	.st58{opacity:0.48;clip-path:url(#SVGID_56_);}
	.st59{clip-path:url(#SVGID_58_);fill:#FCB136;}
	.st60{opacity:0.39;clip-path:url(#SVGID_56_);}
	.st61{clip-path:url(#SVGID_60_);fill:#FFD699;}
	.st62{fill:none;stroke:url(#SVGID_61_);stroke-width:0.2004;stroke-miterlimit:10;}
	.st63{fill:none;stroke:url(#SVGID_62_);stroke-width:0.2004;stroke-miterlimit:10;}
	.st64{fill:none;stroke:url(#SVGID_63_);stroke-width:0.2004;stroke-miterlimit:10;}
	.st65{fill:none;stroke:url(#SVGID_64_);stroke-width:0.2004;stroke-miterlimit:10;}
</style>
<rect x="1461.1" y="155.6" class="st7" width="145.3" height="20.4"/>
<g>
	<rect x="1435" y="170.8" class="st8" width="195.2" height="169.7"/>
	<rect x="1445.4" y="183.3" class="st9" width="175.1" height="124.3"/>
	<ellipse class="st9" cx="1580" cy="323.3" rx="9.6" ry="9.2"/>
	<ellipse class="st9" cx="1608.2" cy="322.8" rx="9.6" ry="9.2"/>
	<polygon class="st10" points="1445.4,183.3 1445.4,228.6 1492.6,183.3 	"/>
</g>
<g>
	<rect x="1442.6" y="0" class="st11" width="187.6" height="163.1"/>
	<rect x="1452.3" y="10.9" class="st12" width="168.3" height="119.5"/>
	<ellipse class="st1" cx="1584.5" cy="147.1" rx="9.2" ry="8.9"/>
	<ellipse class="st1" cx="1611.5" cy="146.6" rx="9.2" ry="8.9"/>
	<polygon class="st1" points="1452.7,11.2 1452.7,54.7 1498.1,11.2 	"/>
</g>
<g>
	<defs>
		<rect id="SVGID_5_" x="1120" y="26.5" width="303.6" height="313.4"/>
	</defs>
	<clipPath id="SVGID_2_">
		<use xlink:href="#SVGID_5_"  style="overflow:visible;"/>
	</clipPath>
	<rect x="1135.3" y="236.3" style="clip-path:url(#SVGID_2_);fill:#AC1E23;" width="271" height="25.3"/>
	<g style="clip-path:url(#SVGID_2_);">
		<defs>
			<rect id="SVGID_7_" x="1120" y="26.5" width="303.6" height="313.4"/>
		</defs>
		<clipPath id="SVGID_4_">
			<use xlink:href="#SVGID_7_"  style="overflow:visible;"/>
		</clipPath>
		<path style="clip-path:url(#SVGID_4_);fill:#EF4136;" d="M1365.5,26.5h-187.2c-15.3,0-28.3,11-31,26l-26.7,151.3
			c-3.4,19.3,11.4,37,31,37h0.4h240h0.4c19.6,0,34.4-17.7,31-37l-26.7-151.3C1393.8,37.4,1380.7,26.5,1365.5,26.5"/>
		<path style="clip-path:url(#SVGID_4_);fill:#EF4136;" d="M1413.7,339.9H1130c-5.5,0-10-4.3-10-9.5v-68.2c0-5.3,4.5-9.5,10-9.5
			h283.6c5.5,0,10,4.3,10,9.5v68.2C1423.7,335.6,1419.2,339.9,1413.7,339.9"/>
		<path style="clip-path:url(#SVGID_4_);fill:#00394B;" d="M1168.1,224.1c0,5.7-4.6,10.4-10.4,10.4c-5.7,0-10.4-4.7-10.4-10.4
			s4.6-10.4,10.4-10.4C1163.5,213.7,1168.1,218.4,1168.1,224.1"/>
		<path style="clip-path:url(#SVGID_4_);fill:#00394B;" d="M1399,224.1c0,5.7-4.6,10.4-10.4,10.4c-5.7,0-10.4-4.7-10.4-10.4
			s4.6-10.4,10.4-10.4C1394.4,213.7,1399,218.4,1399,224.1"/>
	</g>
	<rect x="1314.6" y="268.9" style="clip-path:url(#SVGID_2_);fill:#00394B;" width="91.7" height="6.3"/>
	<rect x="1305.2" y="286" style="clip-path:url(#SVGID_2_);fill:#00394B;" width="101" height="4.1"/>
	<g style="clip-path:url(#SVGID_2_);">
		<defs>
			<rect id="SVGID_9_" x="1120" y="26.5" width="303.6" height="313.4"/>
		</defs>
		<clipPath id="SVGID_6_">
			<use xlink:href="#SVGID_9_"  style="overflow:visible;"/>
		</clipPath>
		<g style="opacity:0.48;clip-path:url(#SVGID_6_);">
			<g>
				<defs>
					<rect id="SVGID_11_" x="1158.6" y="34.3" width="226.5" height="181.4"/>
				</defs>
				<clipPath id="SVGID_8_">
					<use xlink:href="#SVGID_11_"  style="overflow:visible;"/>
				</clipPath>
				<rect x="1176.2" y="47.4" style="clip-path:url(#SVGID_8_);fill:#FCB136;" width="191.2" height="166.4"/>
			</g>
		</g>
		<g style="opacity:0.39;clip-path:url(#SVGID_6_);">
			<g>
				<defs>
					<rect id="SVGID_13_" x="1158.6" y="34.3" width="99.3" height="86.9"/>
				</defs>
				<clipPath id="SVGID_10_">
					<use xlink:href="#SVGID_13_"  style="overflow:visible;"/>
				</clipPath>
				<polygon style="clip-path:url(#SVGID_10_);fill:#FFD699;" points="1176.2,47.4 1176.2,47.4 1176.2,119.3 1240.3,47.7 				"/>
			</g>
		</g>
	</g>
</g>
<g>
	<path class="st8" d="M690.6,309.9H447c-12.2,0-22-10.6-22-23.7V60.5c0-13.1,9.9-23.7,22-23.7h243.6c12.2,0,22,10.6,22,23.7v225.7
		C712.7,299.3,702.8,309.9,690.6,309.9z"/>
	<rect x="447" y="309.9" class="st8" width="18.8" height="41.1"/>
	<rect x="668" y="308.6" class="st8" width="18.8" height="41.1"/>
	<rect x="439.6" y="56.9" class="st9" width="258.4" height="207.9"/>
</g>
<g>
	<path class="st9" d="M1417.5,310.2h-59.3c-3.7,0-6.7-3.2-6.7-7.1v-13.2c0-3.9,3-7.1,6.7-7.1h59.3c3.7,0,6.7,3.2,6.7,7.1V303
		C1424.2,307,1421.2,310.2,1417.5,310.2z"/>
	<path class="st12" d="M1455.7,361.8h-136.9c-15.4,0-27.9-12-27.9-26.8v-2.6c0-14.8,12.5-26.8,27.9-26.8h136.9
		c15.4,0,27.9,12,27.9,26.8v2.6C1483.7,349.8,1471.2,361.8,1455.7,361.8z"/>
	<ellipse class="st1" cx="1323.8" cy="334.5" rx="9.2" ry="8.9"/>
	<ellipse class="st1" cx="1351.5" cy="334.5" rx="9.2" ry="8.9"/>
	<ellipse class="st1" cx="1425.1" cy="334.5" rx="9.2" ry="8.9"/>
	<ellipse class="st1" cx="1452.8" cy="334.5" rx="9.2" ry="8.9"/>
</g>
<g>
	<path class="st22" d="M717.2,356.3H529.3c-19.5,0-35.4-9.7-35.4-21.7v-11.1c0-12,15.8-21.7,35.4-21.7h187.9
		c19.5,0,35.4,9.7,35.4,21.7v11.1C752.6,346.6,736.7,356.3,717.2,356.3z"/>
	<g>
		<path class="st22" d="M692.2,353.8H554.9c-15.9,0-28.7-12.8-28.7-28.5v-154c0-15.8,12.8-28.5,28.7-28.5h137.3
			c15.9,0,28.7,12.8,28.7,28.5v154C720.9,341.1,708,353.8,692.2,353.8z"/>
		<path class="st8" d="M653.8,282.7h-92.6c-10.7,0-19.3-7.5-19.3-16.7v-90.1c0-9.2,8.7-16.7,19.3-16.7h92.6
			c10.7,0,19.3,7.5,19.3,16.7V266C673.2,275.2,664.5,282.7,653.8,282.7z"/>
		<rect x="526.2" y="312.3" class="st4" width="101.1" height="4.5"/>
		<rect x="526.3" y="325.5" class="st4" width="101.1" height="4.5"/>
		<ellipse class="st9" cx="697.1" cy="197.1" rx="14.5" ry="13.9"/>
		<ellipse class="st4" cx="697.1" cy="233.3" rx="14.5" ry="13.9"/>
		<rect x="526.3" y="337.8" class="st4" width="101.1" height="4.5"/>
		<rect x="644.2" y="314.5" class="st7" width="79.7" height="12.9"/>
	</g>
</g>
<g>
	<g>
		<rect x="888.1" y="50" class="st12" width="284.1" height="251.8"/>
		<rect x="746" y="41.5" class="st12" width="127.1" height="317.9"/>
		<rect x="1014.2" y="301.8" class="st12" width="28.3" height="57.7"/>
		<rect x="941.7" y="344.1" class="st12" width="175.1" height="15.4"/>
		<rect x="899.7" y="61.2" class="st11" width="262.2" height="199.8"/>
	</g>
	<rect x="757.1" y="61.2" class="st4" width="93.1" height="5.9"/>
	<rect x="757.1" y="76.8" class="st4" width="93.1" height="5.9"/>
	<rect x="757.1" y="100.3" class="st1" width="46.1" height="122.2"/>
	<polygon class="st1" points="899.7,121 969.3,61.4 899.7,61.2 	"/>
	<rect x="757.1" y="237.7" class="st4" width="111" height="7.1"/>
</g>
<g>
	<path class="st8" d="M1133.4,353.7h-31.7V297h36.7v51.7C1138.4,351.5,1136.2,353.7,1133.4,353.7z"/>
	<rect x="1104.4" y="300.2" class="st12" width="29.8" height="24.5"/>
	<rect x="1108.1" y="302.7" class="st9" width="22.5" height="19.5"/>
	<circle class="st1" cx="1131.7" cy="335.8" r="2.5"/>
	<circle class="st1" cx="1126.6" cy="340.5" r="2.5"/>
	<polygon class="st1" points="1113.6,336.2 1113.6,332.3 1110,332.3 1110,336.2 1106.1,336.2 1106.1,339.7 1110,339.7 1110,343.6 
		1113.5,343.6 1113.5,339.7 1117.4,339.7 1117.4,336.2 	"/>
</g>
<g>
	<path class="st8" d="M856.1,369.3h-40.8c-15.2,0-27.5-11.8-27.5-26.3v-38.7c0-14.5,12.3-26.3,27.5-26.3h40.8
		c15.2,0,27.5,11.8,27.5,26.3V343C883.6,357.5,871.3,369.3,856.1,369.3z"/>
	<ellipse class="st8" cx="834.9" cy="245.8" rx="29.2" ry="28"/>
	<ellipse class="st23" cx="834.7" cy="248" rx="16.3" ry="15.6"/>
	<ellipse class="st12" cx="836.3" cy="332.1" rx="29.2" ry="28"/>
	<ellipse class="st8" cx="836.3" cy="333.5" rx="24.3" ry="23.3"/>
	<rect x="848.1" y="287.8" class="st12" width="17.4" height="6.7"/>
	<rect x="831.6" y="267" class="st8" width="6.6" height="18.1"/>
	<ellipse class="st23" cx="836.3" cy="333.5" rx="13.1" ry="12.5"/>
	<path class="st22" d="M845.6,236.5l-18.8,25.1c2.3,1.2,5,2,7.9,2c9,0,16.3-7,16.3-15.6C850.9,243.5,848.9,239.4,845.6,236.5z"/>
	<path class="st22" d="M849.4,333.5c0-3.8-1.8-7.2-4.5-9.5L830,344.4c1.9,1,4,1.6,6.4,1.6C843.5,346,849.4,340.4,849.4,333.5z"/>
	<polygon class="st1" points="865.5,287.8 854.7,294.6 865.5,294.6 	"/>
</g>
<g>
	<polygon class="st9" points="1018.4,378.9 1064.8,330.7 1216.1,341.4 1176.8,393.3 	"/>
	<polygon class="st22" points="1066.3,335.4 1136.8,339.9 1103.7,379.2 1032.6,371.8 	"/>
	<polygon class="st22" points="1142.3,340.1 1194.2,344.6 1165.8,383.4 1112.4,378.3 	"/>
	<polygon class="st22" points="1216.1,375 1216.1,341.4 1176.8,393.3 	"/>
</g>
<g>
	<path class="st24" d="M1305.2,363.4v-36.9h-34.5v36.9c0,0,8.2,3.7,17.3,3.7C1297.8,367,1305.2,363.4,1305.2,363.4z"/>
	<path class="st25" d="M1270.7,326.4v19.3c0,0,13.1,7.2,34.5,0v-19.3H1270.7z"/>
	<ellipse class="st1" cx="1288" cy="326.4" rx="17.3" ry="2.6"/>
	<ellipse class="st7" cx="1288" cy="348.9" rx="4.7" ry="4.5"/>
</g>
<g>
	<path class="st24" d="M1350.3,377.1v-36.9h-34.5v36.9c0,0,8.2,3.7,17.3,3.7C1342.9,380.7,1350.3,377.1,1350.3,377.1z"/>
	<path class="st25" d="M1315.8,340.2v19.3c0,0,13.1,7.2,34.5,0v-19.3H1315.8z"/>
	<ellipse class="st1" cx="1333" cy="340.2" rx="17.3" ry="2.6"/>
	<ellipse class="st7" cx="1333" cy="362.7" rx="4.7" ry="4.5"/>
</g>
<g>
	<path class="st0" d="M983.6,338.7h-27.8l-1.9,2.5v26c0,0.6,0.5,1,1.1,1h28.7c0.6,0,1.1-0.5,1.1-1v-27.5
		C984.7,339.1,984.2,338.7,983.6,338.7z"/>
	<path class="st22" d="M976.7,368.2h-14.9v-7.3c0-0.6,0.5-1.1,1.1-1.1h12.6c0.6,0,1.1,0.5,1.1,1.1V368.2z"/>
	<ellipse class="st4" cx="969.3" cy="353.4" rx="3.7" ry="3.5"/>
	<path class="st0" d="M974.7,366.9h-1.6c-0.4,0-0.7-0.3-0.7-0.7v-4.8c0-0.4,0.3-0.7,0.7-0.7h1.6c0.4,0,0.7,0.3,0.7,0.7v4.8
		C975.4,366.6,975.1,366.9,974.7,366.9z"/>
	<ellipse class="st26" cx="982.9" cy="364.7" rx="0.9" ry="0.9"/>
	<linearGradient id="SVGID_12_" gradientUnits="userSpaceOnUse" x1="958.0886" y1="341.2642" x2="979.713" y2="341.2642">
		<stop  offset="0" style="stop-color:#FAB01A"/>
		<stop  offset="1" style="stop-color:#003D55"/>
	</linearGradient>
	<polyline style="fill:none;stroke:url(#SVGID_12_);stroke-width:0.2004;stroke-miterlimit:10;" points="958.2,338.7 958.2,343.8 
		979.6,343.8 979.6,338.7 	"/>
</g>
<g>
	<path class="st0" d="M1028.5,338.7h-27.8l-1.9,2.5v26c0,0.6,0.5,1,1.1,1h28.7c0.6,0,1.1-0.5,1.1-1v-27.5
		C1029.6,339.1,1029.1,338.7,1028.5,338.7z"/>
	<path class="st22" d="M1021.7,368.2h-14.9v-7.3c0-0.6,0.5-1.1,1.1-1.1h12.6c0.6,0,1.1,0.5,1.1,1.1V368.2z"/>
	<ellipse class="st4" cx="1014.2" cy="353.4" rx="3.7" ry="3.5"/>
	<path class="st0" d="M1019.6,366.9h-1.6c-0.4,0-0.7-0.3-0.7-0.7v-4.8c0-0.4,0.3-0.7,0.7-0.7h1.6c0.4,0,0.7,0.3,0.7,0.7v4.8
		C1020.3,366.6,1020,366.9,1019.6,366.9z"/>
	<ellipse class="st26" cx="1027.8" cy="364.7" rx="0.9" ry="0.9"/>
	<linearGradient id="SVGID_14_" gradientUnits="userSpaceOnUse" x1="1002.9984" y1="341.2642" x2="1024.6227" y2="341.2642">
		<stop  offset="0" style="stop-color:#FAB01A"/>
		<stop  offset="1" style="stop-color:#003D55"/>
	</linearGradient>
	<polyline style="fill:none;stroke:url(#SVGID_14_);stroke-width:0.2004;stroke-miterlimit:10;" points="1003.1,338.7 1003.1,343.8 
		1024.5,343.8 1024.5,338.7 	"/>
</g>
<polygon class="st4" points="1379.2,364.3 1379.2,392.4 1429.2,392.4 1429.2,407.5 1255.2,407.5 1255.2,477.3 1259.8,477.3 
	1259.8,411 1434.2,410.8 1434.2,389.4 1384.4,389.2 1384.5,363.4 "/>
<polygon class="st9" points="1401.4,361.2 1401.3,385.3 1450.3,385.3 1450.3,412.7 1275.4,412.7 1275.4,477.3 1271.3,477.3 
	1271.3,410.1 1445.8,409.9 1445.8,388.2 1396.1,388 1396.2,361.9 "/>
<polygon class="st12" points="1427.6,359.5 1427.6,391.4 1497.9,391.4 1497.9,414.3 1284.1,414.3 1284.1,477.3 1278.9,477.3 
	1278.9,410.5 1493,410.3 1492.5,395.5 1421.7,395.2 1421.7,360.4 "/>
<polygon class="st0" points="1445,362.5 1445,384.8 1501.7,384.8 1501.7,423.4 1203.2,423.4 1203.2,477.3 1206.2,477.3 1206.2,425 
	1504.6,425.1 1504.6,382.9 1448,382.9 1448.1,362 "/>
<g>
	<path class="st0" d="M1397.9,347h-27.8l-1.9,2.5v26c0,0.6,0.5,1,1.1,1h28.7c0.6,0,1.1-0.5,1.1-1V348
		C1399,347.5,1398.5,347,1397.9,347z"/>
	<path class="st22" d="M1391,376.5h-14.9v-7.3c0-0.6,0.5-1.1,1.1-1.1h12.6c0.6,0,1.1,0.5,1.1,1.1V376.5z"/>
	<ellipse class="st4" cx="1383.6" cy="361.8" rx="3.7" ry="3.5"/>
	<path class="st0" d="M1389,375.2h-1.6c-0.4,0-0.7-0.3-0.7-0.7v-4.8c0-0.4,0.3-0.7,0.7-0.7h1.6c0.4,0,0.7,0.3,0.7,0.7v4.8
		C1389.7,374.9,1389.4,375.2,1389,375.2z"/>
	<ellipse class="st26" cx="1397.2" cy="373.1" rx="0.9" ry="0.9"/>
	<linearGradient id="SVGID_15_" gradientUnits="userSpaceOnUse" x1="1372.3817" y1="349.5877" x2="1394.006" y2="349.5877">
		<stop  offset="0" style="stop-color:#FAB01A"/>
		<stop  offset="1" style="stop-color:#003D55"/>
	</linearGradient>
	<polyline class="st27" points="1372.5,347 1372.5,352.1 1393.9,352.1 1393.9,347 	"/>
</g>
<rect x="763.8" y="359.5" class="st12" width="4.7" height="58.2"/>
<rect x="653.6" y="415.4" class="st12" width="114.9" height="4.1"/>
<rect x="653.6" y="415.4" class="st12" width="3.6" height="61.9"/>
<rect x="770.8" y="359.5" class="st4" width="4.3" height="68.4"/>
<rect x="636.6" y="427.5" class="st4" width="138.5" height="3.5"/>
<rect x="635.6" y="427.5" class="st4" width="3.3" height="49.8"/>
<path class="st10" d="M1658.9,180.9"/>
<rect x="1629.1" y="331.7" class="st8" width="417.2" height="8.9"/>
<rect x="2035.5" y="326.6" class="st8" width="10.8" height="150.7"/>
<g>
	<path class="st24" d="M1615.8,365.5v-36.9h-34.5v36.9c0,0,8.2,3.7,17.3,3.7C1608.4,369.2,1615.8,365.5,1615.8,365.5z"/>
	<path class="st25" d="M1581.3,328.6v19.3c0,0,13.1,7.2,34.5,0v-19.3H1581.3z"/>
	<ellipse class="st1" cx="1598.6" cy="328.6" rx="17.3" ry="2.6"/>
	<ellipse class="st7" cx="1598.6" cy="351.1" rx="4.7" ry="4.5"/>
</g>
<g>
	<path class="st24" d="M805.1,369.7v-36.9h-34.5v36.9c0,0,8.2,3.7,17.3,3.7C797.7,373.3,805.1,369.7,805.1,369.7z"/>
	<path class="st25" d="M770.6,332.8v19.3c0,0,13.1,7.2,34.5,0v-19.3H770.6z"/>
	<ellipse class="st1" cx="787.9" cy="332.8" rx="17.3" ry="2.6"/>
	<ellipse class="st7" cx="787.9" cy="355.3" rx="4.7" ry="4.5"/>
</g>
<rect x="1624.7" y="152.3" class="st11" width="26.6" height="10.8"/>
<rect x="1647.3" y="152.2" class="st11" width="10" height="179.5"/>
<rect x="1650.1" y="324.1" class="st11" width="503.8" height="7.6"/>
<g>
	<g>
		<rect x="216.2" y="138.4" class="st30" width="102.7" height="226.4"/>
		<path class="st30" d="M437.6,308.6h-65c-26.8,0-48.5-21.7-48.5-48.5V146.5h162.1V260C486.1,286.8,464.4,308.6,437.6,308.6z"/>
		<polygon class="st22" points="337.7,163.3 471.8,163.3 471.8,278.6 337.6,278.6 		"/>
		<rect x="346.2" y="284.5" class="st31" width="117.2" height="4.2"/>
		<rect x="356.5" y="293.1" class="st31" width="98.7" height="2.7"/>
		<rect x="368" y="301.3" class="st31" width="75" height="3.1"/>
		<rect x="395.8" y="308.6" class="st30" width="13.2" height="53.7"/>
		<ellipse class="st30" cx="402.9" cy="360.1" rx="40" ry="5.3"/>
		<polygon class="st9" points="337.7,163.3 337.7,204.5 376.7,163.3 		"/>
	</g>
	<circle class="st22" cx="267" cy="193.7" r="22.2"/>
	<rect x="228" y="225.8" class="st22" width="78" height="7.2"/>
	<rect x="228" y="243.1" class="st22" width="78" height="7.2"/>
	<rect x="228" y="279.2" class="st22" width="78" height="7.2"/>
	<rect x="228" y="260.4" class="st22" width="78" height="7.2"/>
	<circle class="st12" cx="267.8" cy="309.7" r="15.2"/>
	<g>
		<ellipse class="st32" cx="267" cy="193.5" rx="3.4" ry="3.2"/>
		<path class="st7" d="M263.6,193.3c-1.2,1.2-13,6.8-13,0C250.7,186.4,263.6,193.3,263.6,193.3z"/>
		<path class="st7" d="M264.4,195.5c0,1.6-4.1,13.6-9.2,8.8C250.1,199.4,264.4,195.5,264.4,195.5z"/>
		<path class="st7" d="M266.8,197.2c1.2,1.1,7.1,12.4,0,12.4C259.7,209.7,266.8,197.2,266.8,197.2z"/>
		<path class="st7" d="M269.3,195.8c1.7,0,14.2,4,9.2,8.8C273.4,209.5,269.3,195.8,269.3,195.8z"/>
		<path class="st7" d="M270.4,193.5c1.2-1.2,13-6.8,13,0C283.4,200.4,270.4,193.5,270.4,193.5z"/>
		<path class="st7" d="M267,190.3c-1.2-1.1-7.1-12.4,0-12.4S267,190.3,267,190.3z"/>
		<path class="st7" d="M264.7,191.2c-1.7,0-14.2-4-9.2-8.8C260.6,177.6,264.7,191.2,264.7,191.2z"/>
		<path class="st7" d="M269.2,191.1c0-1.6,4.1-13.6,9.2-8.8C283.4,187.2,269.2,191.1,269.2,191.1z"/>
	</g>
</g>
<g>
	<path class="st11" d="M1886,347.8h-187.9c-19.5,0-35.4-9.7-35.4-21.7V315c0-12,15.8-21.7,35.4-21.7H1886c19.5,0,35.4,9.7,35.4,21.7
		v11.1C1921.4,338.1,1905.6,347.8,1886,347.8z"/>
	<g>
		<path class="st11" d="M1861,345.4h-137.3c-15.9,0-28.7-12.8-28.7-28.5v-154c0-15.8,12.8-28.5,28.7-28.5H1861
			c15.9,0,28.7,12.8,28.7,28.5v154C1889.7,332.6,1876.9,345.4,1861,345.4z"/>
		<path class="st1" d="M1822.7,274.3h-92.6c-10.7,0-19.3-7.5-19.3-16.7v-90.1c0-9.2,8.7-16.7,19.3-16.7h92.6
			c10.7,0,19.3,7.5,19.3,16.7v90.1C1842,266.8,1833.4,274.3,1822.7,274.3z"/>
		<rect x="1695" y="303.8" class="st4" width="101.1" height="4.5"/>
		<rect x="1695.2" y="317" class="st4" width="101.1" height="4.5"/>
		<ellipse class="st0" cx="1865.9" cy="188.7" rx="14.5" ry="13.9"/>
		<ellipse class="st0" cx="1865.9" cy="224.8" rx="14.5" ry="13.9"/>
		<rect x="1695.2" y="329.3" class="st4" width="101.1" height="4.5"/>
		<rect x="1813" y="306.1" class="st0" width="79.7" height="12.9"/>
	</g>
</g>
<g>
	<polygon class="st4" points="1620.7,341.7 1647.6,376.7 1778.1,361.5 1744.9,331.8 	"/>
	<polygon class="st12" points="1620.7,370.2 1620.7,341.7 1647.6,376.7 	"/>
	<polygon class="st1" points="1628.7,345.5 1649.2,371.8 1717.1,363.9 1695.7,338.7 	"/>
	<polygon class="st1" points="1701.7,338.2 1738.4,334.5 1761.5,358.1 1723,362.7 	"/>
</g>
<g>
	<path class="st24" d="M394,368.7v-36.9h-34.5v36.9c0,0,8.2,3.7,17.3,3.7C386.5,372.3,394,368.7,394,368.7z"/>
	<path class="st25" d="M359.5,331.8v19.3c0,0,13.1,7.2,34.5,0v-19.3H359.5z"/>
	<ellipse class="st1" cx="376.7" cy="331.8" rx="17.3" ry="2.6"/>
	<ellipse class="st7" cx="376.7" cy="354.3" rx="4.7" ry="4.5"/>
</g>
<g>
	<path class="st0" d="M716.5,332.1h-27.8l-1.9,2.5v26c0,0.6,0.5,1,1.1,1h28.7c0.6,0,1.1-0.5,1.1-1v-27.5
		C717.5,332.5,717.1,332.1,716.5,332.1z"/>
	<path class="st22" d="M709.6,361.6h-14.9v-7.3c0-0.6,0.5-1.1,1.1-1.1h12.6c0.6,0,1.1,0.5,1.1,1.1V361.6z"/>
	<ellipse class="st4" cx="702.2" cy="346.8" rx="3.7" ry="3.5"/>
	<path class="st0" d="M707.5,360.3h-1.6c-0.4,0-0.7-0.3-0.7-0.7v-4.8c0-0.4,0.3-0.7,0.7-0.7h1.6c0.4,0,0.7,0.3,0.7,0.7v4.8
		C708.2,360,707.9,360.3,707.5,360.3z"/>
	<ellipse class="st26" cx="715.7" cy="358.2" rx="0.9" ry="0.9"/>
	<linearGradient id="SVGID_16_" gradientUnits="userSpaceOnUse" x1="690.934" y1="334.6855" x2="712.5583" y2="334.6855">
		<stop  offset="0" style="stop-color:#FAB01A"/>
		<stop  offset="1" style="stop-color:#003D55"/>
	</linearGradient>
	<polyline class="st28" points="691,332.1 691,337.2 712.5,337.2 712.5,332.1 	"/>
</g>
<path class="st10" d="M1706.9,328.4"/>
<polygon class="st10" points="439.6,116.5 509.1,57 439.6,56.8 "/>
<g>
	<ellipse class="st32" cx="757.1" cy="346.8" rx="1.9" ry="1.8"/>
	<path class="st7" d="M755.2,346.7c-0.7,0.6-7.3,3.8-7.3,0S755.2,346.7,755.2,346.7z"/>
	<path class="st7" d="M755.6,348c0,0.9-2.3,7.7-5.1,4.9C747.6,350.2,755.6,348,755.6,348z"/>
	<path class="st7" d="M757,348.9c0.7,0.6,4,7,0,7C753,355.9,757,348.9,757,348.9z"/>
	<path class="st7" d="M758.4,348.2c0.9,0,8,2.2,5.1,4.9C760.7,355.8,758.4,348.2,758.4,348.2z"/>
	<path class="st7" d="M759,346.9c0.7-0.6,7.3-3.8,7.3,0S759,346.9,759,346.9z"/>
	<path class="st7" d="M757.1,345c-0.7-0.6-4-7,0-7C761.1,338.1,757.1,345,757.1,345z"/>
	<path class="st7" d="M755.8,345.6c-0.9,0-8-2.2-5.1-4.9C753.5,337.9,755.8,345.6,755.8,345.6z"/>
	<path class="st7" d="M758.3,345.5c0-0.9,2.3-7.7,5.1-4.9S758.3,345.5,758.3,345.5z"/>
</g>
<g>
	<path class="st8" d="M325.9,371.1h-31.7v-56.7h36.7v51.7C330.9,368.8,328.7,371.1,325.9,371.1z"/>
	<rect x="296.9" y="317.5" class="st12" width="29.8" height="24.5"/>
	<rect x="300.6" y="320.1" class="st9" width="22.5" height="19.5"/>
	<circle class="st1" cx="324.2" cy="353.2" r="2.5"/>
	<circle class="st1" cx="319.1" cy="357.9" r="2.5"/>
	<polygon class="st1" points="306.1,353.6 306.1,349.7 302.5,349.7 302.5,353.6 298.6,353.6 298.6,357.1 302.5,357.1 302.5,361 
		306,361 306,357.1 309.9,357.1 309.9,353.6 	"/>
</g>
<g>
	<path class="st8" d="M280.3,371.2h-31.7v-56.7h36.7v51.7C285.3,368.9,283.1,371.2,280.3,371.2z"/>
	<rect x="251.3" y="317.6" class="st12" width="29.8" height="24.5"/>
	<rect x="255" y="320.2" class="st9" width="22.5" height="19.5"/>
	<circle class="st1" cx="278.6" cy="353.3" r="2.5"/>
	<circle class="st1" cx="273.5" cy="358" r="2.5"/>
	<polygon class="st1" points="260.5,353.7 260.5,349.8 257,349.8 257,353.7 253,353.7 253,357.2 257,357.2 257,361.1 260.4,361.1 
		260.4,357.2 264.4,357.2 264.4,353.7 	"/>
</g>
<rect x="-12.3" y="357.3" class="st30" width="228.5" height="7.6"/>
</svg>
