<?xml version="1.0" encoding="utf-8"?>
<!-- Generator: Adobe Illustrator 19.1.0, SVG Export Plug-In . SVG Version: 6.00 Build 0)  -->
<svg version="1.1" id="Layer_1" xmlns="http://www.w3.org/2000/svg" xmlns:xlink="http://www.w3.org/1999/xlink" x="0px" y="0px"
	 viewBox="-196 197 218 400" style="enable-background:new -196 197 218 400;" xml:space="preserve">
<style type="text/css">
	.st0{fill:#B93628;}
	.st1{fill:#003949;}
	.st2{fill:#EF4137;}
	.st3{fill:#FCB038;}
	.st4{clip-path:url(#SVGID_2_);fill:#B93628;}
	.st5{clip-path:url(#SVGID_5_);fill:#FCB038;}
</style>
<g>
	<ellipse class="st0" cx="-48.7" cy="346.2" rx="12.8" ry="15"/>
	<ellipse class="st0" cx="-128.6" cy="346.2" rx="12.8" ry="15"/>
	<path class="st0" d="M-129.5,344.9c0-21.4,18.1-38.7,40.4-38.7s40.4,17.3,40.4,38.7c0,1.6-0.1,3.1-0.3,4.6
		c2.8-5.6,4.3-11.8,4.3-18.4c0-23.5-19.9-42.6-44.4-42.6s-44.5,19.1-44.5,42.6c0,6.6,1.6,12.8,4.3,18.4
		C-129.4,348.1-129.5,346.5-129.5,344.9z"/>
	<rect x="-97.4" y="393.4" class="st1" width="18.3" height="22.2"/>
	<path class="st1" d="M-71,402.5h-35.9c-11.5,0-16.5-6.8-16.5-15.1l-4.4-53.4c0-8.3,6.5-13.9,17.9-13.9h42.5
		c11.5,0,18.7,5.5,18.7,13.9l-5.1,53.4C-53.8,395.8-59.5,402.5-71,402.5z"/>
	<rect x="-115.4" y="527.5" class="st1" width="12" height="34.5"/>
	<rect x="-72.1" y="527.5" class="st1" width="12" height="34.5"/>
	<polygon class="st2" points="-67.2,352.5 -72.8,397.9 -69.1,397.9 -63.8,352.5 	"/>
	<polygon class="st2" points="-108.3,352.5 -102.8,397.9 -106.5,397.9 -111.7,352.5 	"/>
	<ellipse class="st2" cx="-106.6" cy="381.9" rx="7.1" ry="6.8"/>
	<ellipse class="st2" cx="-69.7" cy="381.9" rx="7.1" ry="6.8"/>
	<path class="st0" d="M-125.2,340.9l27.9-0.9c0,0,0.8-8.1,9.1-8.1s9,7.9,9,7.9l29,1l-29.1,1.6c0,0-1,7-9,7c-7.1,0-9-7.1-9-7.1
		L-125.2,340.9z"/>
	<ellipse class="st0" cx="-88.2" cy="341" rx="10.3" ry="9.8"/>
	<ellipse class="st3" cx="-88.3" cy="340.9" rx="7.1" ry="6.8"/>
	<polygon class="st1" points="-135,495 -149.4,494 -144.2,423.1 -129.8,424 	"/>
	<polygon class="st1" points="-41.7,494.9 -28,493.6 -31.5,422.8 -45.2,424 	"/>
	<ellipse class="st0" cx="-87.5" cy="459" rx="37.8" ry="36.2"/>
	<ellipse class="st0" cx="-40.4" cy="420.7" rx="12" ry="11.6"/>
	<ellipse class="st0" cx="-134.8" cy="420.3" rx="12" ry="11.6"/>
	<path class="st1" d="M-57.9,475.4h-57c-3.5,0-11.6-5.6-11.6-8l-3.6-55.5c0-2.5,2.9-4.6,6.5-4.6h74.2c3.5,0,5.2,2,5.2,4.6l-3.6,55.5
		C-48,469.9-54.3,475.4-57.9,475.4z"/>
	<polygon class="st0" points="-118.7,521.8 -118.7,543.8 -108.7,546.9 -108.7,552.9 -118.7,556.5 -118.7,574.7 -120.7,574.7 
		-120.7,555.3 -111,552.4 -111,548 -120.7,544.8 -120.7,517.4 	"/>
	<polygon class="st0" points="-56.7,521.8 -56.7,543.8 -66.7,546.9 -66.7,552.9 -56.7,556.5 -56.7,574.7 -54.7,574.7 -54.7,555.3 
		-64.4,552.4 -64.4,548 -54.7,544.8 -54.7,517.4 	"/>
	<polygon class="st2" points="-105.8,519.2 -105.8,555.3 -110.1,560 -110.1,564.3 -107.2,571.7 -105.7,570.5 -108.2,564.1 
		-108.3,560.3 -104.1,555.3 -104,519.2 	"/>
	<polygon class="st2" points="-69.7,519.2 -69.7,555.3 -65.4,560 -65.4,564.3 -68.4,571.7 -69.8,570.5 -67.3,564.1 -67.2,560.3 
		-71.3,555.3 -71.5,519.2 	"/>
	<path class="st1" d="M-67.6,522.7h-39.9c-8.4,0-15.2-5.3-15.2-11.7l3.3-32.1h62.8l4.3,32.1C-52.4,517.5-59.2,522.7-67.6,522.7z"/>
	<polygon class="st2" points="-112.8,407.4 -93.9,436.2 -94,441.9 -126.9,460.6 -127.1,463.5 -91.6,442.8 -91.6,435.4 -108.7,407.4 
			"/>
	<polygon class="st2" points="-63.4,407.4 -82.2,436.2 -82.1,441.9 -47.5,460.6 -46.9,464 -84.6,442.8 -84.6,435.4 -67.5,407.4 	"/>
	<rect x="-88.6" y="442.8" class="st2" width="0.6" height="20.6"/>
	<rect x="-73.6" y="420.7" class="st2" width="0.6" height="42.8"/>
	<rect x="-101.7" y="421.5" class="st2" width="0.6" height="42"/>
	<rect x="-59.1" y="407.4" class="st2" width="0.6" height="56.1"/>
	<rect x="-116.1" y="407.4" class="st2" width="0.6" height="56.1"/>
	<ellipse class="st2" cx="-115.7" cy="464.7" rx="4.4" ry="4.2"/>
	<ellipse class="st2" cx="-101.4" cy="464.7" rx="4.4" ry="4.2"/>
	<ellipse class="st2" cx="-88.3" cy="464.7" rx="4.4" ry="4.2"/>
	<ellipse class="st2" cx="-73.3" cy="464.7" rx="4.4" ry="4.2"/>
	<ellipse class="st2" cx="-58.8" cy="464.7" rx="4.4" ry="4.2"/>
	<ellipse class="st0" cx="-62.8" cy="422.7" rx="5.3" ry="5"/>
	<ellipse class="st3" cx="-70.2" cy="426.9" rx="6.5" ry="6.2"/>
	<ellipse class="st3" cx="-60.6" cy="438.2" rx="6.2" ry="6"/>
	<g>
		<ellipse class="st3" cx="-111.4" cy="428.9" rx="2.1" ry="2"/>
		<path class="st2" d="M-113.5,428.7c-0.7,0.7-8,4.2-8,0C-121.4,424.6-113.5,428.7-113.5,428.7z"/>
		<path class="st2" d="M-113,430.2c0,0.9-2.5,8.3-5.6,5.4C-121.7,432.5-113,430.2-113,430.2z"/>
		<path class="st2" d="M-111.5,431.2c0.7,0.7,4.3,7.6,0,7.6S-111.5,431.2-111.5,431.2z"/>
		<path class="st2" d="M-110,430.4c1,0,8.7,2.4,5.6,5.4C-107.5,438.7-110,430.4-110,430.4z"/>
		<path class="st2" d="M-109.3,429c0.7-0.7,8-4.2,8,0C-101.3,433.2-109.3,429-109.3,429z"/>
		<path class="st2" d="M-111.3,426.9c-0.7-0.7-4.3-7.6,0-7.6S-111.3,426.9-111.3,426.9z"/>
		<path class="st2" d="M-112.8,427.6c-1,0-8.7-2.4-5.6-5.4C-115.3,419.2-112.8,427.6-112.8,427.6z"/>
		<path class="st2" d="M-110,427.5c0-0.9,2.5-8.3,5.6-5.4C-101.3,425-110,427.5-110,427.5z"/>
	</g>
	<g>
		<g>
			<defs>
				<ellipse id="SVGID_1_" cx="-70.2" cy="426.9" rx="6.5" ry="6.2"/>
			</defs>
			<clipPath id="SVGID_2_">
				<use xlink:href="#SVGID_1_"  style="overflow:visible;"/>
			</clipPath>
			<path class="st4" d="M-63.9,428.4c-2.3,1.7-8.3,2.5-6.9-0.9c0,0,2.5-7.6-9.5,2.7c-12,10.3,8.7,6.2,8.7,6.2l10.5-6.2L-63.9,428.4z
				"/>
		</g>
	</g>
	<path class="st1" d="M-119.5,555.3"/>
	<path class="st1" d="M-92.6,586.2c0,0-8.3,0-18.6,0s-18.6,0-18.6,0c0-9.8,8.3-17.9,18.6-17.9S-92.6,576.4-92.6,586.2z"/>
	<path class="st1" d="M-46.1,586.2c0,0-8.3,0-18.6,0s-18.6,0-18.6,0c0-9.8,8.3-17.9,18.6-17.9S-46.1,576.4-46.1,586.2z"/>
	<g>
		<g>
			<ellipse id="SVGID_3_" class="st2" cx="-60.6" cy="438.2" rx="6.2" ry="6"/>
		</g>
		<g>
			<defs>
				<ellipse id="SVGID_4_" cx="-60.6" cy="438.2" rx="6.2" ry="6"/>
			</defs>
			<clipPath id="SVGID_5_">
				<use xlink:href="#SVGID_4_"  style="overflow:visible;"/>
			</clipPath>
			<path class="st5" d="M-64.9,433.8c0,0-0.1,7.6,0.3,7.6c0.2,0-0.1-7.7,0.2-7.7c6.2-0.1,0.2,8.7,0.3,8.7c0.1,0,1.3-2.3,3.5-0.2
				c2.1,2.1,5.2-0.7,5-5c-0.2-4.3,0.1,2.7-0.7,2.8s0.2,0.4,0.2-2.8c0-3.1,1.2-6.1-1.8-6.4c-3-0.3-6.8,2.2-6.8,2.2L-64.9,433.8z"/>
		</g>
	</g>
	<path class="st2" d="M-113,509.2c-3.2,0-5.8,2.5-5.8,5.6s2.6,5.6,5.8,5.6c3.2,0,5.8-2.5,5.8-5.6S-109.8,509.2-113,509.2z
		 M-113,518.3c-2,0-3.6-1.6-3.6-3.5c0-2,1.7-3.5,3.6-3.5c2,0,3.6,1.6,3.6,3.5C-109.3,516.7-110.9,518.3-113,518.3z"/>
	<path class="st2" d="M-63.2,509.2c-3.2,0-5.8,2.5-5.8,5.6s2.6,5.6,5.8,5.6s5.8-2.5,5.8-5.6S-60,509.2-63.2,509.2z M-63.2,518.3
		c-2,0-3.6-1.6-3.6-3.5c0-2,1.7-3.5,3.6-3.5s3.6,1.6,3.6,3.5C-59.5,516.7-61.2,518.3-63.2,518.3z"/>
	<polygon class="st2" points="-110.1,509.9 -91.6,496.1 -91.6,488 -119.5,478.9 -122.8,479.8 -93.6,489.1 -93.6,495.2 -113,509.2 	
		"/>
	<polygon class="st2" points="-66.1,509.9 -84.6,496.1 -84.6,488 -56.7,478.9 -53.4,479.8 -82.6,489.1 -82.6,495.2 -63.2,509.2 	"/>
	<path class="st0" d="M-142.4,490.7c-9,0-16.3,7-16.3,15.6c0,8.7,7.3,15.6,16.3,15.6c9,0,16.3-7,16.3-15.6S-133.5,490.7-142.4,490.7
		z M-142.4,516.1c-5.6,0-10.2-4.3-10.2-9.8c0-5.4,4.6-9.8,10.2-9.8c5.6,0,10.2,4.3,10.2,9.8S-136.8,516.1-142.4,516.1z"/>
	<path class="st0" d="M-33.4,489.1c-9,0-16.3,7-16.3,15.6c0,8.7,7.3,15.6,16.3,15.6s16.3-7,16.3-15.6S-24.4,489.1-33.4,489.1z
		 M-33.4,514.5c-5.6,0-10.2-4.3-10.2-9.8c0-5.4,4.6-9.8,10.2-9.8c5.6,0,10.2,4.3,10.2,9.8C-23.2,510.1-27.8,514.5-33.4,514.5z"/>
</g>
</svg>
