<?xml version="1.0" encoding="utf-8"?>
<!-- Generator: Adobe Illustrator 17.1.0, SVG Export Plug-In . SVG Version: 6.00 Build 0)  -->
<!DOCTYPE svg PUBLIC "-//W3C//DTD SVG 1.1//EN" "http://www.w3.org/Graphics/SVG/1.1/DTD/svg11.dtd">
<svg version="1.1" id="Layer_1" xmlns="http://www.w3.org/2000/svg" xmlns:xlink="http://www.w3.org/1999/xlink" x="0px" y="0px"
	 viewBox="0 0 218 400" style="enable-background:new 0 0 218 400;" xml:space="preserve">
<style type="text/css">
	.st0{fill:#B93628;}
	.st1{fill:#003949;}
	.st2{fill:#EF4137;}
	.st3{fill:#FCB038;}
	.st4{clip-path:url(#SVGID_2_);fill:#B93628;}
	.st5{clip-path:url(#SVGID_4_);fill:#FCB038;}
</style>
<g>
	<ellipse class="st0" cx="158.7" cy="84.3" rx="16.2" ry="19"/>
	<ellipse class="st0" cx="57.3" cy="84.3" rx="16.2" ry="19"/>
	<path class="st0" d="M56.1,82.7c0-27.2,23-49.2,51.3-49.2c28.3,0,51.3,22,51.3,49.2c0,2-0.1,3.9-0.4,5.9c3.5-7.1,5.5-15,5.5-23.4
		c0-29.9-25.3-54.1-56.4-54.1S50.9,35.3,50.9,65.2c0,8.4,2,16.3,5.5,23.4C56.2,86.7,56.1,84.7,56.1,82.7z"/>
	<rect x="96.9" y="144.3" class="st1" width="23.3" height="28.2"/>
	<path class="st1" d="M130.4,155.9H84.8c-14.6,0-21-8.6-21-19.2l-5.6-67.8c0-10.6,8.2-17.6,22.8-17.6H135c14.6,0,23.7,7,23.7,17.6
		l-6.5,67.8C152.3,147.3,145,155.9,130.4,155.9z"/>
	<rect x="74" y="314.7" class="st1" width="15.2" height="43.8"/>
	<rect x="129.1" y="314.7" class="st1" width="15.2" height="43.8"/>
	<polygon class="st2" points="135.3,92.3 128.2,150 132.8,150 139.6,92.3 	"/>
	<polygon class="st2" points="83,92.3 90.1,150 85.4,150 78.7,92.3 	"/>
	<ellipse class="st2" cx="85.2" cy="129.7" rx="9" ry="8.6"/>
	<ellipse class="st2" cx="132.1" cy="129.7" rx="9" ry="8.6"/>
	<path class="st0" d="M61.6,77.6l35.5-1.1c0,0,1-10.3,11.5-10.3s11.4,10,11.4,10l36.9,1.3l-37,2c0,0-1.3,8.9-11.4,8.9
		c-9,0-11.4-9-11.4-9L61.6,77.6z"/>
	<ellipse class="st0" cx="108.6" cy="77.8" rx="13.1" ry="12.5"/>
	<ellipse class="st3" cx="108.5" cy="77.6" rx="9" ry="8.6"/>
	<polygon class="st1" points="49.1,273.3 30.8,272.1 37.4,182 55.7,183.2 	"/>
	<polygon class="st1" points="167.7,273.2 185.1,271.6 180.6,181.6 163.2,183.2 	"/>
	<ellipse class="st0" cx="109.5" cy="227.6" rx="48" ry="46"/>
	<ellipse class="st0" cx="169.3" cy="179" rx="15.3" ry="14.7"/>
	<ellipse class="st0" cx="49.4" cy="178.5" rx="15.3" ry="14.7"/>
	<path class="st1" d="M147.1,248.5H74.7c-4.5,0-14.7-7.1-14.7-10.2l-4.6-70.5c0-3.2,3.7-5.8,8.2-5.8h94.2c4.5,0,6.6,2.6,6.6,5.8
		l-4.6,70.5C159.7,241.5,151.6,248.5,147.1,248.5z"/>
	<polygon class="st0" points="69.8,307.4 69.8,335.3 82.5,339.3 82.5,346.9 69.8,351.5 69.8,374.6 67.3,374.6 67.3,350 79.6,346.3 
		79.6,340.7 67.3,336.6 67.3,301.8 	"/>
	<polygon class="st0" points="148.6,307.4 148.6,335.3 135.9,339.3 135.9,346.9 148.6,351.5 148.6,374.6 151.1,374.6 151.1,350 
		138.8,346.3 138.8,340.7 151.1,336.6 151.1,301.8 	"/>
	<polygon class="st2" points="86.2,304.1 86.2,350 80.8,355.9 80.8,361.4 84.5,370.8 86.4,369.2 83.2,361.1 83.1,356.3 88.4,350 
		88.5,304.1 	"/>
	<polygon class="st2" points="132.1,304.1 132.1,350 137.5,355.9 137.5,361.4 133.8,370.8 131.9,369.2 135.1,361.1 135.3,356.3 
		130,350 129.8,304.1 	"/>
	<path class="st1" d="M134.7,308.6H84c-10.7,0-19.3-6.7-19.3-14.9l4.2-40.8h79.8l5.4,40.8C154,301.9,145.4,308.6,134.7,308.6z"/>
	<polygon class="st2" points="77.4,162.1 101.3,198.7 101.2,205.9 59.4,229.6 59.2,233.3 104.3,207.1 104.3,197.7 82.5,162.1 	"/>
	<polygon class="st2" points="140.1,162.1 116.2,198.7 116.3,205.9 160.3,229.6 161,234 113.1,207.1 113.1,197.7 134.9,162.1 	"/>
	<rect x="108.1" y="207.1" class="st2" width="0.8" height="26.2"/>
	<rect x="127.1" y="179" class="st2" width="0.8" height="54.4"/>
	<rect x="91.4" y="180" class="st2" width="0.8" height="53.3"/>
	<rect x="145.5" y="162.1" class="st2" width="0.8" height="71.3"/>
	<rect x="73.2" y="162.1" class="st2" width="0.8" height="71.3"/>
	<ellipse class="st2" cx="73.6" cy="234.9" rx="5.6" ry="5.3"/>
	<ellipse class="st2" cx="91.8" cy="234.9" rx="5.6" ry="5.3"/>
	<ellipse class="st2" cx="108.5" cy="234.9" rx="5.6" ry="5.3"/>
	<ellipse class="st2" cx="127.5" cy="234.9" rx="5.6" ry="5.3"/>
	<ellipse class="st2" cx="145.9" cy="234.9" rx="5.6" ry="5.3"/>
	<ellipse class="st0" cx="140.9" cy="181.5" rx="6.7" ry="6.4"/>
	<ellipse class="st3" cx="131.4" cy="186.9" rx="8.2" ry="7.9"/>
	<ellipse class="st3" cx="143.6" cy="201.2" rx="7.9" ry="7.6"/>
	<g>
		<ellipse class="st3" cx="79.1" cy="189.4" rx="2.7" ry="2.5"/>
		<path class="st2" d="M76.5,189.2c-0.9,0.9-10.1,5.3-10.1,0C66.4,183.9,76.5,189.2,76.5,189.2z"/>
		<path class="st2" d="M77.1,191c0,1.2-3.2,10.6-7.1,6.8C66,194,77.1,191,77.1,191z"/>
		<path class="st2" d="M79,192.3c0.9,0.9,5.5,9.7,0,9.7S79,192.3,79,192.3z"/>
		<path class="st2" d="M80.9,191.3c1.3,0,11,3.1,7.1,6.8S80.9,191.3,80.9,191.3z"/>
		<path class="st2" d="M81.8,189.5c0.9-0.9,10.1-5.3,10.1,0S81.8,189.5,81.8,189.5z"/>
		<path class="st2" d="M79.2,186.9c-0.9-0.9-5.5-9.7,0-9.7S79.2,186.9,79.2,186.9z"/>
		<path class="st2" d="M77.4,187.7c-1.3,0-11-3.1-7.1-6.8C74.2,177.1,77.4,187.7,77.4,187.7z"/>
		<path class="st2" d="M80.9,187.6c0-1.2,3.2-10.6,7.1-6.8C91.9,184.5,80.9,187.6,80.9,187.6z"/>
	</g>
	<g>
		<defs>
			<ellipse id="SVGID_1_" cx="131.4" cy="186.9" rx="8.2" ry="7.9"/>
		</defs>
		<clipPath id="SVGID_2_">
			<use xlink:href="#SVGID_1_"  style="overflow:visible;"/>
		</clipPath>
		<path class="st4" d="M139.4,188.7c-2.9,2.2-10.6,3.2-8.8-1.1c0,0,3.2-9.7-12.1,3.4s11,7.9,11,7.9l13.4-7.9L139.4,188.7z"/>
	</g>
	<path class="st1" d="M68.8,350"/>
	<path class="st1" d="M103,389.2c0,0-10.6,0-23.6,0s-23.6,0-23.6,0c0-12.5,10.6-22.7,23.6-22.7S103,376.7,103,389.2z"/>
	<path class="st1" d="M162,389.2c0,0-10.6,0-23.6,0s-23.6,0-23.6,0c0-12.5,10.6-22.7,23.6-22.7S162,376.7,162,389.2z"/>
	<g>
		<defs>
			<ellipse id="SVGID_3_" cx="143.6" cy="201.2" rx="7.9" ry="7.6"/>
		</defs>
		<use xlink:href="#SVGID_3_"  style="overflow:visible;fill:#EF4137;"/>
		<clipPath id="SVGID_4_">
			<use xlink:href="#SVGID_3_"  style="overflow:visible;"/>
		</clipPath>
		<path class="st5" d="M138.2,195.6c0,0-0.1,9.7,0.4,9.7c0.3,0-0.1-9.8,0.2-9.8c7.9-0.1,0.3,11,0.4,11c0.1,0,1.7-2.9,4.4-0.2
			c2.7,2.7,6.6-0.9,6.4-6.4s0.1,3.4-0.9,3.5c-1,0.1,0.2,0.5,0.2-3.5c0-3.9,1.5-7.8-2.3-8.1c-3.8-0.4-8.7,2.8-8.7,2.8L138.2,195.6z"
			/>
	</g>
	<path class="st2" d="M77.1,291.4c-4.1,0-7.4,3.2-7.4,7.1c0,3.9,3.3,7.1,7.4,7.1c4.1,0,7.4-3.2,7.4-7.1
		C84.5,294.6,81.2,291.4,77.1,291.4z M77.1,302.9c-2.6,0-4.6-2-4.6-4.4c0-2.5,2.1-4.4,4.6-4.4c2.6,0,4.6,2,4.6,4.4
		C81.8,300.9,79.7,302.9,77.1,302.9z"/>
	<path class="st2" d="M140.3,291.4c-4.1,0-7.4,3.2-7.4,7.1c0,3.9,3.3,7.1,7.4,7.1s7.4-3.2,7.4-7.1
		C147.7,294.6,144.4,291.4,140.3,291.4z M140.3,302.9c-2.6,0-4.6-2-4.6-4.4c0-2.5,2.1-4.4,4.6-4.4s4.6,2,4.6,4.4
		C145,300.9,142.9,302.9,140.3,302.9z"/>
	<polygon class="st2" points="80.8,292.3 104.3,274.8 104.3,264.4 68.8,252.9 64.7,254 101.7,265.8 101.7,273.6 77.1,291.4 	"/>
	<polygon class="st2" points="136.6,292.3 113.2,274.8 113.2,264.4 148.6,252.9 152.8,254 115.7,265.8 115.7,273.6 140.4,291.4 	"/>
	<path class="st0" d="M39.7,267.9c-11.4,0-20.7,8.9-20.7,19.8c0,11,9.3,19.8,20.7,19.8s20.7-8.9,20.7-19.8
		C60.4,276.8,51.1,267.9,39.7,267.9z M39.7,300.1c-7.1,0-12.9-5.5-12.9-12.4c0-6.8,5.8-12.4,12.9-12.4s12.9,5.5,12.9,12.4
		C52.6,294.6,46.8,300.1,39.7,300.1z"/>
	<path class="st0" d="M178.2,265.9c-11.4,0-20.7,8.9-20.7,19.8c0,11,9.3,19.8,20.7,19.8c11.4,0,20.7-8.9,20.7-19.8
		C198.9,274.8,189.6,265.9,178.2,265.9z M178.2,298.1c-7.1,0-12.9-5.5-12.9-12.4c0-6.8,5.8-12.4,12.9-12.4s12.9,5.5,12.9,12.4
		C191.1,292.5,185.3,298.1,178.2,298.1z"/>
</g>
</svg>
