<?xml version="1.0" encoding="utf-8"?>
<!-- Generator: Adobe Illustrator 19.1.0, SVG Export Plug-In . SVG Version: 6.00 Build 0)  -->
<svg version="1.1" id="Layer_1" xmlns="http://www.w3.org/2000/svg" xmlns:xlink="http://www.w3.org/1999/xlink" x="0px" y="0px"
	 viewBox="-156 234.9 298.8 324.1" style="enable-background:new -156 234.9 298.8 324.1;" xml:space="preserve">
<style type="text/css">
	.st0{fill:#EF4137;}
	.st1{fill:#FCB038;}
	.st2{clip-path:url(#SVGID_2_);fill:#B93628;}
	.st3{clip-path:url(#SVGID_4_);fill:#B93628;}
	.st4{fill:#B93628;}
	.st5{clip-path:url(#SVGID_7_);fill:#FCB038;}
</style>
<g>
	<rect x="-19.2" y="346.3" class="st0" width="26.1" height="27.6"/>
	<ellipse class="st0" cx="-5.2" cy="499.8" rx="5.9" ry="33.8"/>
	<ellipse class="st0" cx="-5.2" cy="492.8" rx="19.1" ry="18.2"/>
	<ellipse class="st0" cx="57" cy="312.7" rx="6.3" ry="12.6"/>
	<ellipse class="st0" cx="-67.9" cy="312.7" rx="6.3" ry="12.6"/>
	<ellipse class="st1" cx="-5.8" cy="313.3" rx="59.3" ry="43.4"/>
	<rect x="21" y="379.9" class="st0" width="26.6" height="10.2"/>
	<rect x="-59.6" y="379.7" class="st0" width="26.6" height="10.2"/>
	<path class="st1" d="M13.9,489.2h-39.3c-14.7,0-26.7-12.8-26.7-28.7v-67.4c0-15.9,11.9-28.7,26.7-28.7h39.3
		c14.7,0,26.7,12.8,26.7,28.7v67.4C40.4,476.3,28.6,489.2,13.9,489.2z"/>
	<ellipse class="st0" cx="-28.7" cy="309.4" rx="13.7" ry="13.1"/>
	<ellipse class="st0" cx="13.9" cy="309.4" rx="13.7" ry="13.1"/>
	<rect x="-37.2" y="384.8" class="st0" width="25.6" height="21"/>
	<rect x="0.1" y="384.8" class="st0" width="27.5" height="54.4"/>
	<rect x="-37.2" y="418.5" class="st0" width="25.6" height="21"/>
	<rect x="-70.3" y="389.5" class="st0" width="7.1" height="79.2"/>
	<rect x="50.8" y="389.3" class="st0" width="7.1" height="79.2"/>
	<polygon class="st0" points="81,449.1 54.4,384.7 61.3,382 87.9,446.5 	"/>
	<polygon class="st0" points="-93.1,450 -66.5,385.6 -73.4,382.8 -100,447.3 	"/>
	<ellipse class="st1" cx="-67.1" cy="384.7" rx="11.1" ry="10.7"/>
	<ellipse class="st1" cx="54.4" cy="384.2" rx="11.1" ry="10.7"/>
	<g>
		<g>
			<g>
				<defs>
					<ellipse id="SVGID_1_" cx="-28.7" cy="309.4" rx="13.7" ry="13.1"/>
				</defs>
				<clipPath id="SVGID_2_">
					<use xlink:href="#SVGID_1_"  style="overflow:visible;"/>
				</clipPath>
				<polygon class="st2" points="-37.2,299 -22.5,321.1 -26.4,333.6 -48.2,309.4 -44.5,297.6 				"/>
			</g>
		</g>
	</g>
	<g>
		<g>
			<g>
				<defs>
					<ellipse id="SVGID_3_" cx="13.9" cy="309.4" rx="13.7" ry="13.1"/>
				</defs>
				<clipPath id="SVGID_4_">
					<use xlink:href="#SVGID_3_"  style="overflow:visible;"/>
				</clipPath>
				<polygon class="st3" points="5.3,299 20,321.1 16.2,333.6 -5.6,309.4 -1.9,297.6 				"/>
			</g>
		</g>
	</g>
	<ellipse class="st1" cx="7.2" cy="392.5" rx="3.2" ry="3.1"/>
	<ellipse class="st4" cx="21" cy="392.5" rx="3.2" ry="3.1"/>
	<path class="st1" d="M54.6,472.2c4.6,0,8.3,6.8,9.2,15.7c0.1-1.2,0.2-2.3,0.2-3.6c0-10.6-4.2-19.1-9.3-19.1s-9.3,8.6-9.3,19.1
		c0,1.2,0.1,2.3,0.2,3.6C46.1,478.9,49.9,472.2,54.6,472.2z"/>
	<path class="st1" d="M-66.6,472.1c4.6,0,8.3,5.9,9.2,13.7c0.1-1,0.2-2,0.2-3.1c0-9.2-4.2-16.8-9.3-16.8s-9.3,7.6-9.3,16.8
		c0,1.1,0.1,2.1,0.2,3.1C-75.1,478-71.3,472.1-66.6,472.1z"/>
	<path class="st1" d="M-4.9,539.6c4.9,0,9.1,2.6,11.6,6.2c1.1-1.8,1.7-4,1.7-6.2c0-7.1-6-13-13.5-13s-13.5,5.8-13.5,13
		c0,2.4,0.7,4.8,2,6.8C-14.5,542.4-10,539.6-4.9,539.6z"/>
	<ellipse class="st1" cx="7.2" cy="402.8" rx="3.2" ry="3.1"/>
	<ellipse class="st4" cx="21" cy="402.8" rx="3.2" ry="3.1"/>
	<ellipse class="st1" cx="7" cy="413.4" rx="3.2" ry="3.1"/>
	<ellipse class="st4" cx="20.7" cy="413.4" rx="3.2" ry="3.1"/>
	<ellipse class="st1" cx="7" cy="423.8" rx="3.2" ry="3.1"/>
	<ellipse class="st4" cx="20.7" cy="423.8" rx="3.2" ry="3.1"/>
	<ellipse class="st1" cx="7" cy="433.6" rx="3.2" ry="3.1"/>
	<ellipse class="st4" cx="20.7" cy="433.6" rx="3.2" ry="3.1"/>
	<g>
		<polygon class="st1" points="110.8,436.9 69.3,452.7 70.9,456.9 112.4,441 		"/>
		<path class="st1" d="M112.5,438.2c-1.2-3.9,0-7.8,2.6-10.7c-1.8-0.3-3.8-0.3-5.8,0.2c-6.2,1.7-9.7,7.8-8,13.8
			c1.8,5.9,8.2,9.3,14.5,7.7c2.1-0.7,4-1.7,5.3-3.1C117.1,445.1,113.8,442.2,112.5,438.2z"/>
	</g>
	<path class="st1" d="M-19.6,353.8"/>
	<polygon class="st4" points="-19.2,355.7 7.2,364.4 -19.2,364.4 	"/>
	<g>
		<ellipse class="st4" cx="20.4" cy="472.8" rx="2.3" ry="2.1"/>
		<path class="st0" d="M18.1,472.7c-0.8,0.8-8.8,4.7-8.8,0S18.1,472.7,18.1,472.7z"/>
		<path class="st0" d="M18.6,474.1c0,1.1-2.8,9.2-6.2,5.9C9,476.8,18.6,474.1,18.6,474.1z"/>
		<path class="st0" d="M20.3,475.3c0.8,0.7,4.9,8.5,0,8.5S20.3,475.3,20.3,475.3z"/>
		<path class="st0" d="M22,474.3c1.2,0,9.7,2.7,6.2,5.9C24.8,483.7,22,474.3,22,474.3z"/>
		<path class="st0" d="M22.8,472.8c0.8-0.8,8.8-4.7,8.8,0S22.8,472.8,22.8,472.8z"/>
		<path class="st0" d="M20.4,470.6c-0.8-0.7-4.9-8.5,0-8.5S20.4,470.6,20.4,470.6z"/>
		<path class="st0" d="M18.9,471.2c-1.2,0-9.7-2.7-6.2-5.9C16.1,462.1,18.9,471.2,18.9,471.2z"/>
		<path class="st0" d="M21.9,471.2c0-1.1,2.8-9.2,6.2-5.9C31.6,468.6,21.9,471.2,21.9,471.2z"/>
	</g>
	<g>
		<polygon class="st1" points="-90.7,451 -95.7,462.3 -119.8,452.3 -114.8,441.1 		"/>
		<polygon class="st1" points="-131.9,473 -133.4,476.5 -133.1,480.8 -129.5,478.1 -127.9,474.7 		"/>
		<polygon class="st0" points="-121.5,466.2 -125.7,475.6 -134.3,472 -130.1,462.7 		"/>
		<polygon class="st1" points="-108.8,443.5 -121,470.9 -133.7,465.6 -121.5,438.3 		"/>
		<polygon class="st1" points="-87.1,452.4 -93.9,467.4 -102.1,464.1 -95.3,449.1 		"/>
	</g>
	<g>
		<g>
			<ellipse id="SVGID_5_" class="st0" cx="54.4" cy="384.2" rx="11.2" ry="10.8"/>
		</g>
		<g>
			<g>
				<defs>
					<ellipse id="SVGID_6_" cx="54.4" cy="384.2" rx="11.2" ry="10.8"/>
				</defs>
				<clipPath id="SVGID_7_">
					<use xlink:href="#SVGID_6_"  style="overflow:visible;"/>
				</clipPath>
				<path class="st5" d="M46.7,376.2c0,0-0.1,13.8,0.6,13.8c0.4,0-0.2-14,0.2-14c11.1-0.2,0.4,15.7,0.7,15.7c0.2,0,2.3-4.2,6.3-0.3
					c3.9,3.9,9.5-1.2,9.1-9.2c-0.3-7.9,0.1,4.8-1.3,5c-1.4,0.2,0.2,0.7,0.2-5c0-5.6,2.1-11.1-3.2-11.6c-5.3-0.6-12.3,4-12.3,4
					L46.7,376.2z"/>
			</g>
		</g>
	</g>
</g>
</svg>
