<?xml version="1.0" encoding="utf-8"?>
<!-- Generator: Adobe Illustrator 17.1.0, SVG Export Plug-In . SVG Version: 6.00 Build 0)  -->
<!DOCTYPE svg PUBLIC "-//W3C//DTD SVG 1.1//EN" "http://www.w3.org/Graphics/SVG/1.1/DTD/svg11.dtd">
<svg version="1.1" id="Layer_1" xmlns="http://www.w3.org/2000/svg" xmlns:xlink="http://www.w3.org/1999/xlink" x="0px" y="0px"
	 viewBox="0 0 787.5 178.5" style="enable-background:new 0 0 787.5 178.5;" xml:space="preserve">
<style type="text/css">
	.st0{clip-path:url(#SVGID_2_);fill:#EF4137;}
	.st1{clip-path:url(#SVGID_2_);fill:#FCB038;}
	.st2{fill:#EF4137;}
	.st3{clip-path:url(#SVGID_4_);fill:#EF4137;}
	.st4{clip-path:url(#SVGID_4_);fill:#F9E600;}
</style>
<g>
	<g>
		<defs>
			<rect id="SVGID_1_" x="14.9" y="10.8" width="762.1" height="157.9"/>
		</defs>
		<clipPath id="SVGID_2_">
			<use xlink:href="#SVGID_1_"  style="overflow:visible;"/>
		</clipPath>
		<path class="st0" d="M175.9,89.8c0,43.6-36.1,79-80.5,79s-80.5-35.3-80.5-79s36.1-79,80.5-79S175.9,46.2,175.9,89.8"/>
		<path class="st1" d="M107.3,114.2c-7.4-10.2-10.5-33.6,15.4-33.6s44.1,1,47.7-3.6c3.6-4.6-16.8,28.6-30.9,33.4
			C125.2,115.1,107.3,114.2,107.3,114.2"/>
		<path class="st1" d="M81,114.2c7.4-10.2,10.5-33.6-15.4-33.6s-44.1,1-47.7-3.6c-3.6-4.6,16.8,28.6,30.9,33.4
			C63,115.1,81,114.2,81,114.2"/>
		<path class="st1" d="M81.2,114.2c0,8.7-7.2,15.8-16.1,15.8c-8.9,0-16.1-7.1-16.1-15.8s7.2-15.8,16.1-15.8
			C74,98.4,81.2,105.5,81.2,114.2"/>
		<path class="st1" d="M139.4,114.2c0,8.7-7.2,15.8-16.1,15.8s-16.1-7.1-16.1-15.8s7.2-15.8,16.1-15.8S139.4,105.5,139.4,114.2"/>
		<path class="st0" d="M77.2,114.8c0,6.5-5.4,11.9-12.1,11.9c-6.7,0-12.1-5.3-12.1-11.9c0-6.5,5.4-11.9,12.1-11.9
			C71.8,103,77.2,108.3,77.2,114.8"/>
		<path class="st0" d="M135.4,114.8c0,6.5-5.4,11.9-12.1,11.9c-6.7,0-12.1-5.3-12.1-11.9c0-6.5,5.4-11.9,12.1-11.9
			C130,103,135.4,108.3,135.4,114.8"/>
	</g>
	<path class="st2" d="M281.3,144.6h-33.2V35.3h33.2V144.6z M242.5,74.4v28.8h-9.2v41.4h-33.2V35.3h33.2v39.1H242.5z"/>
	<path class="st2" d="M554.5,62.6l-14.9,29.1l22.2,50.7h-33.8l-19.1-52.1l13.9-27.7H554.5z M507.7,142.4h-30.5V33.1h30.5V142.4z"/>
	<g>
		<defs>
			<rect id="SVGID_3_" x="14.9" y="10.8" width="762.1" height="157.9"/>
		</defs>
		<clipPath id="SVGID_4_">
			<use xlink:href="#SVGID_3_"  style="overflow:visible;"/>
		</clipPath>
		<path class="st3" d="M663,32.7v31.1c-2.4-0.8-4.2-1.2-5.6-1.2c-2.5,0-4.7,0.9-6.5,2.7c-1.8,1.8-2.7,4-2.7,6.6c0,2.2,1,5,2.9,8.3
			l2.5,4.3c4.6,7.8,6.9,15.3,6.9,22.6c0,10.6-3.9,19.6-11.6,27c-7.7,7.4-17.1,11-28.2,11c-5.3,0-10.6-1.2-15.8-3.6v-31.6
			c3.2,2,6,3,8.4,3c2.9,0,5.3-0.8,7.2-2.4c1.9-1.6,2.9-3.7,2.9-6.1c0-1.6-1.6-5.1-4.7-10.5c-5-8.5-7.4-17.1-7.4-25.6
			c0-10.3,3.7-19.2,11.2-26.6c7.5-7.4,16.4-11.2,26.8-11.2C654.1,30.4,658.6,31.2,663,32.7"/>
		<path class="st3" d="M76.4,108.7c3.4,6.4,0.9,14.3-5.6,17.6c-6.5,3.4-14.6,0.9-18-5.5c-3.4-6.4-0.9-14.3,5.6-17.6
			C64.9,99.9,73,102.4,76.4,108.7"/>
		<path class="st4" d="M63.6,114.1c-4.2,4-7.5,7.3-7.5,7.3c-3.9-3.9-3.8-10.3,0.4-14.4c4.2-4.1,10.7-4.2,14.6-0.3
			C71.1,106.8,67.8,110.1,63.6,114.1"/>
		<path class="st3" d="M135.1,108.7c3.4,6.4,0.9,14.3-5.6,17.6c-6.5,3.4-14.6,0.9-18-5.5c-3.4-6.4-0.9-14.3,5.6-17.6
			C123.6,99.9,131.7,102.4,135.1,108.7"/>
		<path class="st4" d="M122.3,114.1c-4.2,4-7.5,7.3-7.5,7.3c-3.9-3.9-3.8-10.3,0.4-14.4c4.2-4.1,10.7-4.2,14.6-0.3
			C129.8,106.8,126.5,110.1,122.3,114.1"/>
		<path class="st3" d="M447.4,111.8c-2.9,5.3-8.7,8.8-15.2,8.8c-9.6,0-17.4-7.6-17.4-17c0-9.4,7.8-17,17.4-17c4,0,7.7,1.3,10.6,3.6
			l19.9-15.3c-1.4-1.6-3-3.1-4.7-4.5c-7.8-6.3-16.8-9.4-26.9-9.4c-11.6,0-21.6,4-30,12c-8.3,8-12.5,17.6-12.5,28.9
			c0,11.8,4.1,21.9,12.4,30c8.2,8.2,18.4,12.2,30.3,12.2c11.3,0,20.9-3.7,28.8-11.1c2.5-2.3,4.6-4.9,6.4-7.6L447.4,111.8z"/>
		<path class="st3" d="M367.1,72.3c-7.6-7.5-18-11.3-31.1-11.3c-11.8,0-21.8,4-30.1,12.1c-8.2,8.1-12.4,17.9-12.4,29.5
			c0,11.9,4.1,21.8,12.2,29.7c8.2,7.9,18.4,11.8,30.6,11.8c2.1,0,4.4-0.2,6.9-0.6v-23.5c-2.2,1-4.6,1.6-7.2,1.6
			c-9.6,0-17.4-7.6-17.4-17s7.8-17,17.4-17c9.6,0,17.4,7.6,17.4,17c0,2.1,0,1.3,0,1.3l0,3.9v32.7h25.1v-39.1
			C378.5,90.2,374.7,79.9,367.1,72.3"/>
		<path class="st3" d="M751,100.3c-4,7.2-11.8,12-20.7,12c-13.1,0-23.6-10.4-23.6-23.2s10.6-23.2,23.6-23.2c5.5,0,10.5,1.8,14.5,4.9
			L771.9,50c-2-2.1-4.1-4.2-6.5-6.1C754.8,35.3,742.5,31,728.7,31c-15.9,0-29.5,5.5-40.8,16.4c-11.3,10.9-17,24-17,39.4
			c0,16.1,5.6,29.8,16.9,40.9c11.2,11.1,25,16.7,41.3,16.7c15.4,0,28.5-5.1,39.3-15.2c3.4-3.2,6.2-6.7,8.7-10.4L751,100.3z"/>
	</g>
</g>
</svg>
