<?xml version="1.0" encoding="utf-8"?>
<!-- Generator: Adobe Illustrator 17.1.0, SVG Export Plug-In . SVG Version: 6.00 Build 0)  -->
<!DOCTYPE svg PUBLIC "-//W3C//DTD SVG 1.1//EN" "http://www.w3.org/Graphics/SVG/1.1/DTD/svg11.dtd">
<svg version="1.1" id="Layer_1" xmlns="http://www.w3.org/2000/svg" xmlns:xlink="http://www.w3.org/1999/xlink" x="0px" y="0px"
	 viewBox="0 0 218.5 361.5" style="enable-background:new 0 0 218.5 361.5;" xml:space="preserve">
<style type="text/css">
	.st0{fill:#EF4137;}
	.st1{fill:#B93628;}
	.st2{fill:#F7E500;}
	.st3{fill:#0F172A;}
	.st4{fill:#003949;}
</style>
<g>
	<polygon class="st0" points="150.2,223.2 135.9,214.8 178.8,190.4 179.1,148.2 194.3,157 193.4,198.9 	"/>
	<g>
		<path class="st0" d="M157.1,123h-97c-5.9,0-10.6-5.5-10.6-12.2V28.5c0-6.7,4.8-12.2,10.6-12.2h97c5.9,0,10.6,5.5,10.6,12.2v82.3
			C167.7,117.6,163,123,157.1,123z"/>
		<path class="st1" d="M51.1,117.3l8.3-15.8h83.2l25.1,12.5c0,0-3,8.6-8.5,8.8s-101.3,0-101.3,0S52.5,121.2,51.1,117.3z"/>
		<path class="st2" d="M135.1,107.4H66.5c-4.1,0-7.5-3.9-7.5-8.6V40.6c0-4.8,3.4-8.6,7.5-8.6h68.6c4.1,0,7.5,3.9,7.5,8.6v58.2
			C142.6,103.5,139.3,107.4,135.1,107.4z"/>
		<ellipse class="st3" cx="155.5" cy="39.1" rx="5.9" ry="6.8"/>
		<ellipse class="st3" cx="155.5" cy="59.2" rx="5.9" ry="6.8"/>
	</g>
	<path class="st0" d="M158.8,274.1H58.4c-4.9,0-8.9-5.6-8.9-12.6V143.3c0-7,4-12.6,8.9-12.6h100.4c4.9,0,8.9,5.6,8.9,12.6v118.2
		C167.7,268.4,163.7,274.1,158.8,274.1z"/>
	<rect x="67.6" y="259.1" class="st0" width="25.8" height="39.2"/>
	<rect x="82.9" y="122.8" class="st0" width="46.6" height="7.9"/>
	<rect x="121.7" y="259.1" class="st0" width="26.1" height="39.2"/>
	<path class="st2" d="M150.9,244.6H67c-4.1,0-7.5-4.1-7.5-9.1v-85.2c0-5,3.3-9.1,7.5-9.1h83.9c4.1,0,7.5,4.1,7.5,9.1v85.2
		C158.4,240.5,155,244.6,150.9,244.6z"/>
	<ellipse class="st4" cx="80.5" cy="310.7" rx="12.9" ry="12.4"/>
	<ellipse class="st4" cx="134.7" cy="310.7" rx="12.9" ry="12.4"/>
	<rect x="67.6" y="323" class="st0" width="25.8" height="25.9"/>
	<rect x="121.8" y="323" class="st0" width="25.8" height="25.9"/>
	<rect x="111.1" y="252.6" class="st1" width="47.3" height="4.5"/>
	<polygon class="st0" points="92.2,54.4 79.6,66.5 67,54.4 79.6,42.3 	"/>
	<polygon class="st0" points="134.3,54.4 121.7,66.5 109,54.4 121.7,42.3 	"/>
	<polygon class="st1" points="67,54.4 92.2,54.4 79.6,66.5 	"/>
	<polygon class="st1" points="109,54.4 134.3,54.4 121.7,66.5 	"/>
	<rect x="178.2" y="152.9" class="st0" width="16.1" height="40"/>
	<rect x="161.3" y="135.3" class="st0" width="18.4" height="22.8"/>
	<rect x="36.4" y="136.3" class="st0" width="23.1" height="22.2"/>
	<ellipse class="st4" cx="186.8" cy="147.2" rx="14.7" ry="15.7"/>
	<polygon class="st1" points="158.4,201.8 121.8,221.4 135.9,231.6 158.4,218.6 	"/>
	<path class="st0" d="M78.3,166h-9.8c-1.7,0-3-1.3-3-2.9v-10c0-1.6,1.4-2.9,3-2.9h9.8c1.7,0,3,1.3,3,2.9v10
		C81.3,164.7,80,166,78.3,166z"/>
	<path class="st0" d="M101.6,166h-9.8c-1.7,0-3-1.3-3-2.9v-10c0-1.6,1.4-2.9,3-2.9h9.8c1.7,0,3,1.3,3,2.9v10
		C104.7,164.7,103.3,166,101.6,166z"/>
	<path class="st0" d="M125.2,166h-9.8c-1.7,0-3-1.3-3-2.9v-10c0-1.6,1.4-2.9,3-2.9h9.8c1.7,0,3,1.3,3,2.9v10
		C128.2,164.7,126.9,166,125.2,166z"/>
	<path class="st0" d="M148.1,166h-9.8c-1.7,0-3-1.3-3-2.9v-10c0-1.6,1.4-2.9,3-2.9h9.8c1.7,0,3,1.3,3,2.9v10
		C151.2,164.7,149.8,166,148.1,166z"/>
	<path class="st0" d="M78.3,188.3h-9.8c-1.7,0-3-1.3-3-2.9v-10c0-1.6,1.4-2.9,3-2.9h9.8c1.7,0,3,1.3,3,2.9v10
		C81.3,187,80,188.3,78.3,188.3z"/>
	<path class="st0" d="M101.6,188.3h-9.8c-1.7,0-3-1.3-3-2.9v-10c0-1.6,1.4-2.9,3-2.9h9.8c1.7,0,3,1.3,3,2.9v10
		C104.7,187,103.3,188.3,101.6,188.3z"/>
	<path class="st0" d="M125.2,188.3h-9.8c-1.7,0-3-1.3-3-2.9v-10c0-1.6,1.4-2.9,3-2.9h9.8c1.7,0,3,1.3,3,2.9v10
		C128.2,187,126.9,188.3,125.2,188.3z"/>
	<path class="st0" d="M148.1,188.3h-9.8c-1.7,0-3-1.3-3-2.9v-10c0-1.6,1.4-2.9,3-2.9h9.8c1.7,0,3,1.3,3,2.9v10
		C151.2,187,149.8,188.3,148.1,188.3z"/>
	<path class="st0" d="M78.3,210.3h-9.8c-1.7,0-3-1.3-3-2.9v-10c0-1.6,1.4-2.9,3-2.9h9.8c1.7,0,3,1.3,3,2.9v10
		C81.3,209,80,210.3,78.3,210.3z"/>
	<ellipse class="st4" cx="186.2" cy="193" rx="10.1" ry="9.7"/>
	<g>
		<ellipse class="st1" cx="65.4" cy="258.9" rx="2.2" ry="2.1"/>
		<path class="st2" d="M63.2,258.8c-0.8,0.8-8.5,4.5-8.5,0C54.8,254.3,63.2,258.8,63.2,258.8z"/>
		<path class="st2" d="M63.7,260.2c0,1-2.7,8.9-6,5.7C54.4,262.8,63.7,260.2,63.7,260.2z"/>
		<path class="st2" d="M65.3,261.4c0.8,0.7,4.7,8.1,0,8.1S65.3,261.4,65.3,261.4z"/>
		<path class="st2" d="M67,260.5c1.1,0,9.3,2.6,6,5.7C69.6,269.4,67,260.5,67,260.5z"/>
		<path class="st2" d="M67.7,259c0.8-0.8,8.5-4.5,8.5,0C76.1,263.4,67.7,259,67.7,259z"/>
		<path class="st2" d="M65.5,256.9c-0.8-0.7-4.7-8.1,0-8.1S65.5,256.9,65.5,256.9z"/>
		<path class="st2" d="M64,257.5c-1.1,0-9.3-2.6-6-5.7C61.3,248.6,64,257.5,64,257.5z"/>
		<path class="st2" d="M66.9,257.4c0-1,2.7-8.9,6-5.7C76.2,254.8,66.9,257.4,66.9,257.4z"/>
	</g>
	<rect x="21.3" y="152.3" class="st0" width="16.1" height="40"/>
	<ellipse class="st4" cx="29.3" cy="147.2" rx="14.7" ry="15.7"/>
	<polygon class="st0" points="87.9,189.1 33.1,200.7 30.1,187.6 84.9,175.9 	"/>
	<ellipse class="st4" cx="29.3" cy="193.8" rx="10.1" ry="9.7"/>
	<polygon class="st1" points="59.5,195.1 87.9,189.1 84.9,175.9 59.5,181.3 	"/>
	<ellipse class="st0" cx="92.3" cy="182.7" rx="14" ry="10.2"/>
	<ellipse class="st0" cx="125" cy="226.9" rx="14" ry="10.2"/>
	<path class="st0" d="M105.1,104.4h-8.2c-1.9,0-3.5-1.5-3.5-3.4V70.2c0-1.9,1.6-3.4,3.5-3.4h8.2c1.9,0,3.5,1.5,3.5,3.4v30.8
		C108.6,102.9,107,104.4,105.1,104.4z"/>
</g>
</svg>
