<?xml version="1.0" encoding="utf-8"?>
<!-- Generator: Adobe Illustrator 19.1.0, SVG Export Plug-In . SVG Version: 6.00 Build 0)  -->
<svg version="1.1" id="Layer_1" xmlns="http://www.w3.org/2000/svg" xmlns:xlink="http://www.w3.org/1999/xlink" x="0px" y="0px"
	 viewBox="-196 216.5 218.5 361.5" style="enable-background:new -196 216.5 218.5 361.5;" xml:space="preserve">
<style type="text/css">
	.st0{fill:#EF4137;}
	.st1{fill:#B93628;}
	.st2{fill:#F7E500;}
	.st3{fill:#0F172A;}
	.st4{fill:#003949;}
</style>
<g>
	<polygon class="st0" points="-54.4,465 -65.3,458.6 -32.6,440 -32.4,407.9 -20.8,414.6 -21.5,446.5 	"/>
	<g>
		<path class="st0" d="M-49.1,388.7H-123c-4.5,0-8.1-4.2-8.1-9.3v-62.7c0-5.1,3.7-9.3,8.1-9.3h73.8c4.5,0,8.1,4.2,8.1,9.3v62.7
			C-41,384.6-44.6,388.7-49.1,388.7z"/>
		<path class="st1" d="M-129.8,384.4l6.3-12h63.3l19.1,9.5c0,0-2.3,6.5-6.5,6.7c-4.2,0.2-77.1,0-77.1,0S-128.7,387.4-129.8,384.4z"
			/>
		<path class="st2" d="M-65.9,376.9h-52.2c-3.1,0-5.7-3-5.7-6.5V326c0-3.7,2.6-6.5,5.7-6.5h52.2c3.1,0,5.7,3,5.7,6.5v44.3
			C-60.2,373.9-62.7,376.9-65.9,376.9z"/>
		<ellipse class="st3" cx="-50.3" cy="324.9" rx="4.5" ry="5.2"/>
		<ellipse class="st3" cx="-50.3" cy="340.2" rx="4.5" ry="5.2"/>
	</g>
	<path class="st0" d="M-47.8,503.8h-76.4c-3.7,0-6.8-4.3-6.8-9.6v-90c0-5.3,3-9.6,6.8-9.6h76.4c3.7,0,6.8,4.3,6.8,9.6v90
		C-41,499.4-44.1,503.8-47.8,503.8z"/>
	<rect x="-117.3" y="492.3" class="st0" width="19.6" height="29.8"/>
	<rect x="-105.6" y="388.6" class="st0" width="35.5" height="6"/>
	<rect x="-76.1" y="492.3" class="st0" width="19.9" height="29.8"/>
	<path class="st2" d="M-53.8,481.3h-63.9c-3.1,0-5.7-3.1-5.7-6.9v-64.9c0-3.8,2.5-6.9,5.7-6.9h63.9c3.1,0,5.7,3.1,5.7,6.9v64.9
		C-48.1,478.2-50.7,481.3-53.8,481.3z"/>
	<ellipse class="st4" cx="-107.4" cy="531.6" rx="9.8" ry="9.4"/>
	<ellipse class="st4" cx="-66.2" cy="531.6" rx="9.8" ry="9.4"/>
	<rect x="-117.3" y="541" class="st0" width="19.6" height="19.7"/>
	<rect x="-76" y="541" class="st0" width="19.6" height="19.7"/>
	<rect x="-84.1" y="487.4" class="st1" width="36" height="3.4"/>
	<polygon class="st0" points="-98.5,336.5 -108.1,345.7 -117.7,336.5 -108.1,327.3 	"/>
	<polygon class="st0" points="-66.5,336.5 -76.1,345.7 -85.7,336.5 -76.1,327.3 	"/>
	<polygon class="st1" points="-117.7,336.5 -98.5,336.5 -108.1,345.7 	"/>
	<polygon class="st1" points="-85.7,336.5 -66.5,336.5 -76.1,345.7 	"/>
	<rect x="-33.1" y="411.5" class="st0" width="12.3" height="30.5"/>
	<rect x="-45.9" y="398.1" class="st0" width="14" height="17.4"/>
	<rect x="-141" y="398.9" class="st0" width="17.6" height="16.9"/>
	<ellipse class="st4" cx="-26.5" cy="407.2" rx="11.2" ry="12"/>
	<polygon class="st1" points="-48.1,448.7 -76,463.6 -65.3,471.4 -48.1,461.5 	"/>
	<path class="st0" d="M-109.1,421.5h-7.5c-1.3,0-2.3-1-2.3-2.2v-7.6c0-1.2,1.1-2.2,2.3-2.2h7.5c1.3,0,2.3,1,2.3,2.2v7.6
		C-106.8,420.5-107.8,421.5-109.1,421.5z"/>
	<path class="st0" d="M-91.4,421.5h-7.5c-1.3,0-2.3-1-2.3-2.2v-7.6c0-1.2,1.1-2.2,2.3-2.2h7.5c1.3,0,2.3,1,2.3,2.2v7.6
		C-89,420.5-90.1,421.5-91.4,421.5z"/>
	<path class="st0" d="M-73.4,421.5h-7.5c-1.3,0-2.3-1-2.3-2.2v-7.6c0-1.2,1.1-2.2,2.3-2.2h7.5c1.3,0,2.3,1,2.3,2.2v7.6
		C-71.1,420.5-72.1,421.5-73.4,421.5z"/>
	<path class="st0" d="M-56,421.5h-7.5c-1.3,0-2.3-1-2.3-2.2v-7.6c0-1.2,1.1-2.2,2.3-2.2h7.5c1.3,0,2.3,1,2.3,2.2v7.6
		C-53.6,420.5-54.7,421.5-56,421.5z"/>
	<path class="st0" d="M-109.1,438.4h-7.5c-1.3,0-2.3-1-2.3-2.2v-7.6c0-1.2,1.1-2.2,2.3-2.2h7.5c1.3,0,2.3,1,2.3,2.2v7.6
		C-106.8,437.5-107.8,438.4-109.1,438.4z"/>
	<path class="st0" d="M-91.4,438.4h-7.5c-1.3,0-2.3-1-2.3-2.2v-7.6c0-1.2,1.1-2.2,2.3-2.2h7.5c1.3,0,2.3,1,2.3,2.2v7.6
		C-89,437.5-90.1,438.4-91.4,438.4z"/>
	<path class="st0" d="M-73.4,438.4h-7.5c-1.3,0-2.3-1-2.3-2.2v-7.6c0-1.2,1.1-2.2,2.3-2.2h7.5c1.3,0,2.3,1,2.3,2.2v7.6
		C-71.1,437.5-72.1,438.4-73.4,438.4z"/>
	<path class="st0" d="M-56,438.4h-7.5c-1.3,0-2.3-1-2.3-2.2v-7.6c0-1.2,1.1-2.2,2.3-2.2h7.5c1.3,0,2.3,1,2.3,2.2v7.6
		C-53.6,437.5-54.7,438.4-56,438.4z"/>
	<path class="st0" d="M-109.1,455.2h-7.5c-1.3,0-2.3-1-2.3-2.2v-7.6c0-1.2,1.1-2.2,2.3-2.2h7.5c1.3,0,2.3,1,2.3,2.2v7.6
		C-106.8,454.2-107.8,455.2-109.1,455.2z"/>
	<ellipse class="st4" cx="-27" cy="442" rx="7.7" ry="7.4"/>
	<g>
		<ellipse class="st1" cx="-118.9" cy="492.2" rx="1.7" ry="1.6"/>
		<path class="st2" d="M-120.6,492.1c-0.6,0.6-6.5,3.4-6.5,0C-127,488.7-120.6,492.1-120.6,492.1z"/>
		<path class="st2" d="M-120.2,493.2c0,0.8-2.1,6.8-4.6,4.3C-127.3,495.2-120.2,493.2-120.2,493.2z"/>
		<path class="st2" d="M-119,494.1c0.6,0.5,3.6,6.2,0,6.2S-119,494.1-119,494.1z"/>
		<path class="st2" d="M-117.7,493.4c0.8,0,7.1,2,4.6,4.3C-115.7,500.2-117.7,493.4-117.7,493.4z"/>
		<path class="st2" d="M-117.2,492.3c0.6-0.6,6.5-3.4,6.5,0C-110.8,495.6-117.2,492.3-117.2,492.3z"/>
		<path class="st2" d="M-118.9,490.7c-0.6-0.5-3.6-6.2,0-6.2S-118.9,490.7-118.9,490.7z"/>
		<path class="st2" d="M-120,491.1c-0.8,0-7.1-2-4.6-4.3C-122,484.4-120,491.1-120,491.1z"/>
		<path class="st2" d="M-117.8,491c0-0.8,2.1-6.8,4.6-4.3C-110.7,489.1-117.8,491-117.8,491z"/>
	</g>
	<rect x="-152.5" y="411" class="st0" width="12.3" height="30.5"/>
	<ellipse class="st4" cx="-146.4" cy="407.2" rx="11.2" ry="12"/>
	<polygon class="st0" points="-101.8,439.1 -143.5,447.9 -145.8,437.9 -104.1,429 	"/>
	<ellipse class="st4" cx="-146.4" cy="442.6" rx="7.7" ry="7.4"/>
	<polygon class="st1" points="-123.4,443.6 -101.8,439.1 -104.1,429 -123.4,433.1 	"/>
	<ellipse class="st0" cx="-98.4" cy="434.2" rx="10.7" ry="7.8"/>
	<ellipse class="st0" cx="-73.6" cy="467.8" rx="10.7" ry="7.8"/>
	<path class="st0" d="M-88.7,374.6h-6.2c-1.4,0-2.7-1.1-2.7-2.6v-23.4c0-1.4,1.2-2.6,2.7-2.6h6.2c1.4,0,2.7,1.1,2.7,2.6V372
		C-86,373.4-87.3,374.6-88.7,374.6z"/>
</g>
</svg>
