<?xml version="1.0" encoding="utf-8"?>
<!-- Generator: Adobe Illustrator 17.1.0, SVG Export Plug-In . SVG Version: 6.00 Build 0)  -->
<!DOCTYPE svg PUBLIC "-//W3C//DTD SVG 1.1//EN" "http://www.w3.org/Graphics/SVG/1.1/DTD/svg11.dtd">
<svg version="1.1" id="Layer_1" xmlns="http://www.w3.org/2000/svg" xmlns:xlink="http://www.w3.org/1999/xlink" x="0px" y="0px"
	 viewBox="0 0 76.2 76.2" style="enable-background:new 0 0 76.2 76.2;" xml:space="preserve">
<style type="text/css">
	.st0{fill:#013243;}
	.st1{fill:#002939;}
	.st2{fill:#EF4137;}
	.st3{fill:#003949;}
</style>
<g>
	<path class="st0" d="M68.5,38.9c0,16.2-13.4,29.3-29.9,29.3S8.7,55.1,8.7,38.9S22.1,9.5,38.6,9.5S68.5,22.7,68.5,38.9"/>
	<path class="st1" d="M43.4,47.9c-2.8-3.8-3.9-12.5,5.7-12.5s16.4,0.4,17.7-1.3c1.3-1.7-6.2,10.6-11.5,12.4
		C50.1,48.3,43.4,47.9,43.4,47.9"/>
	<path class="st1" d="M33.6,47.9c2.8-3.8,3.9-12.5-5.7-12.5s-16.4,0.4-17.7-1.3c-1.3-1.7,6.2,10.6,11.5,12.4
		C27,48.3,33.6,47.9,33.6,47.9"/>
	<path class="st0" d="M33.7,47.9c0,3.2-2.7,5.9-6,5.9s-6-2.6-6-5.9c0-3.2,2.7-5.9,6-5.9S33.7,44.7,33.7,47.9"/>
	<path class="st0" d="M55.3,47.9c0,3.2-2.7,5.9-6,5.9s-6-2.6-6-5.9c0-3.2,2.7-5.9,6-5.9S55.3,44.7,55.3,47.9"/>
	<path class="st2" d="M32.2,48.2c0,2.4-2,4.4-4.5,4.4c-2.5,0-4.5-2-4.5-4.4c0-2.4,2-4.4,4.5-4.4C30.2,43.8,32.2,45.7,32.2,48.2"/>
	<path class="st2" d="M53.9,48.2c0,2.4-2,4.4-4.5,4.4c-2.5,0-4.5-2-4.5-4.4c0-2.4,2-4.4,4.5-4.4C51.8,43.8,53.9,45.7,53.9,48.2"/>
	<path class="st1" d="M31.9,45.9c1.3,2.4,0.3,5.3-2.1,6.5c-2.4,1.2-5.4,0.3-6.7-2c-1.3-2.4-0.3-5.3,2.1-6.5
		C27.7,42.6,30.7,43.6,31.9,45.9"/>
	<path class="st3" d="M27.2,47.9c-1.5,1.5-2.8,2.7-2.8,2.7c-1.5-1.4-1.4-3.8,0.2-5.3c1.6-1.5,4-1.6,5.4-0.1
		C30,45.2,28.7,46.4,27.2,47.9"/>
	<path class="st1" d="M53.7,45.9c1.3,2.4,0.3,5.3-2.1,6.5c-2.4,1.2-5.4,0.3-6.7-2c-1.3-2.4-0.3-5.3,2.1-6.5
		C49.5,42.6,52.5,43.6,53.7,45.9"/>
	<path class="st3" d="M49,47.9c-1.5,1.5-2.8,2.7-2.8,2.7c-1.5-1.4-1.4-3.8,0.2-5.3c1.6-1.5,4-1.6,5.4-0.1
		C51.8,45.2,50.5,46.4,49,47.9"/>
</g>
</svg>
