<?xml version="1.0" encoding="utf-8"?>
<!-- Generator: Adobe Illustrator 19.1.0, SVG Export Plug-In . SVG Version: 6.00 Build 0)  -->
<svg version="1.1" id="Layer_1" xmlns="http://www.w3.org/2000/svg" xmlns:xlink="http://www.w3.org/1999/xlink" x="0px" y="0px"
	 viewBox="78 190 768 414" style="enable-background:new 78 190 768 414;" xml:space="preserve">
<style type="text/css">
	.st0{display:none;fill:#003949;}
	.st1{fill:none;}
	.st2{enable-background:new    ;}
	.st3{fill:#FAAF37;}
	.st4{fill:#F8AE36;}
	.st5{fill:#EF4137;}
	.st6{display:none;fill:#FFFFFF;}
	.st7{fill:#F05323;}
	.st8{fill:#706D6E;}
	.st9{fill:#83C441;}
	.st10{fill:#2CAAE2;}
	.st11{fill:#F9BC15;}
	.st12{clip-path:url(#SVGID_2_);}
	.st13{fill:#F5E202;}
	.link-hack{fill:transparent}
</style>
<rect x="153.3" y="92.4" class="st0" width="770.7" height="763.9"/>
<rect x="154" y="-57" class="st1" width="620" height="293.8"/>
<text transform="matrix(1 0 0 1 344.8799 -15.4811)" class="st3" style="font-family:'Avenir-Black'; font-size:55px;">Sponsors</text>
<text transform="matrix(1 0 0 1 153.9799 40.9188)" class="st4" style="font-family:'Avenir-Light'; font-size:24px;">These</text>
<text transform="matrix(1 0 0 1 217.9799 40.9188)" class="st4" style="font-family:'Avenir-Light'; font-size:24px; letter-spacing:3;"> </text>
<text transform="matrix(1 0 0 1 228.6799 40.9188)" class="st4" style="font-family:'Avenir-Light'; font-size:24px;">are</text>
<text transform="matrix(1 0 0 1 262.4799 40.9188)" class="st4" style="font-family:'Avenir-Light'; font-size:24px; letter-spacing:3;"> </text>
<text transform="matrix(1 0 0 1 273.0799 40.9188)" class="st4" style="font-family:'Avenir-Light'; font-size:24px;">the</text>
<text transform="matrix(1 0 0 1 307.7798 40.9188)" class="st4" style="font-family:'Avenir-Light'; font-size:24px; letter-spacing:3;"> </text>
<text transform="matrix(1 0 0 1 318.3799 40.9188)" class="st4" style="font-family:'Avenir-Light'; font-size:24px;">factory’s</text>
<text transform="matrix(1 0 0 1 407.3799 40.9188)" class="st4" style="font-family:'Avenir-Light'; font-size:24px; letter-spacing:3;"> </text>
<text transform="matrix(1 0 0 1 417.9799 40.9188)" class="st4" style="font-family:'Avenir-Light'; font-size:24px;">collaborators.</text>
<text transform="matrix(1 0 0 1 563.7798 40.9188)" class="st4" style="font-family:'Avenir-Light'; font-size:24px; letter-spacing:3;"> </text>
<text transform="matrix(1 0 0 1 574.4799 40.9188)" class="st4" style="font-family:'Avenir-Light'; font-size:24px;">The</text>
<text transform="matrix(1 0 0 1 614.8799 40.9188)" class="st4" style="font-family:'Avenir-Light'; font-size:24px; letter-spacing:3;"> </text>
<text transform="matrix(1 0 0 1 625.5798 40.9188)" class="st4" style="font-family:'Avenir-Light'; font-size:24px;">ones</text>
<text transform="matrix(1 0 0 1 676.7798 40.9188)" class="st4" style="font-family:'Avenir-Light'; font-size:24px; letter-spacing:3;"> </text>
<text transform="matrix(1 0 0 1 687.3799 40.9188)" class="st4" style="font-family:'Avenir-Light'; font-size:24px;">that</text>
<text transform="matrix(1 0 0 1 729.1799 40.9188)" class="st4" style="font-family:'Avenir-Light'; font-size:24px; letter-spacing:3;"> </text>
<text transform="matrix(1 0 0 1 739.7798 40.9188)" class="st4" style="font-family:'Avenir-Light'; font-size:24px;">will </text>
<text transform="matrix(1 0 0 1 153.9799 76.1188)" class="st4" style="font-family:'Avenir-Light'; font-size:24px;">bring</text>
<text transform="matrix(1 0 0 1 210.3799 76.1188)" class="st4" style="font-family:'Avenir-Light'; font-size:24px;"> </text>
<text transform="matrix(1 0 0 1 218.3799 76.1188)" class="st4" style="font-family:'Avenir-Light'; font-size:24px;">you</text>
<text transform="matrix(1 0 0 1 257.0799 76.1188)" class="st4" style="font-family:'Avenir-Light'; font-size:24px;"> </text>
<text transform="matrix(1 0 0 1 265.0799 76.1188)" class="st4" style="font-family:'Avenir-Light'; font-size:24px;">the</text>
<text transform="matrix(1 0 0 1 299.7799 76.1188)" class="st4" style="font-family:'Avenir-Light'; font-size:24px;"> </text>
<text transform="matrix(1 0 0 1 307.7798 76.1188)" class="st4" style="font-family:'Avenir-Light'; font-size:24px;">hippest,</text>
<text transform="matrix(1 0 0 1 393.9799 76.1188)" class="st4" style="font-family:'Avenir-Light'; font-size:24px;"> </text>
<text transform="matrix(1 0 0 1 401.9799 76.1188)" class="st4" style="font-family:'Avenir-Light'; font-size:24px;">coolest</text>
<text transform="matrix(1 0 0 1 479.2798 76.1188)" class="st4" style="font-family:'Avenir-Light'; font-size:24px;"> </text>
<text transform="matrix(1 0 0 1 487.2798 76.1188)" class="st4" style="font-family:'Avenir-Light'; font-size:24px;">hardware,</text>
<text transform="matrix(1 0 0 1 592.6798 76.1188)" class="st4" style="font-family:'Avenir-Light'; font-size:24px;"> </text>
<text transform="matrix(1 0 0 1 600.6798 76.1188)" class="st4" style="font-family:'Avenir-Light'; font-size:24px;">lead</text>
<text transform="matrix(1 0 0 1 646.8799 76.1188)" class="st4" style="font-family:'Avenir-Light'; font-size:24px;"> </text>
<text transform="matrix(1 0 0 1 654.8799 76.1188)" class="st4" style="font-family:'Avenir-Light'; font-size:24px;">some</text>
<text transform="matrix(1 0 0 1 713.1799 76.1188)" class="st4" style="font-family:'Avenir-Light'; font-size:24px;"> </text>
<text transform="matrix(1 0 0 1 721.0799 76.1188)" class="st4" style="font-family:'Avenir-Light'; font-size:24px;">Hack </text>
<text transform="matrix(1 0 0 1 153.9799 111.3188)" class="st4" style="font-family:'Avenir-Light'; font-size:24px;">SChools,</text>
<text transform="matrix(1 0 0 1 248.2799 111.3188)" class="st4" style="font-family:'Avenir-Light'; font-size:24px; letter-spacing:3;"> </text>
<text transform="matrix(1 0 0 1 258.1799 111.3188)" class="st4" style="font-family:'Avenir-Light'; font-size:24px;">and</text>
<text transform="matrix(1 0 0 1 298.5799 111.3188)" class="st4" style="font-family:'Avenir-Light'; font-size:24px; letter-spacing:3;"> </text>
<text transform="matrix(1 0 0 1 308.4799 111.3188)" class="st4" style="font-family:'Avenir-Light'; font-size:24px;">be</text>
<text transform="matrix(1 0 0 1 336.4799 111.3188)" class="st4" style="font-family:'Avenir-Light'; font-size:24px; letter-spacing:3;"> </text>
<text transform="matrix(1 0 0 1 346.3799 111.3188)" class="st4" style="font-family:'Avenir-Light'; font-size:24px;">advisors</text>
<text transform="matrix(1 0 0 1 433.0798 111.3188)" class="st4" style="font-family:'Avenir-Light'; font-size:24px; letter-spacing:3;"> </text>
<text transform="matrix(1 0 0 1 442.8799 111.3188)" class="st4" style="font-family:'Avenir-Light'; font-size:24px;">and</text>
<text transform="matrix(1 0 0 1 483.3799 111.3188)" class="st4" style="font-family:'Avenir-Light'; font-size:24px; letter-spacing:3;"> </text>
<text transform="matrix(1 0 0 1 493.2798 111.3188)" class="st4" style="font-family:'Avenir-Light'; font-size:24px;">collaborators</text>
<text transform="matrix(1 0 0 1 632.8799 111.3188)" class="st4" style="font-family:'Avenir-Light'; font-size:24px; letter-spacing:3;"> </text>
<text transform="matrix(1 0 0 1 642.6798 111.3188)" class="st4" style="font-family:'Avenir-Light'; font-size:24px;">while</text>
<text transform="matrix(1 0 0 1 697.8799 111.3188)" class="st4" style="font-family:'Avenir-Light'; font-size:24px; letter-spacing:3;"> </text>
<text transform="matrix(1 0 0 1 707.6799 111.3188)" class="st4" style="font-family:'Avenir-Light'; font-size:24px;">you’re </text>
<text transform="matrix(1 0 0 1 192.2799 146.5189)" class="st4" style="font-family:'Avenir-Light'; font-size:24px;">building your project. They’re invaluable resources.</text>
<a xlink:href="//www.disney.com/" xlink:title="Disney" xlink:show="new">
	<rect class="link-hack" x="498" y="461" width="277" height="119"/>
	<g>
		<path class="st4" d="M651.4,504.8c-0.6,0-1.7,0.1-2.8,0.1c-2.9,0.2-5.8,0.6-8.6,1.3c-2.6,0.6-5.1,1.5-7.4,2.9
			c-1.9,1.2-3.5,2.7-4.4,4.8c-0.6,1.4-0.9,2.9-0.7,4.5c0.2,1.9,1.3,3.1,2.9,3.8c1.1,0.5,2.3,0.7,3.4,0.8c2.9,0.3,5.8,0.6,8.7,0.8
			c3,0.3,6.1,0.6,9.1,1.1c1.7,0.3,3.3,0.7,4.9,1.4c0.9,0.4,1.6,1,2.3,1.6c0.1,0.1,0.1,0.2,0.2,0.3c0.3,0.6,0.2,1.2-0.2,1.8
			c-0.3,0.4-0.7,0.8-1.1,1.1c-2.1,1.5-4.5,2.4-7,3.1c-3.6,0.9-7.2,1.2-10.9,1.1c-1.7-0.1-3.3-0.4-4.9-1.1c-0.5-0.2-0.9-0.5-1.3-0.8
			c-1-0.9-1-2.1,0-2.9c0.3-0.2,0.6-0.4,1-0.5c0.8-0.3,1.6-0.4,2.4-0.2c0.9,0.2,1.8,0.4,2.6,0.7c1.5,0.6,3,1.2,4.5,1.8
			c1.6,0.7,3.3,0.9,5.1,0.6c1.5-0.3,3-0.6,4.4-1.4c0.5-0.3,1-0.6,1.4-1.1c0.6-0.6,0.4-1.4-0.3-1.9c-0.1-0.1-0.3-0.2-0.4-0.2
			c-1.4-0.6-2.7-1.2-4.1-1.6c-2.2-0.7-4.5-1.1-6.8-1.4c-2.3-0.3-4.6-0.3-7,0.1c-1.5,0.3-3,0.8-4.3,1.7c-1.8,1.3-2.8,3-2.7,5.2
			c0,1.4,0.6,2.6,1.4,3.8c1.6,2.1,3.7,3.6,6,4.8c5.4,2.7,11,3.5,16.9,2.4c2.3-0.4,4.4-1.2,6.4-2.4c2.3-1.5,4.1-3.4,4.9-6
			c0.8-2.7,0.8-5.4-0.1-8c-1-3-2.9-5-5.9-6.1c-1.7-0.6-3.5-1-5.4-1.3s-3.9-0.5-5.8-0.8c-2.6-0.3-5.2-0.6-7.8-0.9
			c-1.3-0.2-2.6-0.3-3.9-0.6c-0.4-0.1-0.9-0.2-1.2-0.4c-0.5-0.2-0.5-0.6-0.1-0.9c0.2-0.2,0.5-0.3,0.8-0.4c0.9-0.2,1.7-0.5,2.6-0.7
			c3.3-0.7,6.6-0.9,9.9-1.1c2.4-0.1,4.8-0.2,7.2-0.3c2-0.1,4-0.3,6-0.5c1-0.1,2-0.3,2.9-0.8c1.1-0.6,1.8-1.4,2.1-2.6
			c0.2-0.9,0.1-1.4-0.7-1.9c-0.2-0.1-0.3-0.2-0.5-0.3c-1-0.4-2.1-0.9-3.2-1.2C658.9,505.1,655.4,504.8,651.4,504.8z M713.6,532.9
			c0.2-0.7,0.3-1.3,0.5-1.9c0.5-1.6,1.1-3.2,1.6-4.8c0.1-0.4,0.3-0.5,0.7-0.6c0.9-0.1,1.7-0.2,2.6-0.2c3.1-0.1,6.1-0.1,9.2-0.2
			c0.3,0,0.7-0.1,1-0.1c0.8-0.2,1.3-0.6,1.4-1.4c0.2-1.1,0.2-2.2-0.1-3.2c-0.3-1.2-1.2-1.7-2.3-1.8c-0.7-0.1-1.4-0.1-2.1-0.1
			c-1.1,0-2.3,0-3.4,0.1c-0.8,0-1.7,0-2.5,0c-0.6,0-1.3,0-2,0c0.5-1.8,1-3.4,1.5-5.1c0.3,0,0.5,0,0.7,0c1.6,0,3.3,0,4.9,0
			c2.6,0,5.2-0.1,7.8-0.6c0.9-0.2,1.8-0.4,2.7-0.8c1.1-0.4,1.5-1.3,1.1-2.4c-0.1-0.5-0.3-0.9-0.6-1.3c-0.5-0.7-1-1.4-1.5-2
			c-1.7-2-4-2.8-6.6-2.7c-2.3,0.1-4.7,0.4-7,0.6c-3.9,0.4-7.8,0.9-11.7,1.7c-0.9,0.2-1.8,0.4-2.7,0.7c-1.1,0.4-1.4,1.2-1,2.3
			c0.4,1,1.1,1.7,2,2.2c0.6,0.3,1.2,0.5,1.9,0.8c0.9,0.3,1.8,0.5,2.7,0.8c0,0.1,0,0.3-0.1,0.4c-0.5,1.5-1.1,3-1.6,4.5
			c-0.1,0.3-0.3,0.7-0.5,1c-0.2,0.4-0.6,0.7-1.1,0.7c-0.4,0-0.8,0.1-1.2,0.3c-1.3,0.5-1.8,1.4-1.6,2.8c0.2,1,0.4,2,0.6,3.1
			c0.1,0.4,0.1,0.8-0.1,1.2c-0.3,0.7-0.6,1.5-0.9,2.2c-0.6,1.3-1,2.6-1.2,4c-0.4,2.4-0.2,4.6,0.9,6.8c0.7,1.3,1.5,2.6,2.7,3.4
			c2,1.3,4.1,1.9,6.5,1.6c0.7-0.1,1.3-0.2,2-0.3c4.7-1.1,9-3.2,12.9-6.1c0.5-0.4,1-0.8,1.4-1.3c0.5-0.5,0.7-1.1,0.6-1.8
			c-0.1-0.8-0.3-1.6-0.7-2.3c-1.1-1.8-1.8-2.2-3.8-1.8c-3.6,0.6-7.2,1.1-10.8,1.7C715.6,532.9,714.7,533.1,713.6,532.9z
			 M677.5,520.1c0.6,0.2,0.8,0.5,1,0.9c1.2,2.3,2.4,4.5,3.6,6.8c1.7,3.2,3.5,6.4,5.6,9.4c0.8,1.1,1.6,2.2,2.6,3.1
			c0.7,0.7,1.6,1,2.6,1c2,0,3.7-0.7,5-2.2c1.2-1.4,2.1-3,2.7-4.7c0.8-2.7,1.1-5.5,1.1-8.3c0-3.1-0.4-6.3-1.2-9.3
			c-1.2-4.8-3-9.3-6-13.3c-0.9-1.2-1.8-2.3-3-3.3c-0.5-0.4-1.1-0.7-1.7-0.9c-0.9-0.2-1.6,0.2-1.7,1.1c-0.1,0.4-0.1,0.7-0.1,1.1
			c0.1,0.6,0.2,1.2,0.3,1.8c0.8,2.9,1.6,5.8,2.3,8.7c0.8,3,1.5,5.9,2,9c0.4,2.3,0.6,4.7,0.7,7.1c0,0.4,0,0.9,0,1.3
			c0,0.4-0.3,0.5-0.6,0.3s-0.5-0.4-0.7-0.7c-0.5-0.7-1-1.5-1.5-2.2c-3.4-5.3-6.9-10.6-10.5-15.8c-0.4-0.6-0.9-1.2-1.3-1.8
			c-0.5-0.6-1.2-1.1-2-1.4c-0.9-0.3-1.7-0.1-2.3,0.6c-0.3,0.4-0.7,0.8-0.9,1.3c-0.6,1.5-1.2,3-1.7,4.6c-1.4,4.3-2.3,8.7-2.8,13.2
			c-0.4,3.1-0.6,6.3-0.2,9.5c0.1,1.4,0.5,2.8,1.1,4.1c0.7,1.3,1.7,2.2,3.1,2.5c1.1,0.2,2.1-0.2,2.7-1.1c0.2-0.4,0.4-0.8,0.5-1.3
			c0.5-1.7,0.6-3.4,0.7-5.1c0.1-2.5,0.2-5.1,0.3-7.6c0.1-2.2,0.2-4.4,0.3-6.6C677.3,521.3,677.4,520.8,677.5,520.1z M614.3,497.9
			c0.9,0.2,1.7,0.4,2.5,0.6c0.6,0.1,1.1,0.2,1.7,0.3c0.9,0.1,1.8,0.1,2.6,0.1c3.2-0.3,6.2-1.4,9-2.8c3.6-1.9,6.7-4.4,9.4-7.3
			c1.5-1.6,2.6-3.4,3.2-5.6c0.6-2.3,0.4-4.5-1.1-6.4c-1.3-1.7-3.1-2.7-5.2-3.1c-0.5-0.1-0.8-0.3-1.1-0.6c-0.3-0.4-0.6-0.7-1-1
			c-1.7-1.4-3.6-2.1-5.8-2.2c-2.1-0.1-4.1,0.1-6.1,0.6c-4.3,1.1-8.1,3.3-11.4,6.3c-1.9,1.7-3.5,3.7-4.6,6.1c-1.5,3.6-1.3,7,1,10.2
			c0.1,0.2,0.2,0.3,0.3,0.5c0.4,0.6,0.6,1.2,0.5,2c0,0.4,0,0.8,0,1.2c0.1,1.5,0.6,2.7,1.7,3.8c0.9,0.9,2,0.9,2.9-0.1
			c0.4-0.4,0.6-1,0.9-1.5C614,498.4,614.2,498.1,614.3,497.9z M614.5,529.1c0.1,2.6,0.2,5.5,0.4,8.4c0.1,1.1,0.3,2.2,0.6,3.2
			c0.4,1.5,1.5,2.4,3,2.7c0.8,0.2,1.7,0.2,2.5,0.1c1.6-0.1,2.6-1,2.9-2.6c0.2-0.8,0.2-1.7,0.3-2.5c0-1.4,0-2.7-0.1-4.1
			c-0.1-2-0.1-4.1-0.2-6.1c-0.1-3.1-0.3-6.2-0.5-9.3c-0.2-2.7-0.4-5.3-0.9-8c-0.2-1.1-0.4-2.2-0.9-3.2c-0.5-1.2-1.4-2-2.7-2.4
			c-0.5-0.1-0.9,0-1.3,0.3c-0.3,0.3-0.5,0.7-0.7,1.1c-0.3,0.7-0.5,1.4-0.7,2.2c-0.8,3.2-1.2,6.4-1.4,9.7
			C614.7,522,614.6,525.4,614.5,529.1z"/>
		<path class="st4" d="M528,461.7c0.8,0.1,1.6,0.2,2.4,0.2c9,0.7,17.6,3,26.1,6c4.3,1.6,8.6,3.3,12.7,5.4c6,3,11.7,6.4,17.1,10.5
			c4.7,3.6,9.1,7.5,13,12c2.2,2.5,4.2,5.2,5.8,8.1c1.2,2.1,2.3,4.3,3.1,6.6c1,2.9,1.6,5.8,1.4,8.9c-0.2,3.9-1.2,7.6-3.1,11
			c-3,5.3-7.1,9.4-12.5,12.2c-4.4,2.3-9.1,3.8-14,4.8c-3.5,0.7-7.1,1.1-10.7,1.2c-5.1,0.1-10.1-0.4-15.1-1.5
			c-0.8-0.2-1.5-0.3-2.3-0.5c0,0,0,0-0.2,0c0,0.3-0.1,0.7-0.1,1c0,0.9-0.2,1.7-0.4,2.5c-0.3,0.9-1,1.6-1.9,1.8
			c-1.1,0.3-2.1,0.4-3.2,0.2c-1.7-0.3-2.8-1.2-3.5-2.7c-0.5-1.1-0.6-2.3-0.8-3.4c-0.1-0.9-0.2-1.9-0.3-2.8c0-0.5-0.2-0.7-0.7-0.9
			c-2.9-1.3-5.6-2.8-8.3-4.5c-4.4-2.8-8.4-6.1-12-9.9c-1.4-1.5-2.6-3.1-3.5-4.9c-0.4-0.7-0.7-1.5-0.9-2.3c-0.4-2,0.1-3.7,1.3-5.3
			c0.7-0.9,1.6-1.7,2.5-2.4c2.4-1.7,5-2.9,7.7-3.9c3.1-1.1,6.3-2.1,9.5-2.8c1.2-0.2,2.4-0.4,3.6-0.6c0.1,0,0.2,0,0.3-0.1
			c0.5-0.1,0.6-0.2,0.6-0.7c0-0.8,0.1-1.6,0.1-2.3c-0.1-2.4,0.3-4.7,0.5-7c0.2-1.6,0.4-3.3,0.7-4.9c0.2-1.2,0.6-2.4,0.9-3.6
			c0.1-0.3,0.2-0.5,0.3-0.8c0.4-0.9,1.2-1,1.9-0.7s1.2,0.9,1.6,1.5c0.9,1.2,1.4,2.6,1.9,4c0.7,2.2,1.1,4.5,1.3,6.9
			c0.1,2,0.2,4.1,0.3,6.1c0,0.1,0,0.3,0,0.4c0.6,0,1.2,0,1.7,0c2.8-0.1,5.6-0.1,8.4,0.3c3.6,0.5,7.2,1.1,10.8,2.1
			c1.8,0.5,3.6,1.1,5.2,1.9c2.1,1.1,3.9,2.5,5.3,4.4c1.1,1.5,1.6,3.2,1.5,5.1c0,0.6-0.2,1.2-0.4,1.7c-1.1,2.8-3.1,4.7-6,5.5
			c-1.3,0.4-2.6,0.1-3.8-0.1c-0.6-0.1-1.2-0.3-1.7-0.5c-0.3-0.1-0.6-0.3-0.6-0.8c0-0.4,0.2-0.7,0.5-0.9c0.7-0.3,1.3-0.7,1.9-1.1
			c0.7-0.4,1.4-0.9,1.9-1.6c0.6-0.8,0.5-1.6-0.2-2.2c-0.5-0.4-1-0.7-1.6-0.9c-2.2-0.9-4.6-1.4-6.9-1.9c-3.3-0.7-6.7-1.3-10.1-1.6
			c-1.9-0.2-3.8-0.2-5.7-0.3c-0.2,0.5,0.3,23.6,0.5,25.1c0.3,0.1,0.6,0.1,0.8,0.2c2.4,0.5,4.8,0.7,7.3,0.9s5,0.2,7.5,0.1
			c4.9-0.2,9.7-0.8,14.4-2.3c3.6-1.2,7-2.8,10-5.1c3.8-2.9,6.2-6.7,6.9-11.5c0.5-3.1,0.1-6.1-1-9c-1.5-4.1-3.7-7.8-6.4-11.2
			c-3.7-4.6-8-8.5-12.8-11.9c-7.7-5.6-16.2-9.9-25.1-13.1c-5.8-2.1-11.7-3.8-17.7-4.9c-3.1-0.6-6.3-1-9.4-1.3
			c-3.8-0.4-7.6-0.5-11.5-0.3c-2.5,0.1-5,0.3-7.5,0.8c-1,0.2-2.1,0.5-3.1,0.8c-0.3,0.1-0.5,0.2-0.9,0.4c0.4,0.3,0.8,0.4,1.2,0.4
			c0.7,0.1,1.4,0.2,2.1,0.3c0.6,0.1,1.1,0.3,1.6,0.8c0.8,0.8,0.6,1.8-0.5,2.2c-0.4,0.2-0.9,0.3-1.3,0.3c-1.6,0.1-3.2,0-4.7-0.4
			c-0.6-0.2-1.3-0.4-1.8-0.9c-0.2-0.3-0.4-0.6-0.6-0.9c0-0.5,0-1,0-1.5c0.1-0.2,0.2-0.4,0.3-0.6c0.7-1.8,1.6-3.4,3.1-4.6
			c1.4-1.2,3-1.9,4.8-2.4c3.9-1,7.8-1.7,11.8-2.1c0.8-0.1,1.6-0.2,2.4-0.3C523.8,461.7,525.9,461.7,528,461.7z M541.3,514.2
			c-0.5,0-0.9,0.1-1.2,0.1c-3.5,0.2-7,0.6-10.5,1.3c-2.4,0.5-4.9,0.9-7.2,1.8c-0.9,0.3-1.8,0.8-2.6,1.3c-1,0.6-1.2,1.4-0.6,2.6
			c0.3,0.5,0.6,1,1,1.3c1.4,1.3,2.7,2.8,4.2,3.9c5,3.9,10.5,7.1,16.5,9.2c0.2,0.1,0.3,0.1,0.5,0.1
			C541.3,528.7,541.3,521.5,541.3,514.2z"/>
		<path class="st4" d="M737.9,578.5c-0.6-0.4-1.2-0.7-1.9-1.1c-2.3-1.3-3.5-3.3-3.8-5.9c-0.2-1.9-0.2-3.8,0.1-5.7
			c0.4-3.2,0.9-6.4,1.6-9.6c0.8-4,2.1-7.8,3.4-11.7c0.6-1.5,1.1-3,1.7-4.5c0.2-0.5,0.2-0.8,0-1.3c-1.2-2.7-1.8-5.5-1.7-8.4
			c0.1-3.2,0.9-6.3,2.1-9.3c1.7-4.2,4.2-8,7-11.6c0.9-1.1,1.8-2.1,2.8-3.1c0.3-0.4,0.8-0.7,1.2-0.9c0.9-0.5,1.7-0.2,2,0.8
			c0.2,0.7,0.1,1.4-0.1,2.1c-0.5,2.1-1.4,4.1-2.5,6c-1.1,2-2.3,4-3.4,6c-1.4,2.7-2.4,5.6-2.8,8.7c-0.1,0.7,0,1.4,0.2,2.3
			c0.2-0.3,0.4-0.4,0.5-0.6c2-2.6,3.9-5.3,5.9-7.9c1.5-2,3.3-3.8,5-5.6c1.6-1.6,3.1-3.1,4.8-4.6c1.2-1.2,2.7-2.1,4.3-2.8
			c0.9-0.4,1.9-0.7,2.9-0.7c1.6,0.1,2.8,0.9,3.8,2c1.6,1.6,2.4,3.7,2.9,5.8c0.1,0.6,0.2,1.2,0.3,1.8c0,0.2,0.1,0.3,0.1,0.5
			c0,1.8,0,3.6,0,5.4c-0.1,0.4-0.1,0.9-0.2,1.3c-0.7,4.1-2.4,7.7-5.1,10.8c-3.3,3.9-7.5,6.7-12.3,8.4c-2.4,0.9-5,1.4-7.6,1.3
			c-0.4,0-0.7,0-1.1,0c-0.1,0.3-0.2,0.5-0.3,0.7c-1.8,5.3-3.2,10.7-4.5,16.2c-1,4.5-2,9.1-2.9,13.7c-0.2,0.8-0.4,1.3-1.1,1.7
			C738.7,578.5,738.3,578.5,737.9,578.5z M753,536.3c0.2,0,0.3,0,0.5,0c1.7,0,3.3-0.5,4.8-1.1c3.4-1.4,6.2-3.5,8.2-6.6
			c1.7-2.7,2.7-5.7,2.4-9c-0.1-0.9-0.2-1.7-0.7-2.4c-0.3-0.5-0.9-0.6-1.4-0.2c-0.4,0.4-0.8,0.7-1.2,1.1c-1.9,1.9-3.6,4.1-5.2,6.3
			c-1.7,2.5-3.4,5.1-5,7.6c-0.8,1.2-1.5,2.4-2.3,3.6C753,535.8,752.9,536,753,536.3z"/>
		<path class="st4" d="M651.4,504.8c4,0,7.4,0.3,10.8,1.3c1.1,0.3,2.1,0.8,3.2,1.2c0.2,0.1,0.3,0.2,0.5,0.3c0.8,0.5,1,1,0.7,1.9
			c-0.3,1.2-1.1,2-2.1,2.6c-0.9,0.5-1.9,0.7-2.9,0.8c-2,0.2-4,0.4-6,0.5c-2.4,0.1-4.8,0.2-7.2,0.3c-3.3,0.2-6.6,0.4-9.9,1.1
			c-0.9,0.2-1.7,0.4-2.6,0.7c-0.3,0.1-0.6,0.2-0.8,0.4c-0.4,0.3-0.4,0.7,0.1,0.9c0.4,0.2,0.8,0.3,1.2,0.4c1.3,0.2,2.6,0.4,3.9,0.6
			c2.6,0.3,5.2,0.6,7.8,0.9c1.9,0.2,3.9,0.5,5.8,0.8c1.8,0.3,3.6,0.7,5.4,1.3c3,1,4.9,3.1,5.9,6.1c0.9,2.7,0.9,5.4,0.1,8
			c-0.8,2.7-2.7,4.6-4.9,6c-1.9,1.3-4.1,2-6.4,2.4c-5.9,1.1-11.6,0.4-16.9-2.4c-2.3-1.2-4.4-2.7-6-4.8c-0.8-1.1-1.4-2.3-1.4-3.8
			c-0.1-2.2,0.9-4,2.7-5.2c1.3-0.9,2.8-1.4,4.3-1.7c2.3-0.4,4.6-0.4,7-0.1c2.3,0.3,4.6,0.6,6.8,1.4c1.4,0.5,2.7,1.1,4.1,1.6
			c0.1,0.1,0.3,0.1,0.4,0.2c0.7,0.5,0.9,1.3,0.3,1.9c-0.4,0.4-0.9,0.8-1.4,1.1c-1.4,0.7-2.9,1.1-4.4,1.4c-1.8,0.3-3.4,0-5.1-0.6
			c-1.5-0.6-3-1.3-4.5-1.8c-0.8-0.3-1.7-0.5-2.6-0.7c-0.8-0.2-1.6,0-2.4,0.2c-0.3,0.1-0.7,0.3-1,0.5c-1,0.8-1.1,2,0,2.9
			c0.4,0.3,0.8,0.6,1.3,0.8c1.6,0.7,3.2,1.1,4.9,1.1c3.7,0.1,7.3-0.2,10.9-1.1c2.5-0.6,4.9-1.6,7-3.1c0.4-0.3,0.8-0.7,1.1-1.1
			c0.4-0.5,0.5-1.1,0.2-1.8c0-0.1-0.1-0.2-0.2-0.3c-0.7-0.6-1.4-1.2-2.3-1.6c-1.6-0.7-3.2-1.1-4.9-1.4c-3-0.6-6-0.9-9.1-1.1
			c-2.9-0.2-5.8-0.5-8.7-0.8c-1.2-0.1-2.3-0.3-3.4-0.8c-1.7-0.7-2.7-1.9-2.9-3.8c-0.2-1.6,0.1-3,0.7-4.5c0.9-2.1,2.5-3.6,4.4-4.8
			c2.3-1.4,4.8-2.3,7.4-2.9c2.8-0.7,5.7-1.1,8.6-1.3C649.7,504.9,650.8,504.8,651.4,504.8z"/>
		<path class="st4" d="M713.6,532.9c1.1,0.1,2.1,0,3-0.2c3.6-0.6,7.2-1.2,10.8-1.7c2-0.3,2.8,0.1,3.8,1.8c0.4,0.7,0.6,1.5,0.7,2.3
			c0.1,0.7-0.2,1.3-0.6,1.8c-0.4,0.5-0.9,0.9-1.4,1.3c-3.9,2.9-8.2,5-12.9,6.1c-0.6,0.2-1.3,0.3-2,0.3c-2.4,0.2-4.5-0.3-6.5-1.6
			c-1.3-0.9-2.1-2.1-2.7-3.4c-1.1-2.2-1.3-4.5-0.9-6.8c0.2-1.4,0.6-2.7,1.2-4c0.3-0.7,0.6-1.4,0.9-2.2c0.2-0.4,0.2-0.8,0.1-1.2
			c-0.2-1-0.4-2-0.6-3.1c-0.2-1.3,0.3-2.3,1.6-2.8c0.4-0.1,0.8-0.2,1.2-0.3c0.5-0.1,0.9-0.3,1.1-0.7c0.2-0.3,0.3-0.7,0.5-1
			c0.6-1.5,1.1-3,1.6-4.5c0-0.1,0-0.2,0.1-0.4c-0.9-0.3-1.8-0.5-2.7-0.8c-0.6-0.2-1.3-0.5-1.9-0.8c-0.9-0.5-1.6-1.2-2-2.2
			c-0.5-1.1-0.2-1.9,1-2.3c0.9-0.3,1.8-0.5,2.7-0.7c3.9-0.8,7.8-1.3,11.7-1.7c2.3-0.2,4.7-0.5,7-0.6c2.6-0.1,4.9,0.7,6.6,2.7
			c0.6,0.6,1.1,1.3,1.5,2c0.3,0.4,0.5,0.9,0.6,1.3c0.3,1.1,0,2-1.1,2.4c-0.9,0.3-1.8,0.6-2.7,0.8c-2.6,0.5-5.2,0.6-7.8,0.6
			c-1.6,0-3.3,0-4.9,0c-0.2,0-0.5,0-0.7,0c-0.5,1.7-1,3.3-1.5,5.1c0.7,0,1.3,0,2,0c0.8,0,1.7,0,2.5,0c1.1,0,2.3-0.1,3.4-0.1
			c0.7,0,1.4,0,2.1,0.1c1.2,0.1,2,0.7,2.3,1.8s0.3,2.1,0.1,3.2c-0.2,0.8-0.7,1.3-1.4,1.4c-0.3,0.1-0.7,0.1-1,0.1
			c-3.1,0.1-6.1,0.1-9.2,0.2c-0.9,0-1.7,0.2-2.6,0.2c-0.4,0-0.6,0.2-0.7,0.6c-0.5,1.6-1.1,3.2-1.6,4.8
			C713.9,531.7,713.8,532.3,713.6,532.9z"/>
		<path class="st4" d="M677.5,520.1c-0.1,0.7-0.2,1.2-0.3,1.8c-0.1,2.2-0.2,4.4-0.3,6.6c-0.1,2.5-0.1,5.1-0.3,7.6
			c-0.1,1.7-0.2,3.5-0.7,5.1c-0.1,0.4-0.3,0.9-0.5,1.3c-0.6,0.9-1.6,1.3-2.7,1.1c-1.5-0.3-2.5-1.1-3.1-2.5c-0.6-1.3-0.9-2.6-1.1-4.1
			c-0.3-3.2-0.1-6.3,0.2-9.5c0.5-4.5,1.5-8.9,2.8-13.2c0.5-1.6,1.1-3.1,1.7-4.6c0.2-0.5,0.6-0.9,0.9-1.3c0.6-0.7,1.4-0.9,2.3-0.6
			c0.8,0.2,1.4,0.7,2,1.4c0.5,0.6,0.9,1.2,1.3,1.8c3.7,5.2,7.1,10.5,10.5,15.8c0.5,0.8,1,1.5,1.5,2.2c0.2,0.3,0.4,0.5,0.7,0.7
			s0.5,0.1,0.6-0.3c0-0.4,0-0.9,0-1.3c-0.1-2.4-0.3-4.7-0.7-7.1c-0.5-3-1.2-6-2-9c-0.8-2.9-1.6-5.8-2.3-8.7
			c-0.2-0.6-0.2-1.2-0.3-1.8c0-0.4,0-0.7,0.1-1.1c0.2-0.9,0.8-1.3,1.7-1.1c0.6,0.1,1.2,0.5,1.7,0.9c1.2,0.9,2.1,2.1,3,3.3
			c3,4,4.8,8.5,6,13.3c0.8,3,1.2,6.2,1.2,9.3c0,2.8-0.2,5.6-1.1,8.3c-0.5,1.8-1.4,3.4-2.7,4.7c-1.3,1.5-3,2.2-5,2.2
			c-1,0-1.8-0.3-2.6-1c-1-0.9-1.8-2-2.6-3.1c-2.1-3-3.9-6.2-5.6-9.4c-1.2-2.3-2.4-4.5-3.6-6.8C678.3,520.7,678.1,520.3,677.5,520.1z
			"/>
		<path class="st4" d="M614.3,497.9c-0.1,0.2-0.3,0.5-0.5,0.8c-0.3,0.5-0.6,1-0.9,1.5c-0.9,1-1.9,1.1-2.9,0.1s-1.6-2.3-1.7-3.8
			c0-0.4,0-0.8,0-1.2c0.1-0.7-0.1-1.4-0.5-2c-0.1-0.2-0.2-0.3-0.3-0.5c-2.3-3.2-2.5-6.6-1-10.2c1-2.4,2.6-4.4,4.6-6.1
			c3.3-3,7.1-5.2,11.4-6.3c2-0.5,4-0.8,6.1-0.6c2.2,0.1,4.1,0.8,5.8,2.2c0.4,0.3,0.7,0.7,1,1c0.3,0.4,0.6,0.5,1.1,0.6
			c2.1,0.4,3.9,1.4,5.2,3.1c1.5,1.9,1.7,4.1,1.1,6.4c-0.6,2.1-1.7,4-3.2,5.6c-2.8,2.9-5.9,5.4-9.4,7.3c-2.8,1.5-5.8,2.5-9,2.8
			c-0.9,0.1-1.7,0-2.6-0.1c-0.6,0-1.1-0.1-1.7-0.3C616,498.3,615.2,498.1,614.3,497.9z M617.9,491.6c0.4,0.1,0.7,0.1,1,0.2
			c3.7,0.2,7.2-0.2,10.6-1.7c2.4-1,4.5-2.4,6.3-4.3c1-1,1.7-2.1,1.9-3.5c0.4-2.4-1.5-4.3-4-3.8c-1.7,0.3-3.3,1-4.8,2
			c-4.3,2.9-8,6.5-10.9,10.7C618,491.3,618,491.4,617.9,491.6z M621.1,477.8c-1,0-2,0.2-2.9,0.6c-2.1,1-3.9,2.3-5.4,4
			c-0.9,1-1.6,2.1-2,3.4c-0.2,1-0.1,2,0.5,3C614,484.4,617.4,480.9,621.1,477.8z"/>
		<path class="st4" d="M614.5,529.1c0.1-3.6,0.2-7,0.4-10.4c0.2-3.3,0.6-6.5,1.4-9.7c0.2-0.7,0.4-1.5,0.7-2.2
			c0.2-0.4,0.4-0.8,0.7-1.1c0.3-0.4,0.7-0.5,1.3-0.3c1.3,0.4,2.1,1.2,2.7,2.4c0.5,1,0.7,2.1,0.9,3.2c0.4,2.6,0.7,5.3,0.9,8
			c0.2,3.1,0.4,6.2,0.5,9.3c0.1,2,0.1,4.1,0.2,6.1c0,1.4,0.1,2.7,0.1,4.1c0,0.8-0.1,1.7-0.3,2.5c-0.3,1.6-1.3,2.5-2.9,2.6
			c-0.8,0-1.7,0-2.5-0.1c-1.5-0.3-2.5-1.2-3-2.7c-0.3-1-0.5-2.1-0.6-3.2C614.7,534.6,614.6,531.7,614.5,529.1z"/>
		<path class="st4" d="M621.1,477.8c-3.7,3.2-7.1,6.7-9.8,10.9c-0.6-1-0.8-2-0.5-3c0.3-1.3,1.1-2.4,2-3.4c1.5-1.7,3.4-3,5.4-4
			C619.1,477.9,620.1,477.8,621.1,477.8z"/>
	</g>
</a>
<a xlink:href="//www.microsoft.com/" xlink:title="Microsoft" xlink:show="new">
	<rect class="link-hack" x="274" y="206" width="383" height="81"/>
	<g>
		<path class="st6" d="M424.7,233.5c0.1,0,0.2,0,0.3,0.1c0,0.4,0.1,0.9,0.1,1.3c0,11.7,0,23.4,0,35.2c0,0.8,0.2,1.1,1.1,1.1
			c2-0.1,4.1,0,6.1,0c0.7,0,1-0.2,1-1c0-15.6,0-31.2,0-46.7c0-0.8-0.2-1-1-1c-3.1,0-6.1,0.1-9.2,0c-1,0-1.4,0.3-1.8,1.2
			c-4.6,11.3-9.2,22.6-13.8,33.8c-0.1,0.4-0.3,0.7-0.6,1.3c-0.2-0.6-0.4-0.9-0.5-1.2c-4.5-11.4-9-22.8-13.5-34.1
			c-0.2-0.6-0.4-1-1.2-1c-3.4,0-6.9,0-10.3,0c-0.7,0-0.9,0.2-0.9,0.9c0,2,0,4,0,6c0,13.5,0,27,0,40.5c0,1.2,0,1.2,1.3,1.2
			c1.8,0,3.5-0.1,5.3,0c1,0,1.2-0.3,1.2-1.2c0-11.7,0-23.4,0-35.2c0-0.4,0-0.8,0.1-1.2c0.1,0,0.2,0,0.3-0.1c0.2,0.4,0.4,0.7,0.5,1.1
			c4.8,11.8,9.6,23.6,14.3,35.5c0.3,0.8,0.7,1.1,1.5,1c1.2-0.1,2.4-0.1,3.6,0c0.8,0,1.2-0.3,1.5-1c4.7-11.9,9.4-23.7,14.1-35.5
			C424.3,234.2,424.5,233.9,424.7,233.5z M627.5,242.8c0.5,0,0.9,0,1.2,0c3.4,0,6.8,0,10.1,0c1.3,0,1.3,0,1.3,1.2
			c0,5.4,0,10.9,0,16.3c0,1.2,0,2.4,0.2,3.5c0.5,3,1.8,5.6,4.7,6.9c3.6,1.6,7.2,1.3,10.8,0.1c0.2-0.1,0.6-0.3,0.6-0.5c0-2,0-4,0-6.2
			c-0.4,0.2-0.6,0.3-0.9,0.4c-1.4,0.6-2.9,0.9-4.5,0.4c-1.8-0.5-2.8-2-2.8-4.3c-0.1-5.8,0-11.5,0-17.3c0-0.2,0-0.4,0.1-0.6
			c0.4,0,0.7,0,1.1,0c2.1,0,4.2,0,6.3,0c0.3,0,0.8-0.3,0.8-0.5c0.1-2,0-3.9,0-6c-0.5,0-0.8,0-1.1,0c-2.1,0-4.1,0-6.2,0
			c-0.7,0-0.9-0.2-0.9-0.9c0-2.8,0-5.5,0-8.3c0-0.4-0.1-0.7-0.1-1.1c-2.6,0.8-5,1.5-7.4,2.3c-0.3,0.1-0.5,0.6-0.5,0.9
			c0,2-0.1,4.1,0,6.1c0,0.9-0.3,1.1-1.1,1.1c-2.9,0-5.8,0-8.7,0c-0.9,0-1.8,0-2.6,0c-0.1-0.2-0.1-0.3-0.1-0.5c0-1.9-0.1-3.9,0.1-5.8
			c0.4-3.1,2.4-4.7,5.5-4.5c1.1,0.1,2.2,0.4,3.3,0.6c0-0.1,0.1-0.2,0.1-0.3c0-1.9,0-3.8,0-5.7c0-0.6-0.4-0.7-0.8-0.8
			c-2.1-0.4-4.2-0.5-6.3-0.2c-4.4,0.8-7.6,3.1-9.3,7.3c-1,2.4-0.9,4.9-0.9,7.4s0,2.5-2.4,2.5c-1.1,0-2.2,0-3.3,0c0,1.9,0,3.7,0,5.4
			c0,0.9,0.2,1.2,1.1,1.1c1.5-0.1,3,0,4.7,0c0,0.5,0,0.9,0,1.3c0,8.5,0,17.1,0,25.6c0,1.3,0,1.3,1.4,1.3c1.8,0,3.5,0,5.3,0
			c1.5,0,1.5,0,1.5-1.5c0-8.4,0-16.8,0-25.2C627.5,243.9,627.5,243.4,627.5,242.8z M595.2,235.4c-1.3,0.1-2.5,0.1-3.8,0.3
			c-6.3,0.9-10.9,4.2-13.3,10.2c-1.6,3.9-1.8,8.1-1.1,12.2c1,5.6,3.9,9.8,9.2,12.2c3.5,1.6,7.2,1.9,11,1.4
			c6.7-0.8,11.5-4.2,13.9-10.5c2-5.1,1.9-10.4,0.1-15.5c-1.4-4.1-4.2-7.1-8.2-8.8C600.6,235.8,597.9,235.4,595.2,235.4z M528.4,235.2
			c0,0.1,0,0.1-0.1,0.2c-1.3,0.1-2.5,0.1-3.8,0.3c-6.1,0.9-10.6,4-13.1,9.8c-1.7,3.9-1.9,8-1.3,12.2c0.9,5.8,3.9,10.2,9.4,12.7
			c3.5,1.5,7.2,1.8,10.9,1.3c6.1-0.8,10.7-3.7,13.4-9.3c2.4-5.2,2.5-10.7,0.8-16.1c-1.5-4.9-4.8-8.3-9.7-9.8
			C532.8,235.8,530.6,235.6,528.4,235.2z M549.9,262.5c0,2.2,0,4.4,0,6.6c0,0.7,0.3,1.1,0.9,1.3c2.2,0.5,4.4,1.2,6.6,1.4
			c3.9,0.4,7.7-0.2,11.1-2.3c5.8-3.7,6.2-12.7,0.1-16.4c-1.2-0.8-2.6-1.4-3.9-2.1c-1.5-0.7-3.1-1.3-4.6-2.1c-1.7-0.9-2.4-2.5-2-4.2
			c0.3-1.4,1.7-2.5,3.5-2.8c3-0.4,5.9,0.4,8.5,1.8c0.3,0.1,0.5,0.3,0.9,0.5c0-2.2,0-4.3,0-6.4c0-0.7-0.2-1-0.9-1.2
			c-2.8-0.9-5.6-1.2-8.5-1.1c-2.5,0.1-4.9,0.8-7.1,2.1c-6.6,3.9-6.3,13.9,0.1,17.1c0.9,0.4,1.7,0.9,2.6,1.4c1.9,1,3.9,1.8,5.8,2.9
			c1.4,0.8,1.9,2.2,1.6,3.8c-0.3,1.6-1.4,2.3-2.9,2.6c-2.5,0.5-5,0.2-7.4-0.7C552.9,264,551.5,263.2,549.9,262.5z M482.5,244.9
			c0-2.3-0.1-4.4,0-6.5c0-1-0.3-1.5-1.2-1.7c-0.2-0.1-0.5-0.2-0.7-0.2c-3.3-1-6.7-1.2-10.1-0.7c-5.5,0.9-9.9,3.5-12.7,8.5
			c-2.1,3.9-2.8,8.1-2.4,12.4c0.4,4.2,2,7.9,5.1,10.8c2.9,2.8,6.5,4.2,10.5,4.4c3.7,0.2,7.3-0.2,10.7-1.8c0.6-0.3,0.8-0.6,0.8-1.3
			c0-1.4,0-2.9,0-4.3c0-0.6,0-1.3,0-2.1c-2.3,1.6-4.6,2.6-7.1,2.9c-4.4,0.5-9-1.4-10.8-6.1c-1.1-2.7-1.1-5.6-0.6-8.5
			c1.1-5.9,6.5-9.5,12.4-8.4C478.6,242.6,480.5,243.5,482.5,244.9z M497.1,236.3c-2.6,0-5.1,0-7.6,0c-0.2,0-0.5,0.5-0.5,0.8
			c0,11,0,22.1,0,33.1c0,0.7,0.2,0.9,0.9,0.9c2,0,4-0.1,6,0c1,0,1.2-0.3,1.2-1.2c0-5.8,0-11.5,0-17.3c0-2.5,0.6-4.8,2.1-6.8
			c1.6-2.2,3.7-3.2,6.4-2.7c1.2,0.2,2.4,0.6,3.6,0.9c0-2.4,0-4.8,0-7.2c0-0.3-0.4-0.7-0.7-0.7c-1.3-0.1-2.7-0.3-4-0.1
			c-3.2,0.5-5.2,2.4-6.6,5.2c-0.2,0.4-0.4,0.8-0.6,1.1c-0.1,0-0.1,0-0.2-0.1C497.1,240.2,497.1,238.3,497.1,236.3z M449.5,236.3
			c-2.5,0-4.8,0-7.2,0c-0.8,0-0.9,0.3-0.9,1c0,11,0,22,0,32.9c0,0.8,0.3,1,1,1c2,0,3.9-0.1,5.9,0c0.9,0,1.2-0.3,1.2-1.2
			c0-10.9,0-21.7,0-32.6C449.5,237.1,449.5,236.7,449.5,236.3z M445.5,230.6c2.8,0,4.9-1.9,4.9-4.5c0-2.7-2.1-4.8-4.8-4.8
			c-2.7,0-5,2.1-4.9,4.7C440.7,228.7,442.8,230.6,445.5,230.6z"/>
		<path class="st7" d="M313.2,206c0,0.4-0.1,0.8-0.1,1.2c0,12.1,0,24.1,0,36.2c0,1-0.2,1.2-1.2,1.2c-12.2,0-24.4,0-36.6,0
			c-0.3,0-0.6,0-1,0c0-12.9,0-25.7,0-38.6C287.4,206,300.3,206,313.2,206z"/>
		<path class="st8" d="M424.7,233.5c-0.2,0.4-0.4,0.7-0.5,1.1c-4.7,11.8-9.4,23.7-14.1,35.5c-0.3,0.7-0.7,1-1.5,1
			c-1.2-0.1-2.4-0.1-3.6,0c-0.8,0-1.2-0.2-1.5-1c-4.7-11.8-9.5-23.7-14.3-35.5c-0.2-0.4-0.4-0.7-0.5-1.1c-0.1,0-0.2,0-0.3,0.1
			c0,0.4-0.1,0.8-0.1,1.2c0,11.7,0,23.4,0,35.2c0,1-0.2,1.3-1.2,1.2c-1.7-0.1-3.5,0-5.3,0c-1.3,0-1.3,0-1.3-1.2c0-13.5,0-27,0-40.5
			c0-2,0-4,0-6c0-0.7,0.2-0.9,0.9-0.9c3.4,0,6.9,0,10.3,0c0.8,0,0.9,0.4,1.2,1c4.5,11.4,9,22.8,13.5,34.1c0.1,0.3,0.3,0.6,0.5,1.2
			c0.3-0.6,0.4-0.9,0.6-1.3c4.6-11.3,9.2-22.5,13.8-33.8c0.4-0.9,0.8-1.2,1.8-1.2c3.1,0.1,6.1,0,9.2,0c0.7,0,1,0.2,1,1
			c0,15.6,0,31.2,0,46.7c0,0.8-0.3,1-1,1c-2,0-4.1-0.1-6.1,0c-0.9,0-1.1-0.3-1.1-1.1c0-11.7,0-23.4,0-35.2c0-0.4,0-0.9-0.1-1.3
			C424.9,233.5,424.8,233.5,424.7,233.5z"/>
		<path class="st8" d="M627.5,242.8c0,0.6,0,1.1,0,1.6c0,8.4,0,16.8,0,25.2c0,1.5,0,1.5-1.5,1.5c-1.8,0-3.5,0-5.3,0
			c-1.4,0-1.4,0-1.4-1.3c0-8.5,0-17.1,0-25.6c0-0.4,0-0.8,0-1.3c-1.6,0-3.2,0-4.7,0c-0.9,0-1.2-0.2-1.1-1.1c0.1-1.7,0-3.5,0-5.4
			c1.1,0,2.2,0,3.3,0c2.4,0,2.4,0,2.4-2.5s-0.1-5,0.9-7.4c1.7-4.2,4.9-6.6,9.3-7.3c2.1-0.4,4.2-0.3,6.3,0.2c0.5,0.1,0.8,0.2,0.8,0.8
			c0,1.9,0,3.8,0,5.7c0,0.1-0.1,0.2-0.1,0.3c-1.1-0.2-2.2-0.6-3.3-0.6c-3.2-0.2-5.2,1.4-5.5,4.5c-0.2,1.9-0.1,3.9-0.1,5.8
			c0,0.1,0.1,0.2,0.1,0.5c0.9,0,1.8,0,2.6,0c2.9,0,5.8,0,8.7,0c0.8,0,1.1-0.2,1.1-1.1c-0.1-2,0-4.1,0-6.1c0-0.3,0.3-0.8,0.5-0.9
			c2.4-0.8,4.8-1.5,7.4-2.3c0,0.4,0.1,0.8,0.1,1.1c0,2.8,0,5.5,0,8.3c0,0.7,0.2,0.9,0.9,0.9c2.1,0,4.1,0,6.2,0c0.3,0,0.7,0,1.1,0
			c0,2.1,0,4,0,6c0,0.2-0.5,0.5-0.8,0.5c-2.1,0-4.2,0-6.3,0c-0.3,0-0.7,0-1.1,0c0,0.2-0.1,0.4-0.1,0.6c0,5.8,0,11.5,0,17.3
			c0,2.3,1.1,3.8,2.8,4.3c1.5,0.5,3,0.2,4.5-0.4c0.3-0.1,0.5-0.2,0.9-0.4c0,2.1,0,4.1,0,6.2c0,0.2-0.3,0.5-0.6,0.5
			c-3.6,1.2-7.2,1.5-10.8-0.1c-3-1.3-4.2-3.9-4.7-6.9c-0.2-1.2-0.2-2.3-0.2-3.5c0-5.4,0-10.9,0-16.3c0-1.2,0-1.2-1.3-1.2
			c-3.4,0-6.8,0-10.1,0C628.4,242.8,628,242.8,627.5,242.8z"/>
		<path class="st8" d="M595.2,235.4c2.7,0,5.3,0.4,7.8,1.5c4,1.7,6.8,4.7,8.2,8.8c1.8,5.2,1.8,10.4-0.1,15.5
			c-2.4,6.3-7.2,9.7-13.9,10.5c-3.8,0.5-7.5,0.2-11-1.4c-5.3-2.4-8.2-6.6-9.2-12.2c-0.7-4.1-0.5-8.3,1.1-12.2c2.4-6,7-9.3,13.3-10.2
			C592.7,235.5,594,235.5,595.2,235.4z M585.2,253.7c0,0.7-0.1,1.3,0,2c0.4,4.3,2.5,8.9,8.4,9.5c4.3,0.5,8.4-1.1,9.8-6.1
			c1-3.5,1.1-7,0.1-10.5c-1-3.8-4-6.3-7.7-6.5c-4.7-0.3-7.9,1.5-9.6,5.3C585.3,249.4,585.1,251.5,585.2,253.7z"/>
		<path class="st8" d="M528.4,235.2c2.2,0.4,4.4,0.6,6.5,1.2c4.9,1.5,8.2,4.9,9.7,9.8c1.7,5.4,1.6,10.9-0.8,16.1
			c-2.6,5.6-7.2,8.6-13.4,9.3c-3.8,0.5-7.4,0.2-10.9-1.3c-5.5-2.4-8.5-6.8-9.4-12.7c-0.6-4.1-0.4-8.3,1.3-12.2
			c2.5-5.8,7-8.9,13.1-9.8C525.8,235.4,527,235.4,528.4,235.2C528.4,235.3,528.4,235.3,528.4,235.2z M537.5,254
			c-0.2-1.8-0.3-3.3-0.6-4.8c-0.9-4.2-4-6.9-7.9-7.1c-5-0.3-8.3,1.8-9.9,6.1c-1,2.7-1,5.5-0.7,8.3c0.6,5,3.4,8.1,8.3,8.7
			c4.4,0.6,8.4-1.1,9.8-6C537.1,257.4,537.2,255.6,537.5,254z"/>
		<path class="st8" d="M549.9,262.5c1.6,0.7,3,1.5,4.6,2.1c2.4,0.9,4.9,1.2,7.4,0.7c1.5-0.3,2.6-1,2.9-2.6c0.3-1.6-0.2-3-1.6-3.8
			c-1.9-1-3.9-1.9-5.8-2.9c-0.9-0.4-1.7-0.9-2.6-1.4c-6.3-3.2-6.7-13.2-0.1-17.1c2.2-1.3,4.5-2,7.1-2.1c2.9-0.2,5.7,0.2,8.5,1.1
			c0.7,0.2,0.9,0.5,0.9,1.2c0,2.1,0,4.1,0,6.4c-0.4-0.2-0.6-0.3-0.9-0.5c-2.7-1.4-5.5-2.2-8.5-1.8c-1.8,0.2-3.2,1.3-3.5,2.8
			c-0.4,1.7,0.3,3.3,2,4.2c1.5,0.8,3.1,1.4,4.6,2.1c1.3,0.6,2.6,1.3,3.9,2.1c6.1,3.7,5.7,12.7-0.1,16.4c-3.4,2.2-7.2,2.7-11.1,2.3
			c-2.2-0.2-4.4-0.9-6.6-1.4c-0.7-0.2-1-0.5-0.9-1.3C549.9,266.9,549.9,264.7,549.9,262.5z"/>
		<path class="st8" d="M482.5,244.9c-2-1.4-4-2.3-6.1-2.7c-5.9-1.1-11.3,2.6-12.4,8.4c-0.5,2.9-0.5,5.7,0.6,8.5
			c1.8,4.8,6.4,6.6,10.8,6.1c2.5-0.3,4.8-1.3,7.1-2.9c0,0.8,0,1.4,0,2.1c0,1.4,0,2.9,0,4.3c0,0.7-0.2,1-0.8,1.3
			c-3.4,1.6-7,2.1-10.7,1.8c-4-0.3-7.6-1.6-10.5-4.4c-3.1-2.9-4.7-6.6-5.1-10.8c-0.4-4.4,0.2-8.6,2.4-12.4c2.8-5,7.2-7.6,12.7-8.5
			c3.4-0.5,6.8-0.3,10.1,0.7c0.2,0.1,0.5,0.2,0.7,0.2c0.9,0.2,1.3,0.7,1.2,1.7C482.5,240.4,482.5,242.5,482.5,244.9z"/>
		<path class="st8" d="M497.1,236.3c0,2.1,0,4,0,5.8c0.1,0,0.1,0,0.2,0.1c0.2-0.4,0.4-0.7,0.6-1.1c1.4-2.8,3.4-4.8,6.6-5.2
			c1.3-0.2,2.7,0,4,0.1c0.3,0,0.7,0.5,0.7,0.7c0.1,2.4,0,4.8,0,7.2c-1.2-0.3-2.4-0.7-3.6-0.9c-2.7-0.4-4.8,0.6-6.4,2.7
			c-1.5,2-2.1,4.4-2.1,6.8c0,5.8,0,11.5,0,17.3c0,0.9-0.2,1.3-1.2,1.2c-2-0.1-4,0-6,0c-0.6,0-0.9-0.2-0.9-0.9c0-11,0-22.1,0-33.1
			c0-0.3,0.3-0.8,0.5-0.8C492,236.2,494.4,236.3,497.1,236.3z"/>
		<path class="st8" d="M449.5,236.3c0,0.5,0,0.8,0,1.1c0,10.9,0,21.7,0,32.6c0,0.9-0.2,1.2-1.2,1.2c-2-0.1-3.9,0-5.9,0
			c-0.7,0-1-0.2-1-1c0-11,0-22,0-32.9c0-0.7,0.1-1,0.9-1C444.6,236.3,447,236.3,449.5,236.3z"/>
		<path class="st8" d="M445.5,230.6c-2.8,0-4.9-2-4.9-4.5c0-2.6,2.2-4.7,4.9-4.7c2.8,0,4.9,2.1,4.8,4.8
			C450.4,228.7,448.3,230.6,445.5,230.6z"/>
		<path class="st9" d="M355.7,206c0,0.4-0.1,0.8-0.1,1.2c0,12.1,0,24.1,0,36.2c0,1-0.2,1.2-1.2,1.2c-12.2,0-24.4,0-36.6,0
			c-0.3,0-0.6,0-1,0c0-12.9,0-25.7,0-38.6C329.9,206,342.8,206,355.7,206z"/>
		<path class="st10" d="M313.2,247.9c0,0.4-0.1,0.8-0.1,1.2c0,12.1,0,24.1,0,36.2c0,1-0.2,1.2-1.2,1.2c-12.2,0-24.4,0-36.6,0
			c-0.3,0-0.6,0-1,0c0-12.9,0-25.7,0-38.6C287.4,247.9,300.3,247.9,313.2,247.9z"/>
		<path class="st11" d="M355.7,247.9c0,0.4-0.1,0.8-0.1,1.2c0,12.1,0,24.1,0,36.2c0,1-0.2,1.2-1.2,1.2c-12.2,0-24.4,0-36.6,0
			c-0.3,0-0.6,0-1,0c0-12.9,0-25.7,0-38.6C329.9,247.9,342.8,247.9,355.7,247.9z"/>
	</g>
</a>
<a xlink:href="//www.twosigma.com/" xlink:title="Two Sigma" xlink:show="new">
	<rect class="link-hack" x="148" y="476" width="312" height="58"/>
	<g>
		<g>
			<g>
				<g>
					<defs>
						<rect id="SVGID_1_" x="147.7" y="475.7" width="58" height="58.3"/>
					</defs>
					<clipPath id="SVGID_2_">
						<use xlink:href="#SVGID_1_"  style="overflow:visible;"/>
					</clipPath>
					<g class="st12">
						
							<image style="overflow:visible;enable-background:new    ;" width="462" height="87" xlink:href="B64AC7F29E77F338.png"  transform="matrix(0.69 0 0 0.69 147.8669 474.8073)">
						</image>
					</g>
				</g>
			</g>
		</g>
		<path class="st4" d="M255.2,511.1c1.7-5.9,3.4-11.8,5.1-17.8c0.5-1.6,0.8-2.9,3.1-2.9c2.2,0,2.6,1.1,3.1,2.8
			c1.6,5.8,3.4,11.7,5.8,17.6c1-3.1,2-6.2,3-9.3c0.8-2.4,1.5-4.8,2.2-7.3c1.3-4.1,1.3-4.1,6.2-3.4c-1.6,5.1-3.2,10.1-4.8,15.1
			c-1.1,3.4-2.3,6.8-3.2,10.2c-0.6,2-1.2,3.1-3.7,3.1c-2.6,0-3-1.4-3.5-3.3c-1.6-5.6-3.3-11.2-5.2-17.7c-1.9,6.6-3.7,12.3-5.2,18
			c-0.5,1.9-1.1,2.9-3.4,2.9c-2.2,0-3-0.8-3.6-2.8c-2.6-8.5-5.3-16.9-8-25.3c4.6-1.3,4.8-1.2,6.1,2.9c1.8,5.7,3.5,11.4,5.3,17.1
			C254.8,511.2,255,511.2,255.2,511.1z"/>
		<path class="st4" d="M405.1,498.2c0,7.6,0,14.1,0,20.8c-1.7,0-3,0-4.6,0c0-9.4,0-18.7,0-28.1c2.9-0.8,5-0.4,6.7,2.4
			c2.2,3.5,4.8,6.8,7.5,10.6c2.8-4,5.3-7.8,8.2-11.4c0.9-1.1,2.8-1.6,4.3-1.9c0.5-0.1,1.8,1.1,1.8,1.7c0.1,8.8,0.1,17.5,0.1,26.6
			c-1.6,0-2.9,0-4.7,0c0-6.5,0-13,0-19.5c-0.3-0.1-0.6-0.2-0.9-0.3c-2.9,4-5.9,8-8.9,12.2C411.6,507,408.7,503,405.1,498.2z"/>
		<path class="st4" d="M300.2,519.6c-8.6,0-14.5-6-14.6-14.6c-0.1-8.7,6-14.7,14.8-14.7c8.6,0.1,14.5,6.1,14.5,14.7
			C314.8,513.6,308.8,519.6,300.2,519.6z M309.8,505.2c0.2-6.3-3.6-10.6-9.2-10.7s-9.7,3.9-9.9,9.8c-0.2,6.4,3.6,11,9.3,11.1
			C305.6,515.5,309.6,511.4,309.8,505.2z"/>
		<path class="st4" d="M388.4,507.5c-2.2-0.1-4.3-0.2-6.5-0.3c-0.1-1.1-0.1-2.1-0.2-3.3c3.9,0,7.5,0,11.6,0c0,3.9,0.1,7.8-0.1,11.6
			c0,0.7-0.8,1.6-1.5,2c-5,3.1-13.6,2.7-18.1-0.7c-4.6-3.5-6.6-10.2-4.9-16.3c2.7-9.9,15.5-13.7,24.1-6.8c-0.8,0.9-1.6,1.9-2.5,2.8
			c-1.7-0.6-3.1-1.3-4.7-1.7c-4-0.9-7.7-0.1-10.3,3.3c-2.9,3.9-2.9,8.2-0.8,12.5c1.7,3.6,5,5,8.9,4.9
			C388.6,515.2,389.3,514.2,388.4,507.5z"/>
		<path class="st4" d="M460.5,518.8c-3.7,1.2-5.6,0.2-6.6-3.4c-0.3-1-1.9-1.9-3.1-2.2c-1.5-0.4-3.2,0-4.8-0.1
			c-3.3-0.4-5.7,0.2-6.4,4.2c-0.6,3.4-3.4,1.5-6,2.2c1-2.8,1.8-4.9,2.5-7c2.4-6.5,4.9-12.9,7.2-19.4c0.7-2,1.8-2.5,3.8-2.5
			c1.9,0,3.1,0.4,3.8,2.5c2.9,8.1,6,16.2,9,24.3C460.1,517.7,460.3,518.1,460.5,518.8z M447.2,495.8c-1.7,4.9-3.1,8.9-4.5,13.1
			c3.2,0,6,0,9.1,0C450.3,504.6,448.9,500.7,447.2,495.8z"/>
		<path class="st4" d="M350.1,491.8c-1.8,3.5-3.3,4.3-6.2,3.4c-2.2-0.7-4.8-0.5-7.1,0c-1,0.2-2.3,1.9-2.3,2.9s1.1,2.6,2.1,3.1
			c2.3,1.1,4.8,1.5,7.2,2.3c5.1,1.7,7.1,4.5,6.4,9.2c-0.5,3.7-3.8,6.3-8.5,6.7s-9.2-0.4-13.3-3c1.4-2.7,2.9-3.5,6-2.3
			c2.4,1,5.4,0.8,8,0.4c1-0.1,2.4-2,2.5-3.1c0.1-1-1.1-2.6-2.2-3.1c-2.2-1-4.6-1.5-6.9-2.2c-5-1.6-7.3-4.5-6.8-8.6
			c0.5-4.2,3.9-7.2,8.8-7.1C341.9,490.4,345.7,491.3,350.1,491.8z"/>
		<path class="st4" d="M228.4,495c0,8.3,0,16,0,24c-1.7,0-3.1,0-4.8,0c0-7.9,0-15.6,0-23.7c-3.3,0-6.3,0-9.6,0c0-1.7,0-3,0-4.7
			c7.6,0,15.2-0.1,22.7,0.2c0.8,0,1.5,2.2,2.7,4.3C235.1,495,232,495,228.4,495z"/>
		<path class="st4" d="M356.9,504.9c0-3.9,0.1-7.9,0-11.8c-0.1-2.1,0.9-2.5,2.7-2.5c1.8,0,2.4,0.7,2.4,2.5c-0.1,8-0.1,16,0,23.9
			c0,1.9-0.8,2.4-2.5,2.3c-1.6,0-2.6-0.3-2.6-2.3C356.9,512.9,356.9,508.9,356.9,504.9z"/>
	</g>
</a>
<g>
	<path class="st5" d="M227.8,245c0,11.3-9.4,20.5-20.9,20.5S186,256.3,186,245c0-11.3,9.4-20.5,20.9-20.5S227.8,233.7,227.8,245"/>
	<path class="st4" d="M210.3,251.3c-1.9-2.7-2.7-8.7,4-8.7s11.4,0.3,12.4-0.9c0.9-1.2-4.4,7.4-8,8.7
		C214.9,251.6,210.3,251.3,210.3,251.3"/>
	<path class="st4" d="M203.4,251.3c1.9-2.7,2.7-8.7-4-8.7s-11.4,0.3-12.4-0.9c-0.9-1.2,4.4,7.4,8,8.7
		C198.8,251.6,203.4,251.3,203.4,251.3"/>
	<path class="st4" d="M203.5,251.3c0,2.3-1.9,4.1-4.2,4.1s-4.2-1.8-4.2-4.1c0-2.3,1.9-4.1,4.2-4.1S203.5,249.1,203.5,251.3"/>
	<path class="st4" d="M218.6,251.3c0,2.3-1.9,4.1-4.2,4.1s-4.2-1.8-4.2-4.1c0-2.3,1.9-4.1,4.2-4.1
		C216.7,247.2,218.6,249.1,218.6,251.3"/>
	<path class="st5" d="M202.4,251.5c0,1.7-1.4,3.1-3.1,3.1s-3.1-1.4-3.1-3.1s1.4-3.1,3.1-3.1S202.4,249.8,202.4,251.5"/>
	<path class="st5" d="M217.6,251.5c0,1.7-1.4,3.1-3.1,3.1c-1.7,0-3.1-1.4-3.1-3.1s1.4-3.1,3.1-3.1
		C216.2,248.4,217.6,249.8,217.6,251.5"/>
	<path class="st5" d="M202.2,249.9c0.9,1.7,0.2,3.7-1.4,4.6c-1.7,0.9-3.8,0.2-4.7-1.4c-0.9-1.7-0.2-3.7,1.4-4.6
		C199.3,247.6,201.4,248.2,202.2,249.9"/>
	<path class="st13" d="M198.9,251.3c-1.1,1-2,1.9-2,1.9c-1-1-1-2.7,0.1-3.7c1.1-1.1,2.8-1.1,3.8-0.1
		C200.9,249.4,200,250.3,198.9,251.3"/>
	<path class="st5" d="M217.5,249.9c0.9,1.7,0.2,3.7-1.4,4.6c-1.7,0.9-3.8,0.2-4.7-1.4c-0.9-1.7-0.2-3.7,1.4-4.6
		C214.5,247.6,216.6,248.2,217.5,249.9"/>
	<path class="st13" d="M214.2,251.3c-1.1,1-2,1.9-2,1.9c-1-1-1-2.7,0.1-3.7c1.1-1.1,2.8-1.1,3.8-0.1
		C216.1,249.4,215.2,250.3,214.2,251.3"/>
</g>
<g>
	<path class="st5" d="M740.8,251.5c0,11.3-9.4,20.5-20.9,20.5s-20.9-9.2-20.9-20.5c0-11.3,9.4-20.5,20.9-20.5
		S740.8,240.2,740.8,251.5"/>
	<path class="st4" d="M723.2,257.8c-1.9-2.7-2.7-8.7,4-8.7s11.4,0.3,12.4-0.9c0.9-1.2-4.4,7.4-8,8.7
		C727.9,258.1,723.2,257.8,723.2,257.8"/>
	<path class="st4" d="M716.4,257.8c1.9-2.7,2.7-8.7-4-8.7s-11.4,0.3-12.4-0.9c-1-1.2,4.4,7.4,8,8.7
		C711.8,258.1,716.4,257.8,716.4,257.8"/>
	<path class="st4" d="M716.5,257.8c0,2.3-1.9,4.1-4.2,4.1s-4.2-1.8-4.2-4.1c0-2.3,1.9-4.1,4.2-4.1S716.5,255.6,716.5,257.8"/>
	<path class="st4" d="M731.6,257.8c0,2.3-1.9,4.1-4.2,4.1s-4.2-1.8-4.2-4.1c0-2.3,1.9-4.1,4.2-4.1
		C729.7,253.7,731.6,255.6,731.6,257.8"/>
	<path class="st5" d="M715.4,258c0,1.7-1.4,3.1-3.1,3.1c-1.7,0-3.1-1.4-3.1-3.1s1.4-3.1,3.1-3.1S715.4,256.3,715.4,258"/>
	<path class="st5" d="M730.6,258c0,1.7-1.4,3.1-3.1,3.1c-1.7,0-3.1-1.4-3.1-3.1s1.4-3.1,3.1-3.1C729.2,254.9,730.6,256.3,730.6,258"
		/>
	<path class="st5" d="M715.2,256.4c0.9,1.7,0.2,3.7-1.4,4.6c-1.7,0.9-3.8,0.2-4.7-1.4c-0.9-1.7-0.2-3.7,1.4-4.6
		C712.3,254.1,714.4,254.8,715.2,256.4"/>
	<path class="st13" d="M711.9,257.8c-1.1,1-2,1.9-2,1.9c-1-1-1-2.7,0.1-3.7c1.1-1.1,2.8-1.1,3.8-0.1
		C713.9,255.9,713,256.8,711.9,257.8"/>
	<path class="st5" d="M730.5,256.4c0.9,1.7,0.2,3.7-1.4,4.6c-1.7,0.9-3.8,0.2-4.7-1.4c-0.9-1.7-0.2-3.7,1.4-4.6
		C727.5,254.1,729.6,254.8,730.5,256.4"/>
	<path class="st13" d="M727.2,257.8c-1.1,1-2,1.9-2,1.9c-1-1-1-2.7,0.1-3.7c1.1-1.1,2.8-1.1,3.8-0.1
		C729.1,255.9,728.2,256.8,727.2,257.8"/>
</g>
</svg>
