<?xml version="1.0" encoding="utf-8"?>
<!-- Generator: Adobe Illustrator 17.1.0, SVG Export Plug-In . SVG Version: 6.00 Build 0)  -->
<!DOCTYPE svg PUBLIC "-//W3C//DTD SVG 1.1//EN" "http://www.w3.org/Graphics/SVG/1.1/DTD/svg11.dtd">
<svg version="1.1" id="Layer_1" xmlns="http://www.w3.org/2000/svg" xmlns:xlink="http://www.w3.org/1999/xlink" x="0px" y="0px"
	 viewBox="0 0 385.5 352.5" style="enable-background:new 0 0 385.5 352.5;" xml:space="preserve">
<style type="text/css">
	.st0{fill:#EF4137;}
	.st1{fill:#FCB038;}
	.st2{fill:#F7E500;}
	.st3{clip-path:url(#SVGID_2_);fill:#D7992D;}
</style>
<g>
	<rect x="186.9" y="113.5" class="st0" width="8.1" height="71.3"/>
	<polygon class="st0" points="173.2,184.9 166.9,189.9 119.8,134.7 126.1,129.8 	"/>
	<polygon class="st0" points="77.6,190 84.9,193.5 117.9,129.6 110.7,126.1 	"/>
	<polygon class="st0" points="123.3,131.8 119.6,124.9 186,92.7 189.7,99.7 	"/>
	<polygon class="st0" points="257.2,131.8 260.8,124.9 194.5,92.7 190.8,99.7 	"/>
	<polygon class="st0" points="80.1,196.8 72.9,200.2 39.8,136.4 47.1,132.9 	"/>
	<polygon class="st0" points="307.5,194.6 314.8,198.1 347.8,134.2 340.5,130.7 	"/>
	<polygon class="st0" points="304.6,194.6 297.3,198.1 264.3,134.2 271.6,130.7 	"/>
	<polygon class="st0" points="110.9,118.2 118.9,119.3 128.7,48.6 120.7,47.6 	"/>
	<polygon class="st0" points="269.9,119.2 261.9,120.2 252.1,49.5 260.1,48.5 	"/>
	<polygon class="st0" points="183.4,93.1 177.7,98.6 124.5,48.8 130.2,43.3 	"/>
	<polygon class="st0" points="199.1,98.3 204.7,103.8 257.9,54 252.3,48.5 	"/>
	<polygon class="st0" points="160,208.7 159.1,216.4 85.1,209.3 85.9,201.6 	"/>
	<polygon class="st0" points="42.7,130.4 43.5,138.1 117.6,131.1 116.7,123.3 	"/>
	<polygon class="st0" points="342,129.4 341.2,137.2 267.2,130.1 268,122.4 	"/>
	<polygon class="st0" points="204.6,193.1 210.8,198.1 258,142.9 251.7,138 	"/>
	<polygon class="st0" points="214.7,211.1 215.5,218.9 289.5,211.8 288.7,204.1 	"/>
	<polygon class="st0" points="190.7,280.6 186.9,329.7 195,280.4 	"/>
	<ellipse class="st1" cx="190.7" cy="226.3" rx="56.6" ry="54.2"/>
	<ellipse class="st0" cx="207.6" cy="226.3" rx="24.8" ry="24.7"/>
	<ellipse class="st2" cx="212.4" cy="218.9" rx="13.4" ry="7.4"/>
	<path class="st2" d="M222.1,90.1c2.8,16.8-9.2,32.6-26.7,35.2c-17.5,2.6-33.9-8.8-36.7-25.6c-2.8-16.8,9.2-32.6,26.7-35.2
		C202.9,61.9,219.3,73.3,222.1,90.1z"/>
	<path class="st1" d="M295.1,120.9c2.8,16.8-9.2,32.6-26.7,35.2c-17.5,2.6-33.9-8.8-36.7-25.6c-2.8-16.8,9.2-32.6,26.7-35.2
		S292.3,104.1,295.1,120.9z"/>
	<path class="st2" d="M336.3,192.6c2.8,16.8-9.2,32.6-26.7,35.2c-17.5,2.6-33.9-8.8-36.7-25.6c-2.8-16.8,9.2-32.6,26.7-35.2
		C317.1,164.3,333.6,175.8,336.3,192.6z"/>
	<path class="st2" d="M85.6,122.4c-2.8,16.8,9.2,32.6,26.7,35.2s33.9-8.8,36.7-25.6c2.8-16.8-9.2-32.6-26.7-35.2
		S88.4,105.7,85.6,122.4z"/>
	<path class="st2" d="M48.4,192.6c-2.8,16.8,9.2,32.6,26.7,35.2s33.9-8.8,36.7-25.6c2.8-16.8-9.2-32.6-26.7-35.2
		S51.2,175.8,48.4,192.6z"/>
	<g>
		<defs>
			<ellipse id="SVGID_1_" cx="190.7" cy="226.3" rx="56.6" ry="54.2"/>
		</defs>
		<clipPath id="SVGID_2_">
			<use xlink:href="#SVGID_1_"  style="overflow:visible;"/>
		</clipPath>
		<path class="st3" d="M142.9,197.4c-8.2,30.3,17.7,71.2,85.6,69.4c67.9-1.8-51.5,40-51.5,40l-64.8-58.3l16.5-58.5L142.9,197.4z"/>
	</g>
	<polygon class="st0" points="156.8,269.7 120.5,254.3 131.2,333 126.1,261.2 	"/>
	<polygon class="st0" points="225.8,268.9 261,247.1 253.7,335.6 254.7,257.1 	"/>
	<polygon class="st0" points="177,279 154.7,251.1 153.9,350.2 160.1,265.6 	"/>
	<polygon class="st0" points="199.1,280 220.5,257.1 236.5,344.8 216.3,268.4 	"/>
	<path class="st1" d="M154.3,40.6c2.8,16.8-9.2,32.6-26.7,35.2C110,78.4,93.6,67,90.8,50.2C88.1,33.4,100,17.6,117.5,15
		S151.5,23.8,154.3,40.6z"/>
	<path class="st2" d="M291.4,42.9c2.8,16.8-9.2,32.6-26.7,35.2c-17.5,2.6-33.9-8.8-36.7-25.6s9.2-32.6,26.7-35.2
		S288.6,26.1,291.4,42.9z"/>
	<path class="st2" d="M376.2,127.1c2.8,16.8-9.2,32.6-26.7,35.2c-17.5,2.6-33.9-8.8-36.7-25.6c-2.8-16.8,9.2-32.6,26.7-35.2
		C357,98.8,373.4,110.3,376.2,127.1z"/>
	<path class="st1" d="M73.9,127.1c2.8,16.8-9.2,32.6-26.7,35.2s-33.9-8.8-36.7-25.6s9.2-32.6,26.7-35.2
		C54.7,98.8,71.1,110.3,73.9,127.1z"/>
	<ellipse class="st0" cx="271.6" cy="50.5" rx="13.6" ry="13.6"/>
	<ellipse class="st1" cx="274.2" cy="46.5" rx="7.3" ry="4.1"/>
	<ellipse class="st0" cx="134.2" cy="50.5" rx="13.6" ry="13.6"/>
	<ellipse class="st2" cx="136.8" cy="46.5" rx="7.3" ry="4.1"/>
	<g>
		<ellipse class="st2" cx="263.1" cy="125.4" rx="5.1" ry="4.8"/>
		<path class="st0" d="M258.1,125.1c-1.7,1.7-19.2,10.1-19.2,0C238.9,114.9,258.1,125.1,258.1,125.1z"/>
		<path class="st0" d="M259.2,128.3c0,2.4-6.1,20.2-13.6,13S259.2,128.3,259.2,128.3z"/>
		<path class="st0" d="M262.9,130.9c1.8,1.6,10.6,18.4,0,18.4C252.3,149.4,262.9,130.9,262.9,130.9z"/>
		<path class="st0" d="M266.5,128.9c2.5,0,21.1,5.9,13.6,13S266.5,128.9,266.5,128.9z"/>
		<path class="st0" d="M268.2,125.5c1.7-1.7,19.2-10.1,19.2,0C287.4,135.6,268.2,125.5,268.2,125.5z"/>
		<path class="st0" d="M263.1,120.6c-1.8-1.6-10.6-18.4,0-18.4C273.7,102.2,263.1,120.6,263.1,120.6z"/>
		<path class="st0" d="M259.7,122.1c-2.5,0-21.1-5.9-13.6-13C253.6,101.9,259.7,122.1,259.7,122.1z"/>
		<path class="st0" d="M266.4,121.9c0-2.4,6.1-20.2,13.6-13C287.5,116,266.4,121.9,266.4,121.9z"/>
	</g>
</g>
</svg>
