<?xml version="1.0" encoding="utf-8"?>
<!-- Generator: Adobe Illustrator 17.1.0, SVG Export Plug-In . SVG Version: 6.00 Build 0)  -->
<!DOCTYPE svg PUBLIC "-//W3C//DTD SVG 1.1//EN" "http://www.w3.org/Graphics/SVG/1.1/DTD/svg11.dtd">
<svg version="1.1" id="Layer_1" xmlns="http://www.w3.org/2000/svg" xmlns:xlink="http://www.w3.org/1999/xlink" x="0px" y="0px"
	 viewBox="0 0 200 475.5" style="enable-background:new 0 0 200 475.5;" xml:space="preserve">
<style type="text/css">
	.st0{fill:#EF4137;}
	.st1{fill:none;}
	.st2{fill:#BB3428;}
	.st3{clip-path:url(#SVGID_2_);fill:#003949;}
	.st4{fill:#CE382E;}
	.st5{clip-path:url(#SVGID_6_);fill:#F9AF36;}
	.st6{clip-path:url(#SVGID_6_);fill:#00394A;}
	.st7{fill:#AC1F24;}
	.st8{fill:#F9AF36;}
	.st9{clip-path:url(#SVGID_8_);fill:#EF4137;}
	.st10{clip-path:url(#SVGID_10_);fill:#00394A;}
	.st11{clip-path:url(#SVGID_10_);fill:#EF4137;}
	.st12{clip-path:url(#SVGID_10_);fill:#AC1F24;}
	.st13{clip-path:url(#SVGID_10_);fill:#F9E600;}
	.st14{clip-path:url(#SVGID_10_);fill:#EC9234;}
	.st15{fill:#002939;}
	.st16{fill:#F9E600;}
	.st17{opacity:0.58;clip-path:url(#SVGID_12_);}
	.st18{clip-path:url(#SVGID_14_);fill:#FCBB50;}
</style>
<polygon class="st0" points="96.7,374.6 97.1,378.1 87.4,374.3 80.1,379.9 79.6,376.2 87,370.7 "/>
<rect x="26.4" y="24.8" class="st1" width="147.4" height="425.4"/>
<rect x="112.6" y="374.4" transform="matrix(-0.6156 -0.788 0.788 -0.6156 -112.1245 702.586)" class="st0" width="5.4" height="8.6"/>
<rect x="105.5" y="365.4" transform="matrix(-0.6157 -0.788 0.788 -0.6157 -116.3586 682.6044)" class="st0" width="5.5" height="8.6"/>
<rect x="122.5" y="368.1" transform="matrix(-0.6156 -0.788 0.788 -0.6156 -90.107 697.906)" class="st0" width="5.4" height="5.7"/>
<rect x="115.5" y="359.1" transform="matrix(-0.6156 -0.788 0.788 -0.6156 -94.3557 677.9149)" class="st0" width="5.4" height="5.7"/>
<rect x="99.2" y="372.4" transform="matrix(-0.6157 -0.788 0.788 -0.6157 -125.5081 684.5671)" class="st2" width="9.9" height="1"/>
<rect x="81.7" y="371" transform="matrix(-0.6158 -0.7879 0.7879 -0.6158 -161.0297 672.285)" class="st0" width="3.4" height="8.7"/>
<g>
	<defs>
		<rect id="SVGID_1_" x="26.4" y="24.8" width="147.4" height="425.4"/>
	</defs>
	<clipPath id="SVGID_2_">
		<use xlink:href="#SVGID_1_"  style="overflow:visible;"/>
	</clipPath>
	<path class="st3" d="M77,376.4c1.5-1.2,3.6-1,4.6,0.3c1.1,1.3,0.7,3.4-0.8,4.6c-1.5,1.2-3.6,1-4.6-0.3
		C75.1,379.6,75.5,377.5,77,376.4"/>
</g>
<polygon class="st2" points="92,376.1 100.1,379.5 100,375.8 94.9,373.9 "/>
<g>
	<defs>
		<rect id="SVGID_3_" x="26.4" y="24.8" width="147.4" height="425.4"/>
	</defs>
	<clipPath id="SVGID_4_">
		<use xlink:href="#SVGID_3_"  style="overflow:visible;"/>
	</clipPath>
</g>
<polygon class="st4" points="70.8,82.5 62.3,72.9 140.8,72.9 131.8,82.5 "/>
<polygon class="st0" points="56.2,24.8 56.2,72.9 56.2,82.5 145.4,82.5 145.4,72.9 145.4,24.8 "/>
<rect x="56.2" y="63.3" class="st4" width="89.2" height="1.9"/>
<rect x="56.2" y="52.7" class="st4" width="89.2" height="1.9"/>
<rect x="56.2" y="41.4" class="st4" width="89.2" height="1.9"/>
<rect x="56.2" y="32.7" class="st4" width="89.2" height="1.9"/>
<g>
	<defs>
		<rect id="SVGID_5_" x="26.4" y="24.8" width="147.4" height="425.4"/>
	</defs>
	<clipPath id="SVGID_6_">
		<use xlink:href="#SVGID_5_"  style="overflow:visible;"/>
	</clipPath>
	<path class="st5" d="M120.1,78.6c2.4,0,4.3-2.2,4.3-4.8c0-2.7-1.9-4.8-4.3-4.8s-4.3,2.2-4.3,4.8C115.7,76.5,117.7,78.6,120.1,78.6"
		/>
	<path class="st6" d="M133.1,78.6c2.4,0,4.3-2.2,4.3-4.8c0-2.7-1.9-4.8-4.3-4.8c-2.4,0-4.3,2.2-4.3,4.8
		C128.7,76.5,130.7,78.6,133.1,78.6"/>
</g>
<rect x="26.4" y="284.9" class="st0" width="147.4" height="69.7"/>
<rect x="44" y="354.6" class="st7" width="109.4" height="29"/>
<polygon class="st8" points="33.7,293.3 33.7,346.6 91.1,346.6 101.6,335 124.4,335.1 124.4,293.3 "/>
<g>
	<defs>
		<rect id="SVGID_7_" x="26.4" y="24.8" width="147.4" height="425.4"/>
	</defs>
	<clipPath id="SVGID_8_">
		<use xlink:href="#SVGID_7_"  style="overflow:visible;"/>
	</clipPath>
	<path class="st9" d="M115.7,346.6"/>
</g>
<rect x="133.1" y="293.3" class="st7" width="29.5" height="53.4"/>
<rect x="133.1" y="298.6" class="st4" width="26.7" height="3.5"/>
<rect x="133.1" y="309.3" class="st4" width="26.7" height="3.5"/>
<rect x="133.1" y="319.9" class="st4" width="26.7" height="3.5"/>
<rect x="133.1" y="330.6" class="st4" width="26.7" height="3.5"/>
<g>
	<defs>
		<rect id="SVGID_9_" x="26.4" y="24.8" width="147.4" height="425.4"/>
	</defs>
	<clipPath id="SVGID_10_">
		<use xlink:href="#SVGID_9_"  style="overflow:visible;"/>
	</clipPath>
	<path class="st10" d="M138.2,344.5c2.1,0,3.8-1.7,3.8-3.8c0-2.1-1.7-3.8-3.8-3.8c-2.1,0-3.8,1.7-3.8,3.8
		C134.4,342.8,136.1,344.5,138.2,344.5"/>
	<path class="st10" d="M155.8,344.5c2.1,0,3.8-1.7,3.8-3.8c0-2.1-1.7-3.8-3.8-3.8c-2.1,0-3.8,1.7-3.8,3.8
		C152,342.8,153.7,344.5,155.8,344.5"/>
	<path class="st11" d="M41.9,346.6c3.4,0,6.2-2.8,6.2-6.2c0-3.4-2.8-6.2-6.2-6.2c-3.4,0-6.2,2.8-6.2,6.2
		C35.7,343.8,38.5,346.6,41.9,346.6"/>
	<path class="st10" d="M97.7,334.2c3.4,0,6.2-2.8,6.2-6.2c0-3.4-2.8-6.2-6.2-6.2s-6.2,2.8-6.2,6.2C91.5,331.4,94.3,334.2,97.7,334.2
		"/>
	<path class="st12" d="M85.3,346.6c3.4,0,6.2-2.8,6.2-6.2c0-3.4-2.8-6.2-6.2-6.2c-3.4,0-6.2,2.8-6.2,6.2
		C79.1,343.8,81.8,346.6,85.3,346.6"/>
	<path class="st11" d="M87.5,334.2c3.4,0,6.2-2.8,6.2-6.2c0-3.4-2.8-6.2-6.2-6.2c-3.4,0-6.2,2.8-6.2,6.2
		C81.3,331.4,84.1,334.2,87.5,334.2"/>
	<path class="st13" d="M72.8,346.6c3.4,0,6.2-2.8,6.2-6.2c0-3.4-2.8-6.2-6.2-6.2c-3.4,0-6.2,2.8-6.2,6.2
		C66.6,343.8,69.4,346.6,72.8,346.6"/>
	<path class="st12" d="M110.2,334.2c3.4,0,6.2-2.8,6.2-6.2c0-3.4-2.8-6.2-6.2-6.2c-3.4,0-6.2,2.8-6.2,6.2
		C104,331.4,106.7,334.2,110.2,334.2"/>
	<path class="st10" d="M53.5,347c3.4,0,6.2-2.8,6.2-6.2c0-3.4-2.8-6.2-6.2-6.2c-3.4,0-6.2,2.8-6.2,6.2C47.2,344.2,50,347,53.5,347"
		/>
	<path class="st14" d="M62.2,346.6c3.4,0,6.2-2.8,6.2-6.2c0-3.4-2.8-6.2-6.2-6.2s-6.2,2.8-6.2,6.2C56,343.8,58.8,346.6,62.2,346.6"
		/>
	<path class="st11" d="M62.2,334.5c3.4,0,6.2-2.8,6.2-6.2c0-3.4-2.8-6.2-6.2-6.2s-6.2,2.8-6.2,6.2C56,331.7,58.8,334.5,62.2,334.5"
		/>
	<path class="st12" d="M39.9,334.5c3.4,0,6.2-2.8,6.2-6.2c0-3.4-2.8-6.2-6.2-6.2c-3.4,0-6.2,2.8-6.2,6.2
		C33.7,331.7,36.5,334.5,39.9,334.5"/>
	<path class="st10" d="M75,334.5c3.4,0,6.2-2.8,6.2-6.2c0-3.4-2.8-6.2-6.2-6.2c-3.4,0-6.2,2.8-6.2,6.2
		C68.8,331.7,71.6,334.5,75,334.5"/>
	<path class="st13" d="M52.4,334.5c3.4,0,6.2-2.8,6.2-6.2c0-3.4-2.8-6.2-6.2-6.2c-3.4,0-6.2,2.8-6.2,6.2
		C46.2,331.7,49,334.5,52.4,334.5"/>
	<path class="st13" d="M118.2,326.3c3.4,0,6.2-2.8,6.2-6.2c0-3.4-2.8-6.2-6.2-6.2s-6.2,2.8-6.2,6.2
		C111.9,323.5,114.7,326.3,118.2,326.3"/>
	<path class="st11" d="M104,323.2c3.4,0,6.2-2.8,6.2-6.2c0-3.4-2.8-6.2-6.2-6.2s-6.2,2.8-6.2,6.2C97.7,320.4,100.5,323.2,104,323.2"
		/>
	<path class="st13" d="M70.8,323.2c3.4,0,6.2-2.8,6.2-6.2c0-3.4-2.8-6.2-6.2-6.2c-3.4,0-6.2,2.8-6.2,6.2
		C64.6,320.4,67.4,323.2,70.8,323.2"/>
	<path class="st10" d="M40.1,323.9c3.4,0,6.2-2.8,6.2-6.2c0-3.4-2.8-6.2-6.2-6.2c-3.4,0-6.2,2.8-6.2,6.2
		C33.8,321.1,36.6,323.9,40.1,323.9"/>
	<path class="st12" d="M114.6,316.5c3.4,0,6.2-2.8,6.2-6.2s-2.8-6.2-6.2-6.2s-6.2,2.8-6.2,6.2S111.1,316.5,114.6,316.5"/>
</g>
<rect x="42.1" y="245.9" class="st15" width="5.1" height="39"/>
<rect x="149.8" y="245.9" class="st15" width="5.1" height="39"/>
<rect x="47.2" y="272.6" class="st4" width="102.6" height="12.3"/>
<rect x="47.2" y="281.3" class="st7" width="102.6" height="3.7"/>
<rect x="47.2" y="268.9" class="st7" width="102.6" height="3.7"/>
<rect x="59.2" y="359.7" class="st16" width="5.4" height="12.1"/>
<polygon class="st16" points="68.1,371.7 55.7,371.7 61.9,378 "/>
<rect x="95" y="359.7" class="st16" width="5.4" height="12.1"/>
<polygon class="st16" points="103.9,371.7 91.5,371.7 97.7,378 "/>
<rect x="132.2" y="359.7" class="st16" width="5.4" height="12.1"/>
<polygon class="st16" points="141.1,371.7 128.7,371.7 134.9,378 "/>
<rect x="26.4" y="24.8" class="st15" width="9" height="260.1"/>
<rect x="41.9" y="154.9" class="st15" width="110.5" height="6.3"/>
<rect x="48.2" y="179.4" class="st15" width="98.3" height="6.3"/>
<rect x="54.7" y="202.6" class="st15" width="86.2" height="7.6"/>
<rect x="66" y="225.4" class="st15" width="63.4" height="6.3"/>
<g>
	<defs>
		<rect id="SVGID_11_" x="26.4" y="24.8" width="147.4" height="425.4"/>
	</defs>
	<clipPath id="SVGID_12_">
		<use xlink:href="#SVGID_11_"  style="overflow:visible;"/>
	</clipPath>
	<g class="st17">
		<g>
			<defs>
				<rect id="SVGID_13_" x="25.4" y="286.8" width="47.5" height="38"/>
			</defs>
			<clipPath id="SVGID_14_">
				<use xlink:href="#SVGID_13_"  style="overflow:visible;"/>
			</clipPath>
			<polygon class="st18" points="33.7,293.3 33.7,323.9 64.5,293.3 			"/>
		</g>
	</g>
</g>
<rect x="50.8" y="432" class="st16" width="5.4" height="12.1"/>
<polygon class="st16" points="47.3,443.9 53.5,450.3 59.7,443.9 "/>
<rect x="142" y="430.8" class="st16" width="5.4" height="12.1"/>
<polygon class="st16" points="150.8,442.7 138.4,442.7 144.6,449 "/>
<rect x="164.9" y="24.8" class="st15" width="9" height="260.1"/>
</svg>
